<?xml version="1.0" encoding="UTF-8" standalone="no"?>
<svg
   xmlns:dc="http://purl.org/dc/elements/1.1/"
   xmlns:cc="http://creativecommons.org/ns#"
   xmlns:rdf="http://www.w3.org/1999/02/22-rdf-syntax-ns#"
   xmlns:svg="http://www.w3.org/2000/svg"
   xmlns="http://www.w3.org/2000/svg"
   xmlns:sodipodi="http://sodipodi.sourceforge.net/DTD/sodipodi-0.dtd"
   xmlns:inkscape="http://www.inkscape.org/namespaces/inkscape"
   version="1.1"
   width="4371"
   height="2908"
   id="svg2"
   inkscape:version="0.91 r13725"
   sodipodi:docname="computer.svg">
  <metadata
     id="metadata838">
    <rdf:RDF>
      <cc:Work
         rdf:about="">
        <dc:format>image/svg+xml</dc:format>
        <dc:type
           rdf:resource="http://purl.org/dc/dcmitype/StillImage" />
      </cc:Work>
    </rdf:RDF>
  </metadata>
  <defs
     id="defs836" />
  <sodipodi:namedview
     pagecolor="#ffffff"
     bordercolor="#666666"
     borderopacity="1"
     objecttolerance="10"
     gridtolerance="10"
     guidetolerance="10"
     inkscape:pageopacity="0"
     inkscape:pageshadow="2"
     inkscape:window-width="1107"
     inkscape:window-height="785"
     id="namedview834"
     showgrid="false"
     inkscape:zoom="0.28368794"
     inkscape:cx="994.62656"
     inkscape:cy="728.5257"
     inkscape:window-x="0"
     inkscape:window-y="0"
     inkscape:window-maximized="0"
     inkscape:current-layer="g6" />
  <g
     transform="scale(4.26855, 4.27019)"
     id="g6">
    <path
       d="M 56.0057 55.2193 L 170.218 499.34 L 511.066 518.519 L 325.619 39.843 Z"
       fill="#ffffff"
       fill-opacity="0.501961"
       id="path8" />
    <path
       d="M 397.688 349.643 L 175.748 502.315 L 63.6646 62.3687 L 337.141 49.1651 Z"
       fill="#ffffff"
       fill-opacity="0.501961"
       id="path10" />
    <path
       d="M 130.946 627.178 L 656.879 472.773 L 906.262 541.531 L 618.168 254.731 Z"
       fill="#edb5a9"
       fill-opacity="0.501961"
       id="path12" />
    <path
       d="M 1021.35 696 L 1024.97 541.643 L 553.897 570.199 L 872.697 681.734 Z"
       fill="#000506"
       fill-opacity="0.501961"
       id="path14" />
    <path
       d="M 1021.86 339.956 L 1034.21 492.311 L 680.898 429.832 L 757.162 366.451 Z"
       fill="#030500"
       fill-opacity="0.501961"
       id="path16" />
    <path
       d="M 527.263 612.979 L 279.055 529.581 L 177.641 579.406 L 369.83 603.234 Z"
       fill="#f0faff"
       fill-opacity="0.501961"
       id="path18" />
    <path
       d="M 403.434,358.685 358.297,125.779 455.951,377.572 164.18357,552.47729 Z"
       id="path20"
       inkscape:connector-curvature="0"
       style="fill:#053342;fill-opacity:0.50196096"
       sodipodi:nodetypes="ccccc" />
    <path
       d="M 840.421 477.011 L 465.731 359.444 L 901.672 536.644 L 1019.07 484.656 Z"
       fill="#e5ced8"
       fill-opacity="0.501961"
       id="path22" />
    <path
       d="M 632.656 652.954 L 863.922 520.084 L 513.962 451.727 L 387.057 537.758 Z"
       fill="#613b34"
       fill-opacity="0.501961"
       id="path26" />
    <path
       d="M 249.493 569.328 L 431.205 452.32 L 423.895 505.699 L 414.683 585.314 Z"
       fill="#6495a6"
       fill-opacity="0.501961"
       id="path28" />
    <path
       d="M 397.178 422.761 L 263.059 544.658 L 619.742 392.919 L 414.327 381.95 Z"
       fill="#dadceb"
       fill-opacity="0.501961"
       id="path30" />
    <path
       d="M 395.8 356.888 L 320.58 38.3634 L 68.3824 138.946 L 173.316 497.253 Z"
       fill="#ffffff"
       fill-opacity="0.501961"
       id="path32" />
    <path
       d="M 750.336 443.781 L 857.652 483.695 L 1021.17 452.02 L 1020.48 362.287 Z"
       fill="#002128"
       fill-opacity="0.501961"
       id="path34" />
    <path
       d="M 570.184 551.934 L 554.881 551.447 L 534.081 594.525 L 582.564 576.631 Z"
       fill="#f6fdff"
       fill-opacity="0.501961"
       id="path36" />
    <path
       d="M 585.974 287.342 L 594.235 388.722 L 706.583 435.607 L 864.901 343.148 Z"
       fill="#be755a"
       fill-opacity="0.501961"
       id="path38" />
    <path
       d="M -16 644.361 L 791.356 642.004 L 830.278 615.657 L 850.524 696 Z"
       fill="#6a8999"
       fill-opacity="0.501961"
       id="path40" />
    <path
       d="M 413.948 384.369 L 340.646 78.4919 L 598.811 240.138 L 504.305 384.119 Z"
       fill="#628191"
       fill-opacity="0.501961"
       id="path42" />
    <path
       d="M 402.751 373.598 L 397.299 417.069 L 246.286 557.273 L 232.406 491.998 Z"
       fill="#24555b"
       fill-opacity="0.501961"
       id="path44" />
    <path
       d="M 198.419 584.476 L 127.647 360.562 L 179.072 601.639 L 652.366 634.044 Z"
       fill="#162322"
       fill-opacity="0.501961"
       id="path48" />
    <path
       d="M 192.416 581.373 L 391.521 602.019 L 521.606 597.044 L 322.168 576.011 Z"
       fill="#ffffff"
       fill-opacity="0.501961"
       id="path50" />
    <path
       d="M 450.77 525.04 L 527.368 485.605 L 642.18 525.75 L 524.477 467.438 Z"
       fill="#fad6da"
       fill-opacity="0.501961"
       id="path52" />
    <path
       d="M 550.472 313.668 L 486.835 426.575 L 597.061 289.443 L 572.921 287.984 Z"
       fill="#fff0ea"
       fill-opacity="0.501961"
       id="path54" />
    <path
       d="M 622.033 406.359 L 422.009 379.51 L 679.112 468.668 L 784.845 456.813 Z"
       fill="#efc5c7"
       fill-opacity="0.501961"
       id="path56" />
    <path
       d="M 670.461 352.289 L 561.682 331.322 L 544.72 379.983 L 678.97 374.312 Z"
       fill="#3e4957"
       fill-opacity="0.501961"
       id="path58" />
    <path
       d="M 579.9 541.356 L 611.272 638.738 L 793.089 645.607 L 848.898 535.789 Z"
       fill="#1d2428"
       fill-opacity="0.501961"
       id="path60" />
    <path
       d="M 845.088 572.296 L 840.102 545.168 L 899.889 467.687 L 1039 493.478 Z"
       fill="#869ca7"
       fill-opacity="0.501961"
       id="path62" />
    <path
       d="M 887.46 353.769 L 825.982 476.078 L 711.772 426.773 L 737.982 345.56 Z"
       fill="#573a3a"
       fill-opacity="0.501961"
       id="path64" />
    <path
       d="M 494.064 557.695 L 515.758 529.991 L 530.721 522.352 L 474.971 601.313 Z"
       fill="#e7f2ff"
       fill-opacity="0.501961"
       id="path66" />
    <path
       d="M 182.118 40.9959 L 374.389 393.656 L 335.409 417.323 L 168.188 486.464 Z"
       fill="#f4f0fc"
       fill-opacity="0.501961"
       id="path68" />
    <path
       d="M 491.754 384.494 L 288.437 572.567 L 330.15 578.859 L 325.962 580.026 Z"
       fill="#4f747d"
       fill-opacity="0.501961"
       id="path70" />
    <path
       d="M 1039 679.068 L 1010.99 546.886 L 990.164 499.098 L 832.406 687.579 Z"
       fill="#00252e"
       fill-opacity="0.501961"
       id="path72" />
    <path
       d="M 614.855 532.07 L 466.537 400.117 L 805.833 505.467 L 728.869 532.256 Z"
       fill="#9f665a"
       fill-opacity="0.501961"
       id="path74" />
    <path
       d="M 51.2087 18.6606 L 134.608 359.247 L 119.412 370.125 L 71.0914 178.204 Z"
       fill="#7d8383"
       fill-opacity="0.501961"
       id="path76" />
    <path
       d="M 299.265 609.323 L 420.002 473.781 L 437.118 472.018 L 372.553 539.015 Z"
       fill="#ffffff"
       fill-opacity="0.501961"
       id="path78" />
    <path
       d="M 635.729 334.672 L 828.064 345.493 L 689.072 302.732 L 555.799 284.07 Z"
       fill="#dcaaa0"
       fill-opacity="0.501961"
       id="path80" />
    <path
       d="M 256.109 595.915 L 338.804 526.137 L 438.708 421.111 L 328.783 521.607 Z"
       fill="#ffffff"
       fill-opacity="0.501961"
       id="path82" />
    <path
       d="M 251.776 589.148 L 266.589 551.908 L 223.907 547.458 L 187.601 575.594 Z"
       fill="#f3f5ff"
       fill-opacity="0.501961"
       id="path84" />
    <path
       d="M 371.536 585.013 L 380.592 587.641 L 423.127 534.406 L 424.225 522.711 Z"
       fill="#ffffff"
       fill-opacity="0.501961"
       id="path86" />
    <path
       d="M 936.657 315.229 L 826.978 325.337 L 909.495 335.667 L 1039 318.714 Z"
       fill="#b5b3c0"
       fill-opacity="0.501961"
       id="path88" />
    <path
       d="M 178.852 499.642 L 238.203 459.431 L 221.065 504.567 L 180.997 531.892 Z"
       fill="#4993b5"
       fill-opacity="0.501961"
       id="path90" />
    <path
       d="M 416.354 520.331 L 484.709 413.998 L 522.742 417.569 L 486.599 435.037 Z"
       fill="#aa674b"
       fill-opacity="0.501961"
       id="path92" />
    <path
       d="M 476.108 484.49 L 453.521 507.428 L 418.958 587.138 L 459.06 541.848 Z"
       fill="#101c25"
       fill-opacity="0.501961"
       id="path94" />
    <path
       d="M 507.333 477.415 L 462.362 511.753 L 471.103 543.643 L 408.577 605.047 Z"
       fill="#cbc4cb"
       fill-opacity="0.501961"
       id="path96" />
    <path
       d="M 698.228 468.837 L 615.347 479.187 L 499.004 431.668 L 599.686 460.566 Z"
       fill="#dec3c7"
       fill-opacity="0.501961"
       id="path98" />
    <path
       d="M 392.252 405.221 L 267.153 525.262 L 234.961 544.958 L 222.026 535.815 Z"
       fill="#809ea9"
       fill-opacity="0.501961"
       id="path100" />
    <path
       d="M 441.302 565.887 L 537.165 483.194 L 772.895 623.739 L 521.238 526.28 Z"
       fill="#483133"
       fill-opacity="0.501961"
       id="path102" />
    <path
       d="M 502.487 602.9 L 537.772 588.421 L 526.101 537.611 L 486.987 584.122 Z"
       fill="#002b34"
       fill-opacity="0.501961"
       id="path104" />
    <path
       d="M 509.352 476.72 L 452.032 511.919 L 501.62 437.12 L 554.752 462.645 Z"
       fill="#683c36"
       fill-opacity="0.501961"
       id="path106" />
    <path
       d="M 190.755 509.388 L 224.793 486.031 L 311.91 418.657 L 201.554 519.112 Z"
       fill="#bcddff"
       fill-opacity="0.501961"
       id="path110" />
    <path
       d="M 307.608 544.222 L 384.314 461.749 L 255.961 568.546 L 275.754 573.897 Z"
       fill="#4f7b86"
       fill-opacity="0.501961"
       id="path112" />
    <path
       d="M 226.853 535.171 L 342.249 417.198 L 178.248 534.738 L 177.617 593.66 Z"
       fill="#082d34"
       fill-opacity="0.501961"
       id="path114" />
    <path
       d="M 874.674 507.883 L 849.846 500.825 L 916.265 469.477 L 963.204 481.63 Z"
       fill="#c7c4d6"
       fill-opacity="0.501961"
       id="path116" />
    <path
       d="M 276.212 529.492 L 226.998 590.78 L 314.877 517.996 L 409.013 423.503 Z"
       fill="#f3fbff"
       fill-opacity="0.501961"
       id="path118" />
    <path
       d="M 117.592 49.3165 L 276.769 36.1501 L 100.3 32.9497 L 40.1494 38.6814 Z"
       fill="#052f32"
       fill-opacity="0.501961"
       id="path120" />
    <path
       d="M 875.866 532.319 L 944.285 554.13 L 970.797 572.285 L 954.788 486.239 Z"
       fill="#5a7682"
       fill-opacity="0.501961"
       id="path122" />
    <path
       d="M 658.664 639.619 L 507.544 607.135 L 407.274 617.708 L 564.448 633.978 Z"
       fill="#412d28"
       fill-opacity="0.501961"
       id="path124" />
    <path
       d="M 404.232 343.322 L 396.472 352.878 L 359.292 381.148 L 410.101 387.246 Z"
       fill="#185e73"
       fill-opacity="0.501961"
       id="path126" />
    <path
       d="M 448.489 382.05 L 499.15 382.232 L 524.819 361.796 L 551.741 297.793 Z"
       fill="#3d677b"
       fill-opacity="0.501961"
       id="path128" />
    <path
       d="M 218.156 476.738 L 209.448 479.477 L 152.986 521.312 L 220.739 486.972 Z"
       fill="#003845"
       fill-opacity="0.501961"
       id="path130" />
    <path
       d="M 453.633 472.042 L 434.697 522.039 L 483.763 457.659 L 490.687 435.451 Z"
       fill="#f9eef9"
       fill-opacity="0.501961"
       id="path132" />
    <path
       d="M 620.594 482.362 L 730.606 508.331 L 575.955 492.309 L 524.024 454.411 Z"
       fill="#483032"
       fill-opacity="0.501961"
       id="path134" />
    <path
       d="M 421.147 575.194 L 429.639 502.518 L 446.535 479.462 L 433.943 533.673 Z"
       fill="#2a282c"
       fill-opacity="0.501961"
       id="path136" />
    <path
       d="M 468.176 559.869 L 457.352 591.574 L 434.509 585.603 L 455.902 550.462 Z"
       fill="#002329"
       fill-opacity="0.501961"
       id="path138" />
    <path
       d="M 77.6644 125.504 L 136.815 357.579 L 184.885 54.5186 L 59.626 59.9903 Z"
       fill="#e9e4f4"
       fill-opacity="0.501961"
       id="path140" />
    <path
       d="M 274.208 42.8481 L 102.628 63.5798 L 43.3649 45.9068 L 115.676 48.6568 Z"
       fill="#6f94a4"
       fill-opacity="0.501961"
       id="path142" />
    <path
       d="M 562.232 276.28 L 470.496 158.332 L 687.224 295.801 L 658.115 299.228 Z"
       fill="#4e6f7f"
       fill-opacity="0.501961"
       id="path144" />
    <path
       d="M 783.469 496.074 L 796.609 495.314 L 820.414 436.226 L 845.72 438.869 Z"
       fill="#9b9c90"
       fill-opacity="0.501961"
       id="path146" />
    <path
       d="M 1035.94 519.921 L 1005.8 519.156 L 993.015 484.748 L 1019.93 494.506 Z"
       fill="#bcbdc8"
       fill-opacity="0.501961"
       id="path148" />
    <path
       d="M 572.921 312.023 L 525.393 385.602 L 591.037 343.258 L 632.097 341.568 Z"
       fill="#af5940"
       fill-opacity="0.501961"
       id="path150" />
    <path
       d="M 564.835 617.223 L 453.19 609.771 L 582.727 573.646 L 604.631 592.273 Z"
       fill="#787672"
       fill-opacity="0.501961"
       id="path152" />
    <path
       d="M 566.833 399.141 L 474.468 414.362 L 387.59 394.719 L 552.83 380.062 Z"
       fill="#d7cddb"
       fill-opacity="0.501961"
       id="path154" />
    <path
       d="M 13.862 696 L 589.736 637.096 L 213.118 601.114 L -16 528.92 Z"
       fill="#5a7685"
       fill-opacity="0.501961"
       id="path156" />
    <path
       d="M 980.948 416.266 L 885.665 485.243 L 837.85 473.994 L 811.694 463.103 Z"
       fill="#072126"
       fill-opacity="0.501961"
       id="path158" />
    <path
       d="M 916.544 534.901 L 851.028 569.008 L 847.729 690.652 L 1039 676.374 Z"
       fill="#002a33"
       fill-opacity="0.501961"
       id="path160" />
    <path
       d="M 612.535 438.396 L 547.254 408.887 L 712.061 397.11 L 594.204 364.843 Z"
       fill="#cb9979"
       fill-opacity="0.501961"
       id="path162" />
    <path
       d="M 854.499 696 L 798.199 653.128 L 801.531 622.112 L 827.373 627.129 Z"
       fill="#678798"
       fill-opacity="0.501961"
       id="path164" />
    <path
       d="M 578.724 568.119 L 559.899 546.262 L 548.028 568.479 L 549.365 576.26 Z"
       fill="#e7e5ff"
       fill-opacity="0.501961"
       id="path166" />
    <path
       d="M 372.558 536.999 L 337.497 578.504 L 370.539 579.664 L 395.681 558.491 Z"
       fill="#4b676e"
       fill-opacity="0.501961"
       id="path168" />
    <path
       d="M 381.353 524.983 L 325.919 492.442 L 381.527 503.455 L 305.418 512.89 Z"
       fill="#dee2f0"
       fill-opacity="0.501961"
       id="path170" />
    <path
       d="M 403.371 585.169 L 425.625 583.077 L 419.913 579.699 L 387.975 580.098 Z"
       fill="#001527"
       fill-opacity="0.501961"
       id="path172" />
    <path
       d="M 804.291 479.003 L 908.065 479.989 L 767.073 509.379 L 661.824 437.455 Z"
       fill="#bd938e"
       fill-opacity="0.501961"
       id="path174" />
    <path
       d="M 353.834 454.359 L 258.133 546.969 L 167.701 550.215 L 259.39 534.22 Z"
       fill="#154e56"
       fill-opacity="0.501961"
       id="path176" />
    <path
       d="M 1006.33 421.35 L 883.439 463.087 L 1001.01 483.334 L 1039 505.003 Z"
       fill="#001f28"
       fill-opacity="0.501961"
       id="path178" />
    <path
       d="M 203.299 568.346 L 410.212 583.912 L 477.343 608.105 L 394.299 602.915 Z"
       fill="#f2e8fd"
       fill-opacity="0.501961"
       id="path180" />
    <path
       d="M 563.551 293.478 L 593.56 284.811 L 521.797 366.326 L 542.562 324.141 Z"
       fill="#fbdce5"
       fill-opacity="0.501961"
       id="path182" />
    <path
       d="M 881.978 542.813 L 857.891 549.389 L 838.852 586.668 L 860.385 478.184 Z"
       fill="#a1a5aa"
       fill-opacity="0.501961"
       id="path184" />
    <path
       d="M 617.294 524.76 L 561.279 497.052 L 615.66 505.877 L 660.656 509.568 Z"
       fill="#bc938c"
       fill-opacity="0.501961"
       id="path186" />
    <path
       d="M 729.443 330.233 L 738.658 369.983 L 694.724 435.15 L 661.494 311.398 Z"
       fill="#c38362"
       fill-opacity="0.501961"
       id="path188" />
    <path
       d="M 988.872 392.934 L 1039 330.024 L 848.587 352.234 L 982.947 377.651 Z"
       fill="#254952"
       fill-opacity="0.501961"
       id="path190" />
    <path
       d="M 534.404 433.351 L 587.886 462.373 L 603.523 451.118 L 570.877 432.335 Z"
       fill="#6f463e"
       fill-opacity="0.501961"
       id="path192" />
    <path
       d="M 748.122 648.164 L 808.556 622.009 L 835.092 627.686 L 844.6 519.481 Z"
       fill="#012127"
       fill-opacity="0.501961"
       id="path194" />
    <path
       d="M 528.917 470.748 L 505.004 480.138 L 468.201 505.852 L 466.291 535.928 Z"
       fill="#e0c9c9"
       fill-opacity="0.501961"
       id="path196" />
    <path
       d="M 225.278 53.054 L 195.283 35.6471 L 126.283 36.7924 L 344.386 31.0268 Z"
       fill="#2c5257"
       fill-opacity="0.501961"
       id="path198" />
    <path
       d="M 78.6175 134.641 L 54.2503 45.6423 L 49.5504 117.584 L 92.995 198.51 Z"
       fill="#5f6668"
       fill-opacity="0.501961"
       id="path200" />
    <path
       d="M 408.424 416.469 L 414.231 381.219 L 225.308 532.942 L 223.945 539.715 Z"
       fill="#728d95"
       fill-opacity="0.501961"
       id="path202" />
    <path
       d="M 618.29 617.566 L 706.477 632.015 L 793.599 633.772 L 629.799 600.229 Z"
       fill="#002028"
       fill-opacity="0.501961"
       id="path204" />
    <path
       d="M 517.167 552.211 L 518.204 541.959 L 550.413 541.458 L 554.602 554.746 Z"
       fill="#719baa"
       fill-opacity="0.501961"
       id="path206" />
    <path
       d="M 672.863 377.509 L 623.812 344.727 L 611.785 350.132 L 610.335 377.24 Z"
       fill="#4a829a"
       fill-opacity="0.501961"
       id="path208" />
    <path
       d="M 566.373 337.603 L 587.514 341.927 L 538.169 375.582 L 570.619 387.768 Z"
       fill="#653433"
       fill-opacity="0.501961"
       id="path210" />
    <path
       d="M 506.285 427.399 L 615.693 472.188 L 548.737 450.443 L 483.415 437.442 Z"
       fill="#dfc2cb"
       fill-opacity="0.501961"
       id="path212" />
    <path
       d="M 612.213 443.434 L 663.321 456.801 L 644.628 429.474 L 593.785 437.439 Z"
       fill="#edd8e8"
       fill-opacity="0.501961"
       id="path214" />
    <path
       d="M 426.736 581.453 L 470.425 595.024 L 485.026 574.772 L 491.134 609.174 Z"
       fill="#a59fa1"
       fill-opacity="0.501961"
       id="path216" />
    <path
       d="M 191.709 581.007 L 268.899 607.492 L 180.834 591.452 L 155.903 467.393 Z"
       fill="#052d37"
       fill-opacity="0.501961"
       id="path218" />
    <path
       d="M 529.279 580.226 L 485.496 585.451 L 530.277 597.74 L 560.932 545.609 Z"
       fill="#08303c"
       fill-opacity="0.501961"
       id="path220" />
    <path
       d="M 833.831 369.096 L 807.488 431.886 L 729.402 408.302 L 751.198 343.925 Z"
       fill="#53393a"
       fill-opacity="0.501961"
       id="path222" />
    <path
       d="M 168.122 67.1551 L 59.5785 52.525 L 87.9828 48.5693 L 91.7043 80.23 Z"
       fill="#c1c5d0"
       fill-opacity="0.501961"
       id="path224" />
    <path
       d="M 340.853 559.4 L 345.317 555.689 L 312.275 552.435 L 301.757 553.301 Z"
       fill="#00262d"
       fill-opacity="0.501961"
       id="path226" />
    <path
       d="M 265.587 464.156 L 352.452 326.951 L 354.652 107.904 L 198.67 49.6799 Z"
       fill="#f3eff8"
       fill-opacity="0.501961"
       id="path228" />
    <path
       d="M 645.933 533.502 L 724.997 555.786 L 858.391 522.373 L 744.184 504.47 Z"
       fill="#624240"
       fill-opacity="0.501961"
       id="path230" />
    <path
       d="M 883.073 310.473 L 889.338 341.76 L 859.809 334.483 L 788.131 358.437 Z"
       fill="#ae9ea0"
       fill-opacity="0.501961"
       id="path232" />
    <path
       d="M 983.618 570.659 L 1039 550.275 L 942.685 487.467 L 998.427 501.665 Z"
       fill="#2f525c"
       fill-opacity="0.501961"
       id="path234" />
    <path
       d="M 822.607 460.401 L 804.151 439.106 L 759.645 444.362 L 786.948 458.856 Z"
       fill="#00262e"
       fill-opacity="0.501961"
       id="path238" />
    <path
       d="M 85.6941 171.449 L 345.272 110.212 L 300.836 45.2619 L 151.999 56.3599 Z"
       fill="#e1e2ef"
       fill-opacity="0.501961"
       id="path240" />
    <path
       d="M 297.68 567.4 L 295.31 564.086 L 292.355 574.337 L 324.975 574.06 Z"
       fill="#032b39"
       fill-opacity="0.501961"
       id="path242" />
    <path
       d="M 434.633 572.155 L 449.928 561.219 L 433.791 589.298 L 417.789 596.21 Z"
       fill="#dad5e4"
       fill-opacity="0.501961"
       id="path246" />
    <path
       d="M 436.38 457.705 L 424.569 494.701 L 468.347 430.869 L 483.853 391.86 Z"
       fill="#fdf5ff"
       fill-opacity="0.501961"
       id="path248" />
    <path
       d="M 86.6113 212.164 L 92.727 183.507 L 115.74 312.764 L 100.29 269.3 Z"
       fill="#b6a6a8"
       fill-opacity="0.501961"
       id="path250" />
    <path
       d="M 337.98 413.555 L 284.614 426.164 L 302.128 434.624 L 244.126 486.283 Z"
       fill="#609fbd"
       fill-opacity="0.501961"
       id="path252" />
    <path
       d="M 36.2074 46.3493 L 53.1887 30.4871 L 64.5592 55.3288 L 55.3089 76.3965 Z"
       fill="#1f4446"
       fill-opacity="0.501961"
       id="path254" />
    <path
       d="M 949.045 495.338 L 967.83 485.915 L 937.113 558.018 L 933.671 525.292 Z"
       fill="#93a1b0"
       fill-opacity="0.501961"
       id="path256" />
    <path
       d="M 909.102 550.566 L 926.608 508.56 L 950.072 474.967 L 922.006 471.531 Z"
       fill="#a7afc0"
       fill-opacity="0.501961"
       id="path258" />
    <path
       d="M 523.909 375.028 L 524.705 382.562 L 612.983 287.508 L 583.111 286.278 Z"
       fill="#e9ab99"
       fill-opacity="0.501961"
       id="path260" />
    <path
       d="M 404.249 502.768 L 428.118 506.241 L 390.715 519.498 L 409.199 530.479 Z"
       fill="#335e63"
       fill-opacity="0.501961"
       id="path262" />
    <path
       d="M 152.277 428.167 L 134.27 352.193 L 113.863 335.596 L 133.964 410.636 Z"
       fill="#395d5d"
       fill-opacity="0.501961"
       id="path264" />
    <path
       d="M 408.774 363.696 L 415.304 380.21 L 391.52 397.422 L 253.592 502.691 Z"
       fill="#294447"
       fill-opacity="0.501961"
       id="path266" />
    <path
       d="M 528.095 530.561 L 506.198 551.688 L 503.687 550.189 L 510.153 533.303 Z"
       fill="#d6e0f1"
       fill-opacity="0.501961"
       id="path268" />
    <path
       d="M 949.932 491.868 L 911.564 555.422 L 895.029 560.84 L 944.382 487.842 Z"
       fill="#3f5b65"
       fill-opacity="0.501961"
       id="path270" />
    <path
       d="M 708.917 604.058 L 588.259 571.297 L 511.676 509.823 L 604.35 518.919 Z"
       fill="#4a3b3c"
       fill-opacity="0.501961"
       id="path272" />
    <path
       d="M 369.351 537.001 L 320.252 521.112 L 232.729 566.503 L 280.577 527.666 Z"
       fill="#d2d9e9"
       fill-opacity="0.501961"
       id="path274" />
    <path
       d="M 481.972 480.473 L 505.076 476.174 L 475.031 500.954 L 446.401 539.077 Z"
       fill="#362c32"
       fill-opacity="0.501961"
       id="path276" />
    <path
       d="M 406.663 535.634 L 405.29 510.353 L 418.014 514.851 L 391.003 531.46 Z"
       fill="#c7d0dc"
       fill-opacity="0.501961"
       id="path278" />
    <path
       d="M 434.333 546.01 L 443.04 541.142 L 444.775 484.545 L 432.983 544.184 Z"
       fill="#c8a8a2"
       fill-opacity="0.501961"
       id="path280" />
    <path
       d="M 228.325 547.115 L 197.824 566.693 L 189.992 579.638 L 300.582 596.358 Z"
       fill="#d6d6ed"
       fill-opacity="0.501961"
       id="path282" />
    <path
       d="M 496.062 544.756 L 509.679 523.041 L 501.916 551.48 L 468.539 591.308 Z"
       fill="#03343d"
       fill-opacity="0.501961"
       id="path284" />
    <path
       d="M 369.315 368.459 L 382.307 384.558 L 353.155 411.614 L 350.082 379.922 Z"
       fill="#89b5d1"
       fill-opacity="0.501961"
       id="path286" />
    <path
       d="M 376.043 577.02 L 373.308 581.612 L 337.902 576.295 L 368.963 575.077 Z"
       fill="#022439"
       fill-opacity="0.501961"
       id="path288" />
    <path
       d="M 277.243 571.754 L 281.177 545.116 L 299.081 551.507 L 263.36 569.264 Z"
       fill="#274c56"
       fill-opacity="0.501961"
       id="path290" />
    <path
       d="M 421.128 527.319 L 408.766 556.776 L 412.037 551.162 L 388.673 567.223 Z"
       fill="#fef3ff"
       fill-opacity="0.501961"
       id="path292" />
    <path
       d="M 594.072 411.205 L 568.999 414.487 L 596.607 432.948 L 631.069 424.735 Z"
       fill="#b37a5d"
       fill-opacity="0.501961"
       id="path294" />
    <path
       d="M 512.293 374.703 L 504.687 407.603 L 577.757 427.99 L 514.423 367.683 Z"
       fill="#f2d2d4"
       fill-opacity="0.501961"
       id="path296" />
    <path
       d="M 1039 11.8106 L 615.344 273.57 L 783.237 334.992 L 1039 290.673 Z"
       fill="#557383"
       fill-opacity="0.501961"
       id="path298" />
    <path
       d="M 121.177 54.0798 L 182.453 52.7418 L 124.19 56.6345 L 43.2237 58.4527 Z"
       fill="#205365"
       fill-opacity="0.501961"
       id="path300" />
    <path
       d="M 943.747 297.084 L 979.199 367.374 L 943.598 352.292 L 980.658 313.977 Z"
       fill="#526b74"
       fill-opacity="0.501961"
       id="path302" />
    <path
       d="M 427.268 639.216 L 641.703 646.783 L 686.033 642.15 L 497.563 629.562 Z"
       fill="#5f7e8e"
       fill-opacity="0.501961"
       id="path304" />
    <path
       d="M 99.5339 290.266 L 146.612 473.758 L 151.939 484.768 L 123.26 371.28 Z"
       fill="#8dabab"
       fill-opacity="0.501961"
       id="path306" />
    <path
       d="M 422.262 572.773 L 438.891 508.964 L 412.509 552.95 L 470.515 534.572 Z"
       fill="#183137"
       fill-opacity="0.501961"
       id="path308" />
    <path
       d="M 550.205 557.041 L 516.664 553.659 L 513.981 543.303 L 486.193 592.787 Z"
       fill="#022b36"
       fill-opacity="0.501961"
       id="path312" />
    <path
       d="M 146.131 395.139 L 168.525 487.481 L 174.213 505.283 L 229.519 458.265 Z"
       fill="#e8e5ef"
       fill-opacity="0.501961"
       id="path314" />
    <path
       d="M 526.681 582.721 L 530.629 589.544 L 523.776 587.236 L 519.651 585.878 Z"
       fill="#d7c5cd"
       fill-opacity="0.501961"
       id="path316" />
    <path
       d="M 680.07 337.687 L 827.84 357.6 L 711.127 327.925 L 683.702 309.896 Z"
       fill="#9c685d"
       fill-opacity="0.501961"
       id="path318" />
    <path
       d="M 332.565 520.041 L 271.862 583.058 L 435.426 434.94 L 429.549 419.995 Z"
       fill="#e9edff"
       fill-opacity="0.501961"
       id="path320" />
    <path
       d="M 508.08 503.285 L 526.985 474.34 L 516.179 478.052 L 475.626 498.94 Z"
       fill="#e1cfd1"
       fill-opacity="0.501961"
       id="path322" />
    <path
       d="M 376.915 533.199 L 381.563 533.169 L 415.024 537.454 L 395.03 541.016 Z"
       fill="#00333a"
       fill-opacity="0.501961"
       id="path324" />
    <path
       d="M 320.559 538.2 L 349.034 544.037 L 360.743 541.272 L 347.165 537.734 Z"
       fill="#0a373b"
       fill-opacity="0.501961"
       id="path326" />
    <path
       d="M 685.623 364.959 L 672.543 381.842 L 664.404 385.966 L 644.445 342.266 Z"
       fill="#7a4738"
       fill-opacity="0.501961"
       id="path328" />
    <path
       d="M 276.625 473.105 L 242.948 457.025 L 279.887 433.193 L 257.579 448.69 Z"
       fill="#448cb0"
       fill-opacity="0.501961"
       id="path330" />
    <path
       d="M 503.862 594.507 L 442.553 586.389 L 462.692 607.207 L 513.41 612.144 Z"
       fill="#a19c97"
       fill-opacity="0.501961"
       id="path332" />
    <path
       d="M 418.459 477.464 L 448.709 436.682 L 352.981 543.922 L 405.335 490.542 Z"
       fill="#618387"
       fill-opacity="0.501961"
       id="path334" />
    <path
       d="M 884.221 356.267 L 843.877 320.867 L 853.007 340.554 L 826.708 370.196 Z"
       fill="#6d4c43"
       fill-opacity="0.501961"
       id="path336" />
    <path
       d="M 616.193 406.106 L 560.699 390.16 L 640.252 375.361 L 613.465 417.758 Z"
       fill="#dbac9c"
       fill-opacity="0.501961"
       id="path338" />
    <path
       d="M 332.325 518.695 L 392.966 456.944 L 394.532 446.89 L 329.332 505.396 Z"
       fill="#88a8b3"
       fill-opacity="0.501961"
       id="path340" />
    <path
       d="M 974.727 447.301 L 846.087 382.693 L 834.869 471.359 L 876.473 483.417 Z"
       fill="#0d272e"
       fill-opacity="0.501961"
       id="path342" />
    <path
       d="M 463.52 625.292 L 391.174 617.669 L 374.352 601.824 L 538.026 615.505 Z"
       fill="#55413f"
       fill-opacity="0.501961"
       id="path344" />
    <path
       d="M 310.03 593.253 L 384.415 594.414 L 320.877 595.924 L 406.906 494.279 Z"
       fill="#f2eafc"
       fill-opacity="0.501961"
       id="path346" />
    <path
       d="M 505.741 383.457 L 507.024 390.024 L 451.123 390.875 L 413.502 377.897 Z"
       fill="#948e89"
       fill-opacity="0.501961"
       id="path348" />
    <path
       d="M 687.028 444.783 L 790.148 480.488 L 898.153 495.068 L 849.716 478.17 Z"
       fill="#d3b4bb"
       fill-opacity="0.501961"
       id="path350" />
    <path
       d="M 570.046 355.351 L 570.08 384.57 L 607.145 372.768 L 587.828 339.352 Z"
       fill="#598194"
       fill-opacity="0.501961"
       id="path352" />
    <path
       d="M 354.925 505.259 L 369.273 527.723 L 329.161 529.886 L 381.609 511.68 Z"
       fill="#376165"
       fill-opacity="0.501961"
       id="path354" />
    <path
       d="M 406.197 389.039 L 475.933 387.472 L 444.149 433.537 L 401.744 432.787 Z"
       fill="#bbc8df"
       fill-opacity="0.501961"
       id="path356" />
    <path
       d="M 394.465 555.74 L 400.644 552.398 L 396.137 551.295 L 356.574 549.874 Z"
       fill="#00272d"
       fill-opacity="0.501961"
       id="path358" />
    <path
       d="M 532.073 385.149 L 697.833 432.492 L 753.764 445.169 L 777.397 467.079 Z"
       fill="#deccdf"
       fill-opacity="0.501961"
       id="path360" />
    <path
       d="M 853.566 514.869 L 853.36 491.367 L 699.648 492.299 L 811.284 516.623 Z"
       fill="#a4827c"
       fill-opacity="0.501961"
       id="path362" />
    <path
       d="M 461.94 530.889 L 466.211 561.185 L 481.31 524.119 L 506.937 490.013 Z"
       fill="#a87b6e"
       fill-opacity="0.501961"
       id="path364" />
    <path
       d="M 501.5 559.647 L 487.113 566.74 L 484.685 583.105 L 494.816 574.744 Z"
       fill="#c9cce5"
       fill-opacity="0.501961"
       id="path366" />
    <path
       d="M 458.34 580.569 L 468.08 577.664 L 471.926 580.9 L 465.823 582.995 Z"
       fill="#f9dee0"
       fill-opacity="0.501961"
       id="path368" />
    <path
       d="M 465.036 549.238 L 447.147 556.529 L 472.455 576.25 L 439.968 583.096 Z"
       fill="#01232a"
       fill-opacity="0.501961"
       id="path370" />
    <path
       d="M 260.563 456.401 L 279.015 455.691 L 295.077 442.745 L 278.499 378.681 Z"
       fill="#e0e0ea"
       fill-opacity="0.501961"
       id="path372" />
    <path
       d="M 675.546 359.884 L 715.781 437.595 L 719.278 340.638 L 575.315 310.721 Z"
       fill="#c78d72"
       fill-opacity="0.501961"
       id="path374" />
    <path
       d="M 207.021 597.698 L 165.613 534.082 L 225.673 539.93 L 169.971 586.794 Z"
       fill="#0d3038"
       fill-opacity="0.501961"
       id="path376" />
    <path
       d="M 325.635 40.7254 L 295.933 38.9916 L 337.249 58.5504 L 365.534 186.003 Z"
       fill="#9ba4b4"
       fill-opacity="0.501961"
       id="path378" />
    <path
       d="M 926.555 493.101 L 938.594 482.946 L 916.266 487.432 L 887.211 558.114 Z"
       fill="#617984"
       fill-opacity="0.501961"
       id="path380" />
    <path
       d="M 365.059 575.272 L 365.263 566.536 L 375.147 567.419 L 376.775 568.848 Z"
       fill="#f7e9fd"
       fill-opacity="0.501961"
       id="path382" />
    <path
       d="M 439.211 396.813 L 308.451 499.447 L 415.306 512.561 L 342.942 494.015 Z"
       fill="#d4dbef"
       fill-opacity="0.501961"
       id="path384" />
    <path
       d="M 455.727 566.449 L 440.069 564.993 L 444.796 559.762 L 484.497 568.448 Z"
       fill="#7795a4"
       fill-opacity="0.501961"
       id="path386" />
    <path
       d="M 256.746 549.902 L 359.74 475.222 L 259.988 565.811 L 224.791 546.241 Z"
       fill="#e7e6f9"
       fill-opacity="0.501961"
       id="path388" />
    <path
       d="M 849.354 530.83 L 818.533 528.926 L 658.463 641.145 L 836.872 570.149 Z"
       fill="#2b2f34"
       fill-opacity="0.501961"
       id="path390" />
    <path
       d="M 418.246 520.084 L 396.742 519.696 L 391.14 522.703 L 414.173 526.4 Z"
       fill="#0c4047"
       fill-opacity="0.501961"
       id="path392" />
    <path
       d="M 660.23 297.659 L 631.659 320.489 L 701.233 306.964 L 699.574 306.227 Z"
       fill="#d5b4b5"
       fill-opacity="0.501961"
       id="path394" />
    <path
       d="M 568.589 494.974 L 479.96 555.467 L 474.911 529.408 L 526.508 492.081 Z"
       fill="#4d363a"
       fill-opacity="0.501961"
       id="path396" />
    <path
       d="M 947.582 524.768 L 836.023 561.934 L 843.474 617.929 L 847.625 581.107 Z"
       fill="#456164"
       fill-opacity="0.501961"
       id="path398" />
    <path
       d="M 866.35 490.495 L 906.332 472.65 L 972.291 486.001 L 960.415 477.366 Z"
       fill="#bebecf"
       fill-opacity="0.501961"
       id="path400" />
    <path
       d="M 544.253 564.579 L 534.786 571.297 L 529.924 558.239 L 532.035 565.335 Z"
       fill="#98aec0"
       fill-opacity="0.501961"
       id="path402" />
    <path
       d="M 996.633 492.541 L 977.843 632.694 L 960.325 523.065 L 996.211 497.587 Z"
       fill="#133842"
       fill-opacity="0.501961"
       id="path404" />
    <path
       d="M 414.287 573.91 L 402.805 574.612 L 421.596 580.73 L 423.92 574.758 Z"
       fill="#dfd1e0"
       fill-opacity="0.501961"
       id="path406" />
    <path
       d="M 903.722 434.918 L 873.119 354.138 L 943.747 328.256 L 902.852 383.468 Z"
       fill="#324f54"
       fill-opacity="0.501961"
       id="path408" />
    <path
       d="M 723.677 406.657 L 749.83 335.891 L 695.065 432 L 743.52 442.015 Z"
       fill="#8b5a4e"
       fill-opacity="0.501961"
       id="path410" />
    <path
       d="M 426.188 585.212 L 383.105 577.965 L 424.824 580.9 L 479.522 488.462 Z"
       fill="#1b3039"
       fill-opacity="0.501961"
       id="path412" />
    <path
       d="M 633.461 487.106 L 703.623 477.693 L 694.636 508.985 L 602.388 498.031 Z"
       fill="#5f413d"
       fill-opacity="0.501961"
       id="path414" />
    <path
       d="M 191.011 54.8271 L 220.672 42.7603 L 75.7346 53.6485 L 282.579 46.9419 Z"
       fill="#92b1c1"
       fill-opacity="0.501961"
       id="path416" />
    <path
       d="M 381.622 541.691 L 392.122 543.482 L 384.015 549.552 L 375.256 544.585 Z"
       fill="#dee6ec"
       fill-opacity="0.501961"
       id="path418" />
    <path
       d="M 457.768 467.33 L 499.56 421.077 L 443.571 467.955 L 416.394 531.745 Z"
       fill="#b37f6e"
       fill-opacity="0.501961"
       id="path420" />
    <path
       d="M 380.394 476.291 L 375.139 494.424 L 415.682 493.103 L 375.769 485.513 Z"
       fill="#cfcedf"
       fill-opacity="0.501961"
       id="path422" />
    <path
       d="M 939.993 313.088 L 865.439 342.138 L 863.747 318.123 L 962.205 330.899 Z"
       fill="#a5adbf"
       fill-opacity="0.501961"
       id="path424" />
    <path
       d="M 222.877 535.742 L 411.793 395.173 L 289.073 506.336 L 243.3 550.278 Z"
       fill="#668791"
       fill-opacity="0.501961"
       id="path426" />
    <path
       d="M 621.321 409.319 L 637.884 392.115 L 721.559 411.568 L 703.826 427.305 Z"
       fill="#ab7b5d"
       fill-opacity="0.501961"
       id="path428" />
    <path
       d="M 117.443 331.475 L 130.325 338.579 L 82.8695 190.656 L 104.523 286.557 Z"
       fill="#9a999a"
       fill-opacity="0.501961"
       id="path432" />
    <path
       d="M 538.946 595.04 L 544.6 572.435 L 587.113 568.246 L 580.177 593.746 Z"
       fill="#86868b"
       fill-opacity="0.501961"
       id="path434" />
    <path
       d="M 309.395 602.766 L 323.249 614.63 L 285.112 592.611 L 382.535 602.928 Z"
       fill="#64575c"
       fill-opacity="0.501961"
       id="path436" />
    <path
       d="M 920.159 370.501 L 975.564 485.075 L 1015.51 485.155 L 1019.01 350.826 Z"
       fill="#0b2b34"
       fill-opacity="0.501961"
       id="path438" />
    <path
       d="M 594.212 395.708 L 596.856 316.144 L 569.603 305.054 L 620.808 381.876 Z"
       fill="#b08070"
       fill-opacity="0.501961"
       id="path440" />
    <path
       d="M 331.242 71.8711 L 109.212 58.241 L 324.797 45.8542 L 338.568 78.1067 Z"
       fill="#d0d5e9"
       fill-opacity="0.501961"
       id="path442" />
    <path
       d="M 599.371 339.458 L 618.265 333.464 L 612.44 350.862 L 605.77 382.49 Z"
       fill="#673f3d"
       fill-opacity="0.501961"
       id="path444" />
    <path
       d="M 592.492 285.201 L 574.629 286.324 L 594.404 314.913 L 626.73 289.305 Z"
       fill="#d5b5b7"
       fill-opacity="0.501961"
       id="path446" />
    <path
       d="M 529.385 479.966 L 573.796 499.905 L 616.293 526.596 L 515.127 488.801 Z"
       fill="#855250"
       fill-opacity="0.501961"
       id="path448" />
    <path
       d="M 208.69 512.335 L 192.089 519.965 L 185.13 512.959 L 180.189 532.08 Z"
       fill="#77b5de"
       fill-opacity="0.501961"
       id="path450" />
    <path
       d="M 574.205 289.84 L 554.583 305.103 L 507.949 392.805 L 556.583 331.278 Z"
       fill="#f5d8db"
       fill-opacity="0.501961"
       id="path452" />
    <path
       d="M 239.733 483.624 L 190.786 512.026 L 211.118 510.112 L 235.129 491.871 Z"
       fill="#bad1ed"
       fill-opacity="0.501961"
       id="path454" />
    <path
       d="M 52.8987 77.1345 L 67.7954 79.3799 L 67.347 134.781 L 50.66 79.8038 Z"
       fill="#847b7f"
       fill-opacity="0.501961"
       id="path456" />
    <path
       d="M 575.786 574.468 L 566.98 554.042 L 543.147 554.068 L 546.238 545.809 Z"
       fill="#dadeec"
       fill-opacity="0.501961"
       id="path458" />
    <path
       d="M 898.543 480.979 L 906.884 519.196 L 866.948 535.54 L 850.955 523.579 Z"
       fill="#94a3b4"
       fill-opacity="0.501961"
       id="path460" />
    <path
       d="M 447.913 382.552 L 606.499 265.049 L 342.539 49.9206 L 365.029 173.55 Z"
       fill="#5a7584"
       fill-opacity="0.501961"
       id="path462" />
    <path
       d="M 494.34 435.176 L 570.048 457.742 L 499.643 444.577 L 459.161 507.868 Z"
       fill="#b68679"
       fill-opacity="0.501961"
       id="path464" />
    <path
       d="M 801.736 630.741 L 605.488 592.051 L 716.171 643.466 L 791.791 645.862 Z"
       fill="#152930"
       fill-opacity="0.501961"
       id="path466" />
    <path
       d="M 342.517 407.796 L 108.858 265.06 L 371.172 188.495 L 371.918 210.369 Z"
       fill="#f2f0f6"
       fill-opacity="0.501961"
       id="path468" />
    <path
       d="M 683.991 301.83 L 667.407 302.027 L 793.265 352.014 L 808.853 342.207 Z"
       fill="#bd9da3"
       fill-opacity="0.501961"
       id="path470" />
    <path
       d="M 475.49 419.13 L 477.704 428.762 L 565.17 434.507 L 487.289 406.951 Z"
       fill="#a87b69"
       fill-opacity="0.501961"
       id="path472" />
    <path
       d="M 1000.76 327.259 L 944.969 332.855 L 992.815 313.109 L 1039 318.377 Z"
       fill="#9099a5"
       fill-opacity="0.501961"
       id="path474" />
    <path
       d="M 428.619 507.407 L 420.541 497.09 L 425.424 517.971 L 397.75 516.196 Z"
       fill="#d0c2cc"
       fill-opacity="0.501961"
       id="path476" />
    <path
       d="M 793.935 435.55 L 754.834 439.502 L 704.87 433.928 L 813.776 374.687 Z"
       fill="#644544"
       fill-opacity="0.501961"
       id="path478" />
    <path
       d="M 131.494 424.552 L 154.037 502.995 L 182.582 607.259 L 148.579 498.52 Z"
       fill="#415551"
       fill-opacity="0.501961"
       id="path480" />
    <path
       d="M 233.454 462.109 L 258.021 461.701 L 261.99 475.98 L 253.893 479.088 Z"
       fill="#b2cfef"
       fill-opacity="0.501961"
       id="path482" />
    <path
       d="M 599.074 505.804 L 626.156 524.612 L 516.254 472.122 L 554.876 480.333 Z"
       fill="#c8a8ac"
       fill-opacity="0.501961"
       id="path484" />
    <path
       d="M 447.114 568.116 L 462.495 581.378 L 475.264 589.225 L 445.191 587.767 Z"
       fill="#062227"
       fill-opacity="0.501961"
       id="path486" />
    <path
       d="M 277.955 607.366 L 151.631 592.736 L 99.5199 696 L 825.417 659.051 Z"
       fill="#587382"
       fill-opacity="0.501961"
       id="path488" />
    <path
       d="M 399.94 561.669 L 358.804 602.873 L 400.258 552.64 L 407.384 548.933 Z"
       fill="#f7edfc"
       fill-opacity="0.501961"
       id="path490" />
    <path
       d="M 579.61 424.423 L 523.393 402.011 L 551.082 378.066 L 523.159 375.622 Z"
       fill="#dba799"
       fill-opacity="0.501961"
       id="path492" />
    <path
       d="M 764.424 359.089 L 843.323 372.116 L 863.151 390.95 L 744.144 396.535 Z"
       fill="#423737"
       fill-opacity="0.501961"
       id="path494" />
    <path
       d="M 835.012 434.767 L 827.916 463.695 L 810.748 465.933 L 824.75 435.52 Z"
       fill="#768173"
       fill-opacity="0.501961"
       id="path496" />
    <path
       d="M 264.423 589.131 L 285.959 564.204 L 292.847 577.454 L 394.889 603.363 Z"
       fill="#e7e1f1"
       fill-opacity="0.501961"
       id="path498" />
    <path
       d="M 521.485 627.78 L 630.654 613.382 L 613.436 634.175 L 593.113 636.914 Z"
       fill="#2c343a"
       fill-opacity="0.501961"
       id="path500" />
    <path
       d="M 121.605 58.0294 L 62.6896 58.9632 L 61.14 79.7882 L 193.458 65.4318 Z"
       fill="#cecfd9"
       fill-opacity="0.501961"
       id="path502" />
    <path
       d="M 371.808 499.855 L 372.225 494.999 L 393.266 497.924 L 394.08 502.266 Z"
       fill="#235453"
       fill-opacity="0.501961"
       id="path504" />
    <path
       d="M 705.495 482.393 L 743.74 528.354 L 725.045 548.643 L 633.409 472.936 Z"
       fill="#79544f"
       fill-opacity="0.501961"
       id="path506" />
    <path
       d="M 235.156 588.116 L 296.719 585.442 L 213.34 554.835 L 202.253 583.421 Z"
       fill="#dbdcec"
       fill-opacity="0.501961"
       id="path508" />
    <path
       d="M 384.484 603.459 L 389.52 607.384 L 388.461 617.249 L 346.304 610.417 Z"
       fill="#03242c"
       fill-opacity="0.501961"
       id="path510" />
    <path
       d="M 605.163 436.205 L 524.444 403.631 L 609.652 446.81 L 639.393 436.228 Z"
       fill="#e4cedc"
       fill-opacity="0.501961"
       id="path512" />
    <path
       d="M 1035.48 506.451 L 920.918 478.449 L 988.437 487.18 L 997.084 484.22 Z"
       fill="#b2b5c8"
       fill-opacity="0.501961"
       id="path514" />
    <path
       d="M 327.965 39.6453 L 332.542 47.4904 L 262.695 42.6768 L 308.403 36.6597 Z"
       fill="#718788"
       fill-opacity="0.501961"
       id="path516" />
    <path
       d="M 779.725 607.131 L 678.27 529.593 L 625.633 539.338 L 642.173 590.232 Z"
       fill="#3b373b"
       fill-opacity="0.501961"
       id="path518" />
    <path
       d="M 871.726 348.035 L 953.996 327.921 L 791.519 336.793 L 847.871 314.988 Z"
       fill="#6b7c81"
       fill-opacity="0.501961"
       id="path520" />
    <path
       d="M 388.256 286.949 L 383.069 347.667 L 264.036 442.768 L 399.768 350.256 Z"
       fill="#d0d3e3"
       fill-opacity="0.501961"
       id="path522" />
    <path
       d="M 923.031 696 L 1019.62 537.095 L 1022.53 592.528 L 1023.2 660.186 Z"
       fill="#01252d"
       fill-opacity="0.501961"
       id="path524" />
    <path
       d="M 580.294 331.444 L 541.796 368.82 L 576.713 311.058 L 712.325 369.826 Z"
       fill="#a96e5b"
       fill-opacity="0.501961"
       id="path526" />
    <path
       d="M 817.053 470.106 L 806.342 461.584 L 791.291 473.919 L 802.432 474.604 Z"
       fill="#c8bcc9"
       fill-opacity="0.501961"
       id="path528" />
    <path
       d="M 438.843 508.565 L 456.415 464.408 L 488.497 447.1 L 455.491 484.203 Z"
       fill="#e9e1eb"
       fill-opacity="0.501961"
       id="path530" />
    <path
       d="M 181.44 580.554 L 231.75 540.271 L 198.137 537.157 L 161.125 515.002 Z"
       fill="#113741"
       fill-opacity="0.501961"
       id="path532" />
    <path
       d="M 465.091 549.227 L 455.132 547.685 L 462.007 543.942 L 466.381 535.958 Z"
       fill="#e4e1ec"
       fill-opacity="0.501961"
       id="path534" />
    <path
       d="M 410.102 487.58 L 357.017 550.581 L 408.184 502.023 L 457.356 439.396 Z"
       fill="#e9e5f9"
       fill-opacity="0.501961"
       id="path536" />
    <path
       d="M 638.324 462.813 L 751.485 466.578 L 752.203 501.416 L 727.32 487.184 Z"
       fill="#b99189"
       fill-opacity="0.501961"
       id="path538" />
    <path
       d="M 814.063 354.21 L 857.216 338.264 L 827.949 333.453 L 756.665 340.071 Z"
       fill="#ae847c"
       fill-opacity="0.501961"
       id="path540" />
    <path
       d="M 377.577 392.687 L 359.911 409.646 L 405.089 337.101 L 401.04 363.313 Z"
       fill="#428092"
       fill-opacity="0.501961"
       id="path542" />
    <path
       d="M 990.358 602.411 L 971.226 557.556 L 908.814 542.363 L 917.363 547.162 Z"
       fill="#1a414c"
       fill-opacity="0.501961"
       id="path544" />
    <path
       d="M 401.771 550.644 L 403.695 553.691 L 413.61 554.283 L 433.637 553.55 Z"
       fill="#becdd9"
       fill-opacity="0.501961"
       id="path546" />
    <path
       d="M 610.055 377.535 L 646.898 385.133 L 654.426 379.074 L 627.58 374.796 Z"
       fill="#b9afb5"
       fill-opacity="0.501961"
       id="path548" />
    <path
       d="M 914.852 508.288 L 942.518 475.392 L 931.497 499.313 L 914.422 542.612 Z"
       fill="#aab2c3"
       fill-opacity="0.501961"
       id="path550" />
    <path
       d="m 239.965,514.382 13.886,-9.741 -67.945,57.186 -16.62155,9.62176 z"
       id="path552"
       inkscape:connector-curvature="0"
       style="fill:#41656f;fill-opacity:0.50196096"
       sodipodi:nodetypes="ccccc" />
    <path
       d="M 306.219 527.91 L 318.178 529.615 L 292.379 514.227 L 352.464 470.683 Z"
       fill="#e1e4f4"
       fill-opacity="0.501961"
       id="path554" />
    <path
       d="M 531.602 484.923 L 514.304 515.241 L 549.983 544.403 L 689.296 588.329 Z"
       fill="#4a393c"
       fill-opacity="0.501961"
       id="path556" />
    <path
       d="M 352.026 117.009 L 352.62 158.086 L 379.689 230.845 L 364.569 170.003 Z"
       fill="#baa4ae"
       fill-opacity="0.501961"
       id="path558" />
    <path
       d="M 374.23 245.42 L 556.29 307.891 L 523.717 346.879 L 432.586 383.48 Z"
       fill="#587483"
       fill-opacity="0.501961"
       id="path560" />
    <path
       d="M 206.063 500.364 L 171.402 514.26 L 133.17 406.387 L 159.098 509.033 Z"
       fill="#1c4c54"
       fill-opacity="0.501961"
       id="path562" />
    <path
       d="M 341.902 521.198 L 376.388 525.728 L 366.486 525.707 L 338.417 536.005 Z"
       fill="#3a646a"
       fill-opacity="0.501961"
       id="path564" />
    <path
       d="M 246.03 28.8048 L 191.667 32.958 L 237.904 33.3898 L 306.163 28.2587 Z"
       fill="#95a4a4"
       fill-opacity="0.501961"
       id="path566" />
    <path
       d="M 269.687 462.362 L 259.565 506.509 L 367.3 406.303 L 300.583 446.558 Z"
       fill="#284d55"
       fill-opacity="0.501961"
       id="path568" />
    <path
       d="M 421.132 403.692 L 352.997 463.203 L 262.554 543.384 L 368.983 441.739 Z"
       fill="#94b9cc"
       fill-opacity="0.501961"
       id="path570" />
    <path
       d="M 209.105 479.519 L 235.483 476.345 L 233.928 467.226 L 229.371 466.765 Z"
       fill="#447a85"
       fill-opacity="0.501961"
       id="path572" />
    <path
       d="M 474.753 588.513 L 492.964 554.322 L 495.182 533.844 L 514.601 527.982 Z"
       fill="#0f333c"
       fill-opacity="0.501961"
       id="path574" />
    <path
       d="M 501.398 558.671 L 542.192 574.659 L 551.657 563.725 L 508.889 594.867 Z"
       fill="#08262e"
       fill-opacity="0.501961"
       id="path576" />
    <path
       d="M 436.847 569.539 L 464.821 534.247 L 465.781 506.453 L 442.647 523.584 Z"
       fill="#32363d"
       fill-opacity="0.501961"
       id="path578" />
    <path
       d="M 404.821 492.719 L 402.477 482.231 L 383.434 486.055 L 401.267 488.836 Z"
       fill="#356360"
       fill-opacity="0.501961"
       id="path580" />
    <path
       d="M 499.892 441.491 L 488.023 445.469 L 496.426 474.927 L 579.301 467.074 Z"
       fill="#795451"
       fill-opacity="0.501961"
       id="path582" />
    <path
       d="M 855.549 510.947 L 849.964 534.374 L 754.181 503.294 L 837.903 516.748 Z"
       fill="#705652"
       fill-opacity="0.501961"
       id="path584" />
    <path
       d="M 892.563 489.793 L 855.308 524.883 L 838.991 569.45 L 845.524 571.299 Z"
       fill="#869499"
       fill-opacity="0.501961"
       id="path586" />
    <path
       d="M 372.041 515.525 L 381.525 521.729 L 301.359 513.706 L 330.622 517.322 Z"
       fill="#c4cbd5"
       fill-opacity="0.501961"
       id="path588" />
    <path
       d="M 334.849 562.282 L 328.247 572.82 L 289.026 570.265 L 327.194 576.809 Z"
       fill="#103140"
       fill-opacity="0.501961"
       id="path590" />
    <path
       d="M 108.551 217.308 L 250.51 68.482 L 70.7013 79.9556 L 70.2717 100.524 Z"
       fill="#e7e7ef"
       fill-opacity="0.501961"
       id="path592" />
    <path
       d="M 261.771 40.357 L 116.346 45.3282 L 129.698 56.7446 L 122.074 34.3489 Z"
       fill="#163a44"
       fill-opacity="0.501961"
       id="path594" />
    <path
       d="M 260.823 436.767 L 265.097 447.582 L 323.61 405.554 L 325.105 423.079 Z"
       fill="#b7b2c2"
       fill-opacity="0.501961"
       id="path596" />
    <path
       d="M 442.407 510.85 L 431.997 554.915 L 450.327 491.226 L 484.396 470.138 Z"
       fill="#c3a295"
       fill-opacity="0.501961"
       id="path598" />
    <path
       d="M 537.415 564.411 L 541.52 570.532 L 542.261 570.626 L 531.985 569.313 Z"
       fill="#c8cada"
       fill-opacity="0.501961"
       id="path600" />
    <path
       d="M 318.435 534.648 L 296.335 534.534 L 295.977 536.991 L 308.136 538.128 Z"
       fill="#184c4d"
       fill-opacity="0.501961"
       id="path602" />
    <path
       d="M 607.87 623.565 L 482.19 593.305 L 555.833 599.222 L 615.322 593.166 Z"
       fill="#4e575a"
       fill-opacity="0.501961"
       id="path604" />
    <path
       d="M 283.495 555.885 L 255.963 566.912 L 233.898 552.929 L 277.464 564.466 Z"
       fill="#cfd3e1"
       fill-opacity="0.501961"
       id="path606" />
    <path
       d="M 262.547 442.609 L 168.533 506.857 L 172.366 503.18 L 131.638 342.142 Z"
       fill="#e9e7ef"
       fill-opacity="0.501961"
       id="path608" />
    <path
       d="M 160.188 457.898 L 124.528 324.84 L 132.89 410.945 L 177.451 519.819 Z"
       fill="#405c5e"
       fill-opacity="0.501961"
       id="path610" />
    <path
       d="M 80.5517 30.8474 L 117.541 39.3087 L 105.623 45.6792 L 107.744 58.0156 Z"
       fill="#163c47"
       fill-opacity="0.501961"
       id="path612" />
    <path
       d="M 69.1062 50.3458 L 60.8397 77.3365 L 70.1562 78.4609 L 92.2268 50.641 Z"
       fill="#d3c2cc"
       fill-opacity="0.501961"
       id="path614" />
    <path
       d="M 283.7 521.976 L 272.673 530.719 L 257.719 547.029 L 244.408 548.139 Z"
       fill="#0e3f47"
       fill-opacity="0.501961"
       id="path616" />
    <path
       d="M 881.644 385.901 L 833.548 475.597 L 812.973 469.568 L 922.246 471.871 Z"
       fill="#08252c"
       fill-opacity="0.501961"
       id="path618" />
    <path
       d="M 395.045 583.068 L 384.765 581.02 L 403.229 559.745 L 405.525 578.722 Z"
       fill="#526874"
       fill-opacity="0.501961"
       id="path620" />
    <path
       d="M 873.948 528.544 L 900.716 523.392 L 913.676 541.779 L 883.661 550.517 Z"
       fill="#587277"
       fill-opacity="0.501961"
       id="path622" />
    <path
       d="M 88.5556 262.249 L 108.48 346.516 L 121.521 388.545 L 112.425 342.545 Z"
       fill="#325b5a"
       fill-opacity="0.501961"
       id="path624" />
    <path
       d="M 507.99 384.247 L 596.795 408.854 L 686.582 437.806 L 600.467 396.602 Z"
       fill="#e0c5d2"
       fill-opacity="0.501961"
       id="path626" />
    <path
       d="M 499.316 435.131 L 502.543 427.767 L 554.547 448.254 L 530.935 443.215 Z"
       fill="#d9c7d5"
       fill-opacity="0.501961"
       id="path628" />
    <path
       d="M 797.587 615.903 L 838.291 630.085 L 831.478 570.736 L 789.567 574.44 Z"
       fill="#022229"
       fill-opacity="0.501961"
       id="path630" />
    <path
       d="M 379.828 510.22 L 360.588 508.611 L 348 514.884 L 381.226 514.419 Z"
       fill="#305d60"
       fill-opacity="0.501961"
       id="path632" />
    <path
       d="M 158.321 31.0267 L 146.689 31.8184 L 150.763 34.223 L 180.053 31.3566 Z"
       fill="#aeb8b4"
       fill-opacity="0.501961"
       id="path634" />
    <path
       d="M 142.757 56.3855 L 139.788 40.2942 L 77.0321 49.9889 L 147.612 48.3771 Z"
       fill="#235666"
       fill-opacity="0.501961"
       id="path636" />
    <path
       d="M 396.985 471.61 L 378.868 470.55 L 439.378 483.761 L 381.725 480.309 Z"
       fill="#c8c9db"
       fill-opacity="0.501961"
       id="path638" />
    <path
       d="M 709.162 304.503 L 620.973 251.253 L 561.197 265.087 L 639.118 297.795 Z"
       fill="#567382"
       fill-opacity="0.501961"
       id="path640" />
    <path
       d="M 922.341 520.355 L 944.01 501.79 L 959.171 489.265 L 952.976 484.232 Z"
       fill="#375665"
       fill-opacity="0.501961"
       id="path642" />
    <path
       d="M 517.084 539.552 L 522.957 523.484 L 475.086 591.049 L 510.965 536.114 Z"
       fill="#cbcada"
       fill-opacity="0.501961"
       id="path644" />
    <path
       d="M 880.849 515.624 L 907.853 509.288 L 908.613 517.259 L 864.324 530.276 Z"
       fill="#b0b6c8"
       fill-opacity="0.501961"
       id="path646" />
    <path
       d="M 265.96 571.753 L 257.225 568.247 L 267.922 566.391 L 280.677 568.935 Z"
       fill="#0f3a4e"
       fill-opacity="0.501961"
       id="path648" />
    <path
       d="M 961.024 549.697 L 944.01 535.352 L 936.539 506.746 L 928.43 548.667 Z"
       fill="#788e98"
       fill-opacity="0.501961"
       id="path650" />
    <path
       d="M 584.574 572.208 L 575.241 572.904 L 550.053 562.407 L 557.784 552.246 Z"
       fill="#dedbeb"
       fill-opacity="0.501961"
       id="path652" />
    <path
       d="M 335.069 498.311 L 329.884 506.874 L 344.908 508.721 L 336.249 501.115 Z"
       fill="#4f797a"
       fill-opacity="0.501961"
       id="path654" />
    <path
       d="M 570.049 345.707 L 538.07 371.464 L 552.668 373.44 L 567.538 386.796 Z"
       fill="#683f41"
       fill-opacity="0.501961"
       id="path656" />
    <path
       d="M 314.294 548.244 L 334.404 549.992 L 354.186 550.56 L 321.352 545.35 Z"
       fill="#aab8bf"
       fill-opacity="0.501961"
       id="path658" />
    <path
       d="M 543.022 537.966 L 534.388 531.198 L 529.291 527.372 L 517.745 535.664 Z"
       fill="#72909c"
       fill-opacity="0.501961"
       id="path660" />
    <path
       d="M 815.73 621.95 L 801.357 627.999 L 780.547 696 L 856.062 696 Z"
       fill="#597484"
       fill-opacity="0.501961"
       id="path662" />
    <path
       d="M 287.83 545.775 L 278.192 571.251 L 297.682 550.004 L 260.767 565.435 Z"
       fill="#406672"
       fill-opacity="0.501961"
       id="path664" />
    <path
       d="M 873.878 486.894 L 855.251 513.339 L 812.453 510.011 L 772.161 477.543 Z"
       fill="#be9fa2"
       fill-opacity="0.501961"
       id="path666" />
    <path
       d="M 400.664 532.498 L 388.003 527.467 L 411.701 527.628 L 403.555 530.115 Z"
       fill="#dee2ed"
       fill-opacity="0.501961"
       id="path668" />
    <path
       d="M 386.462 552.43 L 414.05 521.605 L 407.177 519.036 L 406.075 547.002 Z"
       fill="#3a656b"
       fill-opacity="0.501961"
       id="path670" />
    <path
       d="M 579.707 453.641 L 583.781 444.331 L 575.552 439.799 L 529.681 436.762 Z"
       fill="#6c4745"
       fill-opacity="0.501961"
       id="path672" />
    <path
       d="M 230.697 487.225 L 189.475 504.99 L 195.273 511.512 L 232.965 470.057 Z"
       fill="#69a0bd"
       fill-opacity="0.501961"
       id="path674" />
    <path
       d="M 1023.39 446.414 L 1033.97 522.651 L 993.161 530.716 L 1022.42 502.597 Z"
       fill="#60777e"
       fill-opacity="0.501961"
       id="path676" />
    <path
       d="M 601.04 478.054 L 632.417 465.115 L 586.337 452.559 L 648.169 485.214 Z"
       fill="#b18e86"
       fill-opacity="0.501961"
       id="path678" />
    <path
       d="M 965.071 341.389 L 967.903 336.795 L 1001.43 341.733 L 1039 419.714 Z"
       fill="#0f2f39"
       fill-opacity="0.501961"
       id="path680" />
    <path
       d="M 1023.47 454.133 L 1024.85 456.249 L 1028.98 232.7 L 1023.26 339.025 Z"
       fill="#5a8092"
       fill-opacity="0.501961"
       id="path682" />
    <path
       d="M 529.311 537.616 L 562.239 538.072 L 511.634 549.306 L 524.023 535.173 Z"
       fill="#20434c"
       fill-opacity="0.501961"
       id="path684" />
    <path
       d="M 329.308 416.086 L 368.274 393.862 L 317.747 384.804 L 326.021 408.81 Z"
       fill="#dde3f3"
       fill-opacity="0.501961"
       id="path686" />
    <path
       d="M 35.1663 27.3997 L 49.3052 28.2211 L 131.145 31.2936 L 116.272 35.3367 Z"
       fill="#848f93"
       fill-opacity="0.501961"
       id="path688" />
    <path
       d="M 467.463 562.51 L 475.343 520.566 L 531.044 493.443 L 479.823 539.528 Z"
       fill="#724c49"
       fill-opacity="0.501961"
       id="path690" />
    <path
       d="M 73.3663 58.0001 L 55.7436 43.1233 L 66.027 59.5629 L 79.2562 42.0143 Z"
       fill="#606e74"
       fill-opacity="0.501961"
       id="path692" />
    <path
       d="M 93.8589 55.5224 L 173.101 53.8968 L 89.7669 57.7401 L 90.5251 32.3139 Z"
       fill="#2b5867"
       fill-opacity="0.501961"
       id="path694" />
    <path
       d="M 524.783 420.104 L 505.138 398.033 L 516.841 369.353 L 525.673 361.062 Z"
       fill="#ecd9e1"
       fill-opacity="0.501961"
       id="path696" />
    <path
       d="M 794.101 643.836 L 781.362 647.586 L 758.529 614.337 L 800.865 633.004 Z"
       fill="#002129"
       fill-opacity="0.501961"
       id="path698" />
    <path
       d="M 627.795 526.195 L 621.967 502.846 L 706.271 507.504 L 630.409 539.794 Z"
       fill="#85645c"
       fill-opacity="0.501961"
       id="path700" />
    <path
       d="M 407.64 474.792 L 414.312 478.678 L 420.337 471.082 L 395.994 468.23 Z"
       fill="#527778"
       fill-opacity="0.501961"
       id="path702" />
    <path
       d="M 424.592 483.468 L 420.798 529.986 L 416.123 517.328 L 449.855 458.514 Z"
       fill="#d9c1c7"
       fill-opacity="0.501961"
       id="path704" />
    <path
       d="M 106.928 45.816 L 218.925 42.702 L 211.566 51.0812 L 274.74 45.3721 Z"
       fill="#487783"
       fill-opacity="0.501961"
       id="path706" />
    <path
       d="M 1039 307.154 L 955.122 313.63 L 935.068 314.538 L 963.965 317.741 Z"
       fill="#41595b"
       fill-opacity="0.501961"
       id="path708" />
    <path
       d="M 753.988 355.179 L 735.905 386.431 L 725.984 342.744 L 878.63 353.407 Z"
       fill="#88584d"
       fill-opacity="0.501961"
       id="path710" />
    <path
       d="M 602.438 366.819 L 591.477 380.703 L 597.646 375.29 L 595.23 348.278 Z"
       fill="#b8abb3"
       fill-opacity="0.501961"
       id="path712" />
    <path
       d="M 435.817 610.592 L 437.045 569.827 L 411.969 601.784 L 437.251 603.573 Z"
       fill="#ddd9ea"
       fill-opacity="0.501961"
       id="path714" />
    <path
       d="M 676.097 309.081 L 564.708 311.593 L 619.961 322.988 L 676.069 348.568 Z"
       fill="#d09b84"
       fill-opacity="0.501961"
       id="path716" />
    <path
       d="M 425.776 534.853 L 446.664 485.947 L 454.644 472.624 L 429.227 507.331 Z"
       fill="#704a49"
       fill-opacity="0.501961"
       id="path718" />
    <path
       d="M 900.391 547.039 L 850.427 570.884 L 836.095 634.433 L 899.907 565.343 Z"
       fill="#183b44"
       fill-opacity="0.501961"
       id="path720" />
    <path
       d="M 172.392 584.941 L 160.624 534.844 L 179.099 593.76 L 202.53 583.217 Z"
       fill="#1f363c"
       fill-opacity="0.501961"
       id="path722" />
    <path
       d="M 681.54 462.938 L 651.918 454.909 L 641.396 417.542 L 666.972 417.633 Z"
       fill="#d6bdc7"
       fill-opacity="0.501961"
       id="path724" />
    <path
       d="M 221.378 535.594 L 214.118 530.041 L 233.078 547.994 L 198.692 551.285 Z"
       fill="#0d353e"
       fill-opacity="0.501961"
       id="path726" />
    <path
       d="M 426.074 507.498 L 411.296 500.835 L 358.807 559.349 L 410.82 509.595 Z"
       fill="#4e7278"
       fill-opacity="0.501961"
       id="path728" />
    <path
       d="M 440.105 554.59 L 415.879 551.34 L 426.287 544.135 L 486.385 568.49 Z"
       fill="#01323b"
       fill-opacity="0.501961"
       id="path730" />
    <path
       d="M 481.593 555.8 L 510.671 555.513 L 502.966 550.681 L 482.001 563.244 Z"
       fill="#8698a0"
       fill-opacity="0.501961"
       id="path732" />
    <path
       d="M 314.886 521.774 L 311.82 573.737 L 315.308 514.635 L 334.157 523.095 Z"
       fill="#3e7173"
       fill-opacity="0.501961"
       id="path734" />
    <path
       d="M 826.456 472.332 L 887.898 479.307 L 898.722 473.766 L 879.76 484.895 Z"
       fill="#5f3f3b"
       fill-opacity="0.501961"
       id="path736" />
    <path
       d="M 969.456 519.916 L 959.3 512.943 L 945.365 559.728 L 993.543 498.799 Z"
       fill="#3d5c67"
       fill-opacity="0.501961"
       id="path738" />
    <path
       d="M 652.685 455.807 L 654.349 462.168 L 624.115 461.649 L 623.224 450.429 Z"
       fill="#995d50"
       fill-opacity="0.501961"
       id="path740" />
    <path
       d="M 279.235 552.468 L 278.836 550.066 L 297.733 553.058 L 293.365 553.627 Z"
       fill="#002128"
       fill-opacity="0.501961"
       id="path742" />
    <path
       d="M 340.551 87.5929 L 490.809 333.461 L 580.291 286.253 L 668.412 283.199 Z"
       fill="#597583"
       fill-opacity="0.501961"
       id="path744" />
    <path
       d="M 192.038 574.341 L 221.175 548.205 L 263.92 555.567 L 255.714 579.902 Z"
       fill="#d8daea"
       fill-opacity="0.501961"
       id="path746" />
    <path
       d="M 77.2526 204.612 L 31.3382 40.2419 L 75.7242 168.249 L 84.9168 210.856 Z"
       fill="#427577"
       fill-opacity="0.501961"
       id="path748" />
    <path
       d="M 508.137 538.052 L 522.401 528.842 L 515.373 553.73 L 523.961 551.73 Z"
       fill="#c2c4d0"
       fill-opacity="0.501961"
       id="path750" />
    <path
       d="M 69.0847 87.4941 L 59.9836 74.9397 L 76.4314 124.225 L 66.4791 118.897 Z"
       fill="#565968"
       fill-opacity="0.501961"
       id="path752" />
    <path
       d="M 312.687 537.498 L 385.829 475.144 L 322.495 538.299 L 273.654 583.272 Z"
       fill="#ede9f2"
       fill-opacity="0.501961"
       id="path754" />
    <path
       d="M 812.908 454.209 L 821.13 414.606 L 900.592 405.609 L 771.128 451.125 Z"
       fill="#13282e"
       fill-opacity="0.501961"
       id="path756" />
    <path
       d="M 334.255 76.3789 L 355.834 115.138 L 330.206 97.0932 L 316.006 94.575 Z"
       fill="#b9c4e0"
       fill-opacity="0.501961"
       id="path758" />
    <path
       d="M 815.251 474.01 L 757.144 446.877 L 704.451 442.366 L 780.447 473.458 Z"
       fill="#d4b9c3"
       fill-opacity="0.501961"
       id="path760" />
    <path
       d="M 408.466 362.969 L 378.159 390.635 L 399.735 397.985 L 397.931 347.589 Z"
       fill="#295057"
       fill-opacity="0.501961"
       id="path762" />
    <path
       d="M 296.114 547.194 L 286.424 542.834 L 305.755 543.402 L 307.879 536.462 Z"
       fill="#b4bbc1"
       fill-opacity="0.501961"
       id="path764" />
    <path
       d="M 502.822 615.056 L 531.534 629.2 L 463.557 625.537 L 406.143 619.455 Z"
       fill="#3a3a3c"
       fill-opacity="0.501961"
       id="path766" />
    <path
       d="M 299.284 610.178 L 287.684 606.716 L 212.398 599.485 L 312.819 597.209 Z"
       fill="#263438"
       fill-opacity="0.501961"
       id="path768" />
    <path
       d="M 922.683 341.474 L 946.731 364.483 L 1005.09 393.287 L 991.959 364.973 Z"
       fill="#2a464f"
       fill-opacity="0.501961"
       id="path770" />
    <path
       d="M 541.978 566.291 L 518.671 564.186 L 527.868 545.8 L 548.007 555.979 Z"
       fill="#214650"
       fill-opacity="0.501961"
       id="path772" />
    <path
       d="M 679.901 378.507 L 669.866 378.534 L 653.043 363.445 L 668.436 361.336 Z"
       fill="#4e4040"
       fill-opacity="0.501961"
       id="path774" />
    <path
       d="M 483.136 566.57 L 445.936 563.04 L 471.111 560.696 L 492.41 564.205 Z"
       fill="#0e3e49"
       fill-opacity="0.501961"
       id="path776" />
    <path
       d="M 420.85 498.219 L 416.113 497.305 L 414.348 496.669 L 426.753 489.126 Z"
       fill="#507676"
       fill-opacity="0.501961"
       id="path778" />
    <path
       d="M 217.361 583.391 L 361.412 595.271 L 428.724 526.438 L 385.018 580.024 Z"
       fill="#e4e3f0"
       fill-opacity="0.501961"
       id="path780" />
    <path
       d="M -16 696 L 138.125 583.978 L 241.207 605.622 L 566.808 676.087 Z"
       fill="#587482"
       fill-opacity="0.501961"
       id="path782" />
    <path
       d="M 155.949 55.3003 L 163.953 50.2226 L 159.325 52.8787 L 154.504 34.4291 Z"
       fill="#215b69"
       fill-opacity="0.501961"
       id="path784" />
    <path
       d="M 381.763 564.011 L 358.402 553.106 L 415.593 557.458 L 397.846 556.303 Z"
       fill="#809ba3"
       fill-opacity="0.501961"
       id="path786" />
    <path
       d="M 400.914 352.487 L 339.221 396.431 L 391.24 353.305 L 400.504 329.181 Z"
       fill="#95b0bd"
       fill-opacity="0.501961"
       id="path788" />
    <path
       d="M 845.318 681.713 L 834.099 634.465 L 786.61 646.371 L 720.519 643.663 Z"
       fill="#5a7583"
       fill-opacity="0.501961"
       id="path790" />
    <path
       d="M 871.445 474.979 L 1023.13 429.395 L 1021.77 483.176 L 926.212 469.156 Z"
       fill="#022229"
       fill-opacity="0.501961"
       id="path792" />
    <path
       d="M 1022.92 561.355 L 1023.95 539.348 L 1024.05 631.843 L 1023.08 608.659 Z"
       fill="#446c7b"
       fill-opacity="0.501961"
       id="path794" />
    <path
       d="M 219.539 445.553 L 169.787 137.792 L 133.223 352.365 L 141.681 383.491 Z"
       fill="#edeaf3"
       fill-opacity="0.501961"
       id="path796" />
    <path
       d="M 940.236 326.676 L 960.833 337.625 L 968.32 358.272 L 957.276 352.994 Z"
       fill="#677b83"
       fill-opacity="0.501961"
       id="path800" />
    <path
       d="M 326.949 554.572 L 312.059 553.619 L 310.139 555.43 L 335.035 558.188 Z"
       fill="#002732"
       fill-opacity="0.501961"
       id="path802" />
    <path
       d="M 391.798 561.864 L 392.835 558.323 L 373.102 578.968 L 381.624 573.706 Z"
       fill="#3e576b"
       fill-opacity="0.501961"
       id="path804" />
    <path
       d="M 258.563 475.529 L 239.022 471.125 L 242.774 486.671 L 293.764 441.044 Z"
       fill="#61a2c7"
       fill-opacity="0.501961"
       id="path806" />
    <path
       d="M 681.64 574.08 L 534.309 499.978 L 580.8 570.618 L 600.336 592.647 Z"
       fill="#473a3d"
       fill-opacity="0.501961"
       id="path808" />
    <path
       d="M 532.872 576.657 L 535.719 589.834 L 491.779 585.75 L 532.717 598.866 Z"
       fill="#07232b"
       fill-opacity="0.501961"
       id="path810" />
    <path
       d="M 440.817 546.224 L 428.32 545.904 L 434.018 541.147 L 436.509 536.694 Z"
       fill="#ac968e"
       fill-opacity="0.501961"
       id="path812" />
    <path
       d="M 537.965 585.209 L 527.158 601.85 L 564.101 560.628 L 549.688 586.38 Z"
       fill="#acacb9"
       fill-opacity="0.501961"
       id="path814" />
    <path
       d="M 907.596 373.695 L 893.614 355.259 L 901.51 467.283 L 946.982 345.882 Z"
       fill="#16353c"
       fill-opacity="0.501961"
       id="path816" />
    <path
       d="M 876.916 353.514 L 851.413 331.24 L 886.692 384.017 L 790.223 446.332 Z"
       fill="#313133"
       fill-opacity="0.501961"
       id="path818" />
    <path
       d="M 116.565 53.2259 L 97.3898 49.3355 L 90.895 62.6361 L 107.451 47.7219 Z"
       fill="#a6b3c0"
       fill-opacity="0.501961"
       id="path820" />
    <path
       d="M 655.502 596.297 L 755.784 534.391 L 788.335 528.311 L 822.999 536.275 Z"
       fill="#3f3539"
       fill-opacity="0.501961"
       id="path822" />
    <path
       d="M 476.905 505.795 L 472.025 505.595 L 522.812 473.764 L 542.577 471.91 Z"
       fill="#dfcdd6"
       fill-opacity="0.501961"
       id="path824" />
    <path
       d="M 552.46 558.468 L 510.298 556.152 L 516.294 541.52 L 516.345 552.477 Z"
       fill="#00242b"
       fill-opacity="0.501961"
       id="path826" />
    <path
       d="M 194.13 43.7464 L 142.643 40.6897 L 202.094 32.678 L 253.437 41.8533 Z"
       fill="#1b3b43"
       fill-opacity="0.501961"
       id="path828" />
    <path
       d="M 621.869 341.656 L 652.515 361.924 L 653.463 379.952 L 637.915 377.432 Z"
       fill="#54798b"
       fill-opacity="0.501961"
       id="path830" />
    <path
       d="M 704.393 399.617 L 727.677 365.361 L 666.372 389.39 L 661.996 380.98 Z"
       fill="#cb9b7c"
       fill-opacity="0.501961"
       id="path832" />
  </g>
</svg>
