<?xml version="1.0" encoding="UTF-8" standalone="no"?>
<svg
   xmlns:dc="http://purl.org/dc/elements/1.1/"
   xmlns:cc="http://creativecommons.org/ns#"
   xmlns:rdf="http://www.w3.org/1999/02/22-rdf-syntax-ns#"
   xmlns:svg="http://www.w3.org/2000/svg"
   xmlns="http://www.w3.org/2000/svg"
   xmlns:sodipodi="http://sodipodi.sourceforge.net/DTD/sodipodi-0.dtd"
   xmlns:inkscape="http://www.inkscape.org/namespaces/inkscape"
   version="1.1"
   width="2937"
   height="2340"
   id="svg2"
   inkscape:version="0.91 r13725"
   sodipodi:docname="flower.svg">
  <metadata
     id="metadata386">
    <rdf:RDF>
      <cc:Work
         rdf:about="">
        <dc:format>image/svg+xml</dc:format>
        <dc:type
           rdf:resource="http://purl.org/dc/dcmitype/StillImage" />
      </cc:Work>
    </rdf:RDF>
  </metadata>
  <defs
     id="defs384" />
  <sodipodi:namedview
     pagecolor="#ffffff"
     bordercolor="#666666"
     borderopacity="1"
     objecttolerance="10"
     gridtolerance="10"
     guidetolerance="10"
     inkscape:pageopacity="0"
     inkscape:pageshadow="2"
     inkscape:window-width="1247"
     inkscape:window-height="785"
     id="namedview382"
     showgrid="false"
     inkscape:zoom="0.1008547"
     inkscape:cx="1468.5"
     inkscape:cy="1170"
     inkscape:window-x="0"
     inkscape:window-y="0"
     inkscape:window-maximized="0"
     inkscape:current-layer="g6" />
  <g
     transform="scale(2.86816, 2.87117)"
     id="g6">
    <path
       d="M 215.797,823.575 565.47987,202.6112 725.973,809.286 317.146,830 Z"
       id="path8"
       inkscape:connector-curvature="0"
       style="fill:#f4a872;fill-opacity:0.50196096"
       sodipodi:nodetypes="ccccc" />
    <path
       d="M 368.186 830 L 433.825 544.748 L 365.052 556.799 L 212.971 830 Z"
       fill="#fff3fc"
       fill-opacity="0.501961"
       id="path10" />
    <path
       d="M 634.305 211.596 L 474.007 221.697 L 491.481 394.23 L 688.442 363.218 Z"
       fill="#ffc200"
       fill-opacity="0.501961"
       id="path12" />
    <path
       d="M 425.168 597.027 L 409.865 802.374 L 494.159 830 L 492.515 585.281 Z"
       fill="#320000"
       fill-opacity="0.501961"
       id="path14" />
    <path
       d="M 595.748 512.362 L 487.358 521.494 L 496.42 830 L 623.904 830 Z"
       fill="#ffa58c"
       fill-opacity="0.501961"
       id="path18" />
    <path
       d="M 709.746 799.576 L 729.633 762.654 L 627.31 711.086 L 622.325 773.828 Z"
       fill="#350000"
       fill-opacity="0.501961"
       id="path22" />
    <path
       d="M 578.963 537.985 L 655.967 557.66 L 634.185 595.025 L 609.716 605.571 Z"
       fill="#790000"
       fill-opacity="0.501961"
       id="path24" />
    <path
       d="M 563.497 511.617 L 467.888 530.76 L 374.154 564.188 L 440.257 591.621 Z"
       fill="#ffdbd9"
       fill-opacity="0.501961"
       id="path28" />
    <path
       d="M 669.656 309.051 L 510.858 398.92 L 473.327 208.137 L 684.492 277.138 Z"
       fill="#dc9c09"
       fill-opacity="0.501961"
       id="path30" />
    <path
       d="M 591.055 358.48 L 622.063 328.384 L 556.35 280.092 L 533.303 356.526 Z"
       fill="#7a2800"
       fill-opacity="0.501961"
       id="path32" />
    <path
       d="M 440.854 343.636 L 76.6884 362.729 L 203.42 619.741 L 687.097 456.181 Z"
       fill="#4c7082"
       fill-opacity="0.501961"
       id="path34" />
    <path
       d="M 320.409 647.907 L 346.478 443.766 L 6.81787 829.343 L 214.973 821.116 Z"
       fill="#6d8493"
       fill-opacity="0.501961"
       id="path38" />
    <path
       d="M 487.402 660.798 L 386.661 703.835 L 463.665 826.989 L 494.116 830 Z"
       fill="#480804"
       fill-opacity="0.501961"
       id="path40" />
    <path
       d="M 429.644 654.943 L 515.325 634.172 L 373.056 726.215 L 421.088 547.043 Z"
       fill="#da8167"
       fill-opacity="0.501961"
       id="path42" />
    <path
       d="M 661.878 352.801 L 716.247 713.998 L 613.089 646.963 L 643.884 570.753 Z"
       fill="#316785"
       fill-opacity="0.501961"
       id="path44" />
    <path
       d="M 725.38 727.395 L 734.39 765.622 L 652.17 741.819 L 589.383 627.301 Z"
       fill="#f47767"
       fill-opacity="0.501961"
       id="path46" />
    <path
       d="M 502.878 396.116 L 619.15 391.179 L 692.313 337.077 L 497.436 372.237 Z"
       fill="#ffd840"
       fill-opacity="0.501961"
       id="path48" />
    <path
       d="M 422.064 747.65 L 367.406 686.541 L 364.597 830 L 435.628 806.814 Z"
       fill="#f59d82"
       fill-opacity="0.501961"
       id="path50" />
    <path
       d="M 529.645 717.607 L 590.294 740.2 L 620.824 827.22 L 504.082 821.619 Z"
       fill="#e9d0c6"
       fill-opacity="0.501961"
       id="path52" />
    <path
       d="M 489.047 642.497 L 505.897 557.747 L 431.01 617.608 L 431.123 646.02 Z"
       fill="#440000"
       fill-opacity="0.501961"
       id="path54" />
    <path
       d="M 720.349 783.795 L 741.068 697.997 L 1026.19 830 L 541.36 830 Z"
       fill="#698394"
       fill-opacity="0.501961"
       id="path56" />
    <path
       d="M 472.761 249.457 L 524.667 317.811 L 577.349 208.297 L 553.752 204.04 Z"
       fill="#f7cb1d"
       fill-opacity="0.501961"
       id="path58" />
    <path
       d="M 682.438 792.982 L 730.51 783.648 L 618.58 741.501 L 639.384 773.607 Z"
       fill="#0b0000"
       fill-opacity="0.501961"
       id="path60" />
    <path
       d="M 490.128 738.416 L 433.162 793.212 L 443.448 830 L 493.711 815.624 Z"
       fill="#000007"
       fill-opacity="0.501961"
       id="path62" />
    <path
       d="M 522.648 391.897 L 658.518 395.729 L 700.126 527.109 L 508.909 511.231 Z"
       fill="#486d7d"
       fill-opacity="0.501961"
       id="path64" />
    <path
       d="M 482.438 600.716 L 416.229 603.595 L 403.709 598.652 L 535.957 531.878 Z"
       fill="#eb6b44"
       fill-opacity="0.501961"
       id="path66" />
    <path
       d="M 732.326 236.595 L 584.717 98.6278 L 644.153 249.497 L 615.646 291.075 Z"
       fill="#517487"
       fill-opacity="0.501961"
       id="path68" />
    <path
       d="M 636.553 530.488 L 645.64 560.098 L 533.58 539.14 L 605.538 517.384 Z"
       fill="#ff8768"
       fill-opacity="0.501961"
       id="path70" />
    <path
       d="M 672.396 761.405 L 563.373 695.127 L 609.517 670.68 L 735.982 771.024 Z"
       fill="#b44127"
       fill-opacity="0.501961"
       id="path74" />
    <path
       d="M 405.155 762.026 L 424.092 822.394 L 478.463 721.004 L 411.331 661.429 Z"
       fill="#9e412b"
       fill-opacity="0.501961"
       id="path76" />
    <path
       d="M 625.581 763.137 L 622.841 830 L 753.116 800.987 L 661.301 787.149 Z"
       fill="#306789"
       fill-opacity="0.501961"
       id="path78" />
    <path
       d="M 277.144 820.945 L 406.03 784.33 L 337.779 640.149 L 203.384 826.689 Z"
       fill="#e9c6c3"
       fill-opacity="0.501961"
       id="path80" />
    <path
       d="M 525.495 357.355 L 470.178 368.05 L 470.838 288.034 L 508.675 289.939 Z"
       fill="#eac92c"
       fill-opacity="0.501961"
       id="path82" />
    <path
       d="M 595.614 611.854 L 579.596 570.779 L 528.496 591.091 L 578.983 632.858 Z"
       fill="#b8463f"
       fill-opacity="0.501961"
       id="path84" />
    <path
       d="M 598.646 323.666 L 580.617 237.026 L 608.271 198.301 L 648.36 231.493 Z"
       fill="#f4cb22"
       fill-opacity="0.501961"
       id="path86" />
    <path
       d="M 484.77 684.583 L 535.027 717.061 L 522.488 702.891 L 495.24 799.955 Z"
       fill="#d15e2a"
       fill-opacity="0.501961"
       id="path90" />
    <path
       d="M 675.104 307.354 L 678.977 272.19 L 635.576 276.955 L 612.114 325.946 Z"
       fill="#fdda39"
       fill-opacity="0.501961"
       id="path92" />
    <path
       d="M 730.338 730.027 L 696.84 702.619 L 628.067 656.794 L 671.303 725.473 Z"
       fill="#d3babc"
       fill-opacity="0.501961"
       id="path94" />
    <path
       d="M 552.881 538.31 L 516.174 550.99 L 512.115 587.396 L 584.757 556.824 Z"
       fill="#e7d2d7"
       fill-opacity="0.501961"
       id="path96" />
    <path
       d="M 611.046 602.906 L 648.437 574.6 L 592.281 560.733 L 582.835 538.348 Z"
       fill="#3c0000"
       fill-opacity="0.501961"
       id="path98" />
    <path
       d="M 527.186 230.769 L 552.401 202.055 L 699.431 206.853 L 480.042 -3.24256 Z"
       fill="#547383"
       fill-opacity="0.501961"
       id="path100" />
    <path
       d="M 493.223 331.521 L 445.143 350.158 L 442.965 409.534 L 453.162 303.24 Z"
       fill="#3b6a91"
       fill-opacity="0.501961"
       id="path102" />
    <path
       d="M 362.165 563.617 L 530.684 514.986 L 465.951 561.645 L 318.401 623.145 Z"
       fill="#e4c9cd"
       fill-opacity="0.501961"
       id="path104" />
    <path
       d="M 514.083 294.781 L 484.566 272.28 L 472.511 285.778 L 511.14 291.655 Z"
       fill="#2163b1"
       fill-opacity="0.501961"
       id="path106" />
    <path
       d="M 434.123 657.247 L 465.303 640.873 L 490.683 647.718 L 431.693 667.686 Z"
       fill="#c7b5b3"
       fill-opacity="0.501961"
       id="path108" />
    <path
       d="M 478.098 323.459 L -16 325.198 L 254.647 762.326 L 334.292 602.595 Z"
       fill="#587483"
       fill-opacity="0.501961"
       id="path110" />
    <path
       d="M 539.422 343.325 L 561.853 353.966 L 593.639 351.432 L 607.332 333.69 Z"
       fill="#351f03"
       fill-opacity="0.501961"
       id="path112" />
    <path
       d="M 635.139 368.875 L 618.412 510.346 L 872.905 830 L 858.807 358.81 Z"
       fill="#5a7583"
       fill-opacity="0.501961"
       id="path114" />
    <path
       d="M 439.315 650.117 L 428.074 676.917 L 432.81 603.707 L 491.386 633.697 Z"
       fill="#10070d"
       fill-opacity="0.501961"
       id="path116" />
    <path
       d="M 557.918 424.953 L 554.971 565.09 L 568.077 429.597 L 567.445 376.583 Z"
       fill="#866115"
       fill-opacity="0.501961"
       id="path118" />
    <path
       d="M 464.216 205.808 L 497.019 214.406 L 492.303 229.744 L 462.187 226.867 Z"
       fill="#376ba6"
       fill-opacity="0.501961"
       id="path120" />
    <path
       d="M 510.361 361.218 L 418.564 367.76 L 457.417 541.818 L 495.414 380.247 Z"
       fill="#4c7085"
       fill-opacity="0.501961"
       id="path122" />
    <path
       d="M 473.846 247.591 L 539.937 239.583 L 518.835 210.374 L 510.779 210.31 Z"
       fill="#e5cb1a"
       fill-opacity="0.501961"
       id="path124" />
    <path
       d="M 610.699 320.661 L 620.713 297.126 L 544.171 282.194 L 517.817 342.014 Z"
       fill="#cc7700"
       fill-opacity="0.501961"
       id="path126" />
    <path
       d="M 611.87 736.356 L 730.601 749.164 L 723.112 777.983 L 669.848 768.115 Z"
       fill="#83180d"
       fill-opacity="0.501961"
       id="path128" />
    <path
       d="M 638.184 525.928 L 562.538 531.665 L 561.608 510.709 L 571.586 514.537 Z"
       fill="#d5ceda"
       fill-opacity="0.501961"
       id="path130" />
    <path
       d="M 550.31 530.815 L 645.305 546.992 L 643.444 566.553 L 588.878 560.051 Z"
       fill="#c5462a"
       fill-opacity="0.501961"
       id="path132" />
    <path
       d="M 406.942 546.927 L 306.112 655.768 L 257.013 795.547 L 343.895 767.646 Z"
       fill="#e3c9c9"
       fill-opacity="0.501961"
       id="path134" />
    <path
       d="M 627.891 792.662 L 609.81 612.704 L 493.108 598.518 L 578.951 663.248 Z"
       fill="#bb7c68"
       fill-opacity="0.501961"
       id="path136" />
    <path
       d="M 582.974 251.511 L 564.32 198.248 L 539.028 216.164 L 563.062 294.568 Z"
       fill="#e5be0e"
       fill-opacity="0.501961"
       id="path138" />
    <path
       d="M 632.223 369.027 L 553.045 400.254 L 531.684 360.92 L 478.187 398.01 Z"
       fill="#eec849"
       fill-opacity="0.501961"
       id="path140" />
    <path
       d="M 669.532 331.185 L 669.513 369.29 L 641.393 368.781 L 589.604 343.377 Z"
       fill="#efc427"
       fill-opacity="0.501961"
       id="path142" />
    <path
       d="M 549.946 437.125 L 544.247 372.735 L 424.537 546.839 L 532.439 510.154 Z"
       fill="#517285"
       fill-opacity="0.501961"
       id="path144" />
    <path
       d="M 488.93 786.421 L 478.455 712.556 L 454.16 682.825 L 487.164 659.971 Z"
       fill="#14080f"
       fill-opacity="0.501961"
       id="path146" />
    <path
       d="M 589.517 378.482 L 577.729 395.216 L 605.511 393.229 L 584.24 382.374 Z"
       fill="#1e5999"
       fill-opacity="0.501961"
       id="path148" />
    <path
       d="M 677.981 342.513 L 640.213 314.388 L 718.984 319.318 L 629.583 451.333 Z"
       fill="#52738b"
       fill-opacity="0.501961"
       id="path150" />
    <path
       d="M 381.967 707.169 L 425.881 830 L 366.617 825.867 L 343.872 778.877 Z"
       fill="#d3a696"
       fill-opacity="0.501961"
       id="path152" />
    <path
       d="M 371.798 703.091 L 427.247 709.462 L 428.255 764.202 L 403.04 724.576 Z"
       fill="#712215"
       fill-opacity="0.501961"
       id="path154" />
    <path
       d="M 1039 830 L 799.077 805.229 L 636.419 638.476 L 682.948 299.675 Z"
       fill="#597583"
       fill-opacity="0.501961"
       id="path156" />
    <path
       d="M 422.33 622.307 L 347.506 573.608 L 308.854 656.006 L 336.848 737.238 Z"
       fill="#e0c5c3"
       fill-opacity="0.501961"
       id="path158" />
    <path
       d="M 478.154 339.524 L 461.087 346.404 L 477.586 366.039 L 534.351 347.156 Z"
       fill="#f6ca3f"
       fill-opacity="0.501961"
       id="path160" />
    <path
       d="M 489.396 830 L 429.969 816.887 L 492.173 764.154 L 493.869 787.522 Z"
       fill="#000810"
       fill-opacity="0.501961"
       id="path162" />
    <path
       d="M 512.982 297.364 L 469.711 288.686 L 467.993 313.745 L 585.683 331.055 Z"
       fill="#d99f06"
       fill-opacity="0.501961"
       id="path164" />
    <path
       d="M 623.487 285.925 L 650.793 272.719 L 670.119 272.034 L 652.748 228.58 Z"
       fill="#4a7091"
       fill-opacity="0.501961"
       id="path166" />
    <path
       d="M 425.618 319.097 L 339.874 565.454 L 537.31 512.305 L 513.871 414.352 Z"
       fill="#557383"
       fill-opacity="0.501961"
       id="path168" />
    <path
       d="M 640.304 586.29 L 607.889 603.523 L 615.496 644.96 L 617.116 639.615 Z"
       fill="#3e6f87"
       fill-opacity="0.501961"
       id="path172" />
    <path
       d="M 499.98 594.9 L 430.271 613.564 L 430.259 628.219 L 411.982 599.564 Z"
       fill="#862114"
       fill-opacity="0.501961"
       id="path174" />
    <path
       d="M 502.702 691.902 L 489.002 737.595 L 489.436 686.614 L 495.094 582.317 Z"
       fill="#ce623d"
       fill-opacity="0.501961"
       id="path176" />
    <path
       d="M 608.952 395.961 L 632.94 385.542 L 657.351 284.858 L 597.645 381.364 Z"
       fill="#eec73b"
       fill-opacity="0.501961"
       id="path178" />
    <path
       d="M 573.123 121.884 L 508.859 192.612 L 508.362 198.359 L 534.503 230.677 Z"
       fill="#4c6f86"
       fill-opacity="0.501961"
       id="path180" />
    <path
       d="M 644.671 702.374 L 676.329 752.167 L 731.26 750.361 L 722.151 730.264 Z"
       fill="#dd7457"
       fill-opacity="0.501961"
       id="path182" />
    <path
       d="M 585.05 303.401 L 557.384 328.331 L 560.738 305.099 L 599.834 292.794 Z"
       fill="#7e3006"
       fill-opacity="0.501961"
       id="path184" />
    <path
       d="M 395.422 598.917 L 392.209 581.156 L 515.134 540.295 L 477.805 578.757 Z"
       fill="#dfa38e"
       fill-opacity="0.501961"
       id="path186" />
    <path
       d="M 619.952 755.319 L 711.558 789.581 L 664.66 790.011 L 644.506 774.944 Z"
       fill="#0d0910"
       fill-opacity="0.501961"
       id="path188" />
    <path
       d="M 467.923 706.872 L 435.945 715.768 L 426.088 748.595 L 470.997 770.502 Z"
       fill="#964533"
       fill-opacity="0.501961"
       id="path190" />
    <path
       d="M 628.958 694.67 L 621.626 737.872 L 650.031 761.935 L 641.606 713.649 Z"
       fill="#6c1a1b"
       fill-opacity="0.501961"
       id="path196" />
    <path
       d="M 581.184 259.879 L 644.687 244.463 L 627.777 278.697 L 594.729 304.375 Z"
       fill="#efbc3f"
       fill-opacity="0.501961"
       id="path198" />
    <path
       d="M 599.243 367.091 L 494.816 396.191 L 493.435 388.646 L 502.873 367.469 Z"
       fill="#f4c447"
       fill-opacity="0.501961"
       id="path200" />
    <path
       d="M 489.742 827.404 L 540.339 722.816 L 609.195 774.662 L 526.283 630.051 Z"
       fill="#de9a76"
       fill-opacity="0.501961"
       id="path202" />
    <path
       d="M 568.468 205.238 L 580.997 250.107 L 578.308 236.328 L 599.684 205.347 Z"
       fill="#507393"
       fill-opacity="0.501961"
       id="path204" />
    <path
       d="M 322.291 622.587 L 383.316 514.346 L 245.787 683.561 L 268.638 737.777 Z"
       fill="#527384"
       fill-opacity="0.501961"
       id="path206" />
    <path
       d="M 584.437 828.549 L 1029.85 824.779 L 870.588 645.214 L 709.384 788.156 Z"
       fill="#5a7583"
       fill-opacity="0.501961"
       id="path208" />
    <path
       d="M 565.615 540.763 L 548.032 537.018 L 553.249 523.454 L 554.689 488.346 Z"
       fill="#ac762f"
       fill-opacity="0.501961"
       id="path210" />
    <path
       d="M 630.602 358.857 L 639.563 378.983 L 561.896 516.739 L 865.319 525.632 Z"
       fill="#567484"
       fill-opacity="0.501961"
       id="path212" />
    <path
       d="M 416.084 739.658 L 398.894 722.866 L 460.3 660.931 L 481.565 656.862 Z"
       fill="#5a2121"
       fill-opacity="0.501961"
       id="path214" />
    <path
       d="M 486.725 737.456 L 478.093 763.229 L 436.395 804.871 L 432.156 778.849 Z"
       fill="#471b17"
       fill-opacity="0.501961"
       id="path216" />
    <path
       d="M 520.109 304.896 L 474.314 255.642 L 513.932 214.51 L 577.37 253.932 Z"
       fill="#e7b72c"
       fill-opacity="0.501961"
       id="path218" />
    <path
       d="M 212.511 816.451 L 255.307 755.203 L 382.914 804.351 L 435.469 829.257 Z"
       fill="#debfb9"
       fill-opacity="0.501961"
       id="path220" />
    <path
       d="M 597.721 363.611 L 635.531 317.986 L 567.891 368.95 L 525.474 349.891 Z"
       fill="#d18c00"
       fill-opacity="0.501961"
       id="path222" />
    <path
       d="M 614.605 330.532 L 566.119 339.918 L 588.279 363.067 L 582.287 321.32 Z"
       fill="#552706"
       fill-opacity="0.501961"
       id="path224" />
    <path
       d="M 366.89 561.361 L 506.678 521.533 L 551.93 514.804 L 551.184 530.805 Z"
       fill="#d6c6cb"
       fill-opacity="0.501961"
       id="path226" />
    <path
       d="M 433.378 642.661 L 491.5 608.502 L 491.742 614.263 L 488.553 643.35 Z"
       fill="#191517"
       fill-opacity="0.501961"
       id="path228" />
    <path
       d="M 587.502 220.538 L 571.03 271.191 L 622.227 226.696 L 629.321 203.25 Z"
       fill="#d7b914"
       fill-opacity="0.501961"
       id="path230" />
    <path
       d="M 559.212 515.627 L 611.934 519.104 L 639.517 533.962 L 598.194 533.44 Z"
       fill="#dbbbbd"
       fill-opacity="0.501961"
       id="path232" />
    <path
       d="M 518.497 548.706 L 471.051 611.277 L 494.186 602.213 L 503.853 553.226 Z"
       fill="#952516"
       fill-opacity="0.501961"
       id="path234" />
    <path
       d="M 360.286 788.517 L 438.067 809.817 L 449.525 830 L 425.511 830 Z"
       fill="#d17451"
       fill-opacity="0.501961"
       id="path236" />
    <path
       d="M 538.386 321.971 L 537.987 318.227 L 539.252 314.112 L 546.86 314.478 Z"
       fill="#0d000d"
       fill-opacity="0.501961"
       id="path238" />
    <path
       d="M 415.239 685.995 L 392.985 722.234 L 390.163 717.85 L 368.569 701.663 Z"
       fill="#d07146"
       fill-opacity="0.501961"
       id="path240" />
    <path
       d="M 418.319 701.785 L 426.574 708.791 L 435.137 650.053 L 430.497 621.547 Z"
       fill="#7d2c1e"
       fill-opacity="0.501961"
       id="path242" />
    <path
       d="M 500.506 577.193 L 492.14 611.803 L 500.231 663.273 L 580.856 569.91 Z"
       fill="#cf7f78"
       fill-opacity="0.501961"
       id="path244" />
    <path
       d="M 512.244 244.969 L 485.462 272.884 L 480.945 263.971 L 471.934 241.361 Z"
       fill="#d6b811"
       fill-opacity="0.501961"
       id="path246" />
    <path
       d="M 543.207 302.849 L 536.707 295.463 L 545.118 285.019 L 546.936 280.736 Z"
       fill="#523311"
       fill-opacity="0.501961"
       id="path248" />
    <path
       d="M 510.098 400.518 L 551.407 351.317 L 558.387 401.5 L 580.811 363.022 Z"
       fill="#f0c54c"
       fill-opacity="0.501961"
       id="path250" />
    <path
       d="M 607.118 755.589 L 687.673 800.793 L 622.506 808.173 L 623.532 765.182 Z"
       fill="#537486"
       fill-opacity="0.501961"
       id="path252" />
    <path
       d="M 611.668 689.211 L 587.06 719.861 L 554.35 767.191 L 610.951 774.942 Z"
       fill="#cea185"
       fill-opacity="0.501961"
       id="path254" />
    <path
       d="M 514.276 333.924 L 473.561 319.384 L 537.712 324.051 L 541.785 322.06 Z"
       fill="#fac955"
       fill-opacity="0.501961"
       id="path256" />
    <path
       d="M 576.295 275.476 L 588.119 292.01 L 569.171 280.799 L 571.742 274.737 Z"
       fill="#784909"
       fill-opacity="0.501961"
       id="path258" />
    <path
       d="M 720.383 737.169 L 730.372 756.927 L 671.579 758.006 L 656.778 742.837 Z"
       fill="#b74329"
       fill-opacity="0.501961"
       id="path260" />
    <path
       d="M 722.477 778.96 L 718.037 760.406 L 650.741 779.665 L 698.083 793.552 Z"
       fill="#311212"
       fill-opacity="0.501961"
       id="path262" />
    <path
       d="M 587.756 562.423 L 646.069 579.714 L 646.775 559.868 L 640.965 554.938 Z"
       fill="#89271a"
       fill-opacity="0.501961"
       id="path264" />
    <path
       d="M 459.943 349.698 L 472.69 342.413 L 480.269 335.201 L 545.394 339.034 Z"
       fill="#e1a801"
       fill-opacity="0.501961"
       id="path266" />
    <path
       d="M 582.58 321.549 L 587.295 283.892 L 614.276 258.259 L 547.287 352.901 Z"
       fill="#e49611"
       fill-opacity="0.501961"
       id="path268" />
    <path
       d="M 572.977 722.679 L 598.763 700.698 L 600.832 682.921 L 577.333 700.373 Z"
       fill="#b05d2e"
       fill-opacity="0.501961"
       id="path270" />
    <path
       d="M 570.463 542.854 L 550.665 576.811 L 514.321 590.505 L 533.37 539.288 Z"
       fill="#d6bcbc"
       fill-opacity="0.501961"
       id="path272" />
    <path
       d="M 653.188 317.81 L 691.631 293.835 L 755.293 372.375 L 644.128 321.285 Z"
       fill="#577486"
       fill-opacity="0.501961"
       id="path274" />
    <path
       d="M 530.803 830 L 526.109 782.003 L 611.871 777.695 L 618.037 820.471 Z"
       fill="#dabdb4"
       fill-opacity="0.501961"
       id="path276" />
    <path
       d="M 505.581 640.236 L 496.559 678.848 L 578.631 696.659 L 591.326 652.498 Z"
       fill="#de9e80"
       fill-opacity="0.501961"
       id="path278" />
    <path
       d="M 536.548 343.21 L 523.083 353.027 L 494.257 364.969 L 462.069 360.749 Z"
       fill="#ecc95e"
       fill-opacity="0.501961"
       id="path280" />
    <path
       d="M 614.112 646.353 L 685.191 486.255 L 797.335 764.118 L 658.297 678.853 Z"
       fill="#587484"
       fill-opacity="0.501961"
       id="path282" />
    <path
       d="M 594.589 342.881 L 575.658 339.903 L 571.817 347.236 L 589.031 356.598 Z"
       fill="#212112"
       fill-opacity="0.501961"
       id="path284" />
    <path
       d="M 408.896 679.938 L 430.537 634.177 L 392.983 560.592 L 410.664 603.974 Z"
       fill="#d69276"
       fill-opacity="0.501961"
       id="path286" />
    <path
       d="M 590.626 314.557 L 680.864 350.852 L 589.838 292.667 L 669.03 273.829 Z"
       fill="#dfac0f"
       fill-opacity="0.501961"
       id="path288" />
    <path
       d="M 499.306 235.729 L 360.033 120.741 L 440.948 464.758 L 485.532 170.173 Z"
       fill="#597583"
       fill-opacity="0.501961"
       id="path290" />
    <path
       d="M 563.349 461.719 L 557.464 403.312 L 566.113 390.564 L 568.287 395.69 Z"
       fill="#524a28"
       fill-opacity="0.501961"
       id="path292" />
    <path
       d="M 584.422 591.93 L 567.209 578.785 L 568.804 623.238 L 589.241 625.296 Z"
       fill="#a24f4d"
       fill-opacity="0.501961"
       id="path294" />
    <path
       d="M 538.365 378.318 L 561.651 407.314 L 554.559 501.024 L 529.46 516.852 Z"
       fill="#5e7884"
       fill-opacity="0.501961"
       id="path296" />
    <path
       d="M 623.836 765.069 L 628.949 687.719 L 606.933 615.181 L 608.949 753.659 Z"
       fill="#b17254"
       fill-opacity="0.501961"
       id="path298" />
    <path
       d="M 655.795 675.941 L 673.944 722.484 L 719.311 722.076 L 714.387 715.351 Z"
       fill="#d1aeac"
       fill-opacity="0.501961"
       id="path300" />
    <path
       d="M 260.769 766.357 L 296.308 679.324 L 335.538 603.433 L 324.659 666.105 Z"
       fill="#dab7ab"
       fill-opacity="0.501961"
       id="path302" />
    <path
       d="M 616.974 789.963 L 646.304 829.362 L 625.145 830 L 620.058 795.969 Z"
       fill="#9a5437"
       fill-opacity="0.501961"
       id="path304" />
    <path
       d="M 494.096 815.038 L 493.907 756.796 L 488.557 705.434 L 526.225 701.836 Z"
       fill="#cd754c"
       fill-opacity="0.501961"
       id="path306" />
    <path
       d="M 625.363 761.026 L 630.808 733.222 L 656.176 771.892 L 653.632 782.539 Z"
       fill="#200b10"
       fill-opacity="0.501961"
       id="path308" />
    <path
       d="M 669.405 333.219 L 649.749 324.92 L 571.232 369.496 L 670.54 365.798 Z"
       fill="#e7bd34"
       fill-opacity="0.501961"
       id="path310" />
    <path
       d="M 479.855 398.55 L 456.266 368.294 L 505.723 361.312 L 486.389 401.036 Z"
       fill="#53748a"
       fill-opacity="0.501961"
       id="path312" />
    <path
       d="M 608.028 602.81 L 603.887 574.3 L 646.155 579.188 L 634.762 588.206 Z"
       fill="#3d1410"
       fill-opacity="0.501961"
       id="path314" />
    <path
       d="M 572.814 347.901 L 541.478 345.097 L 543.153 333.146 L 568.405 363.222 Z"
       fill="#523604"
       fill-opacity="0.501961"
       id="path316" />
    <path
       d="M 473.995 642.442 L 433.763 655.44 L 432.748 680.118 L 451.857 661.596 Z"
       fill="#be9a94"
       fill-opacity="0.501961"
       id="path318" />
    <path
       d="M 592.165 312.107 L 586.813 318.899 L 587.169 315.825 L 579.492 312.967 Z"
       fill="#312818"
       fill-opacity="0.501961"
       id="path320" />
    <path
       d="M 611.656 306.856 L 635.492 327.204 L 671.029 307.626 L 675.803 270.479 Z"
       fill="#e6bf37"
       fill-opacity="0.501961"
       id="path324" />
    <path
       d="M 533.651 312.59 L 522.859 299.401 L 502.512 308.196 L 512.541 322.168 Z"
       fill="#bd7f00"
       fill-opacity="0.501961"
       id="path326" />
    <path
       d="M 485.035 566.826 L 344.074 576.585 L 389.504 552.89 L 491.214 542.442 Z"
       fill="#dac3c3"
       fill-opacity="0.501961"
       id="path328" />
    <path
       d="M 597.655 628.58 L 609.659 604.08 L 596.337 571.242 L 573.08 546.464 Z"
       fill="#d5937e"
       fill-opacity="0.501961"
       id="path330" />
    <path
       d="M 490.712 652.013 L 492.21 609.011 L 496.192 661.158 L 454.943 661.935 Z"
       fill="#a54a3a"
       fill-opacity="0.501961"
       id="path332" />
    <path
       d="M 494.089 326.983 L 507.62 291.284 L 465.892 293.123 L 479.824 325.212 Z"
       fill="#e2c227"
       fill-opacity="0.501961"
       id="path334" />
    <path
       d="M 418.711 748.806 L 416.206 756.275 L 345.338 675.647 L 411.27 736.313 Z"
       fill="#d4a28d"
       fill-opacity="0.501961"
       id="path336" />
    <path
       d="M 443.514 590.462 L 400.72 583.466 L 416.922 606.561 L 495.232 577.85 Z"
       fill="#cd6a45"
       fill-opacity="0.501961"
       id="path338" />
    <path
       d="M 250.726 764.666 L 347.139 576.237 L 534.305 439.302 L -16 322.588 Z"
       fill="#587483"
       fill-opacity="0.501961"
       id="path340" />
    <path
       d="M 499.764 283.668 L 480.655 265.281 L 448.041 184.389 L 458.791 294.599 Z"
       fill="#597585"
       fill-opacity="0.501961"
       id="path342" />
    <path
       d="M 623.992 394.915 L 604.554 390.832 L 564.911 370.194 L 639.472 354.06 Z"
       fill="#eac64a"
       fill-opacity="0.501961"
       id="path344" />
    <path
       d="M 348.595 687.115 L 421.946 629.971 L 350.657 746.742 L 404.97 732.247 Z"
       fill="#d7b2a7"
       fill-opacity="0.501961"
       id="path346" />
    <path
       d="M 652.312 548.799 L 561.915 457.659 L 639.335 377.942 L 721.733 342.64 Z"
       fill="#577483"
       fill-opacity="0.501961"
       id="path348" />
    <path
       d="M 480.811 224.563 L 487.122 275.543 L 500.295 210.775 L 506.999 241.558 Z"
       fill="#d7be1d"
       fill-opacity="0.501961"
       id="path350" />
    <path
       d="M 618.044 647.267 L 696.822 731.453 L 676.935 736.169 L 642.418 699.385 Z"
       fill="#cd8d82"
       fill-opacity="0.501961"
       id="path352" />
    <path
       d="M 556.102 603.072 L 578.406 628.725 L 522.919 642.042 L 509.333 618.168 Z"
       fill="#b38182"
       fill-opacity="0.501961"
       id="path356" />
    <path
       d="M 488.858 329.715 L 469.126 339.636 L 472.133 316.797 L 474.837 319.702 Z"
       fill="#416891"
       fill-opacity="0.501961"
       id="path358" />
    <path
       d="M 498.295 722.67 L 559.515 707.927 L 497.021 749.868 L 592.067 732.102 Z"
       fill="#dcac97"
       fill-opacity="0.501961"
       id="path360" />
    <path
       d="M 541.602 209.841 L 535.042 241.858 L 588.47 265.958 L 563.531 198.524 Z"
       fill="#dcba20"
       fill-opacity="0.501961"
       id="path362" />
    <path
       d="M 555.456 278.5 L 558.786 282.654 L 561.345 287.522 L 553.375 287.897 Z"
       fill="#291e10"
       fill-opacity="0.501961"
       id="path364" />
    <path
       d="M 556.708 531.836 L 535.45 528.715 L 497.97 545.35 L 524 547.541 Z"
       fill="#eb9677"
       fill-opacity="0.501961"
       id="path366" />
    <path
       d="M 582.142 281.098 L 585.803 284.722 L 579.984 289.971 L 581.189 282.734 Z"
       fill="#27050c"
       fill-opacity="0.501961"
       id="path368" />
    <path
       d="M 572.599 251.333 L 608.363 199.58 L 643.752 237.211 L 635.756 216.726 Z"
       fill="#d9bc1b"
       fill-opacity="0.501961"
       id="path370" />
    <path
       d="M 562.664 437.495 L 627.078 416.633 L 584.924 379.151 L 580.157 398.887 Z"
       fill="#547386"
       fill-opacity="0.501961"
       id="path372" />
    <path
       d="M 421.843 820.922 L 444.583 830 L 420.404 753.014 L 397.232 739.946 Z"
       fill="#be643f"
       fill-opacity="0.501961"
       id="path374" />
    <path
       d="M 498.774 711.67 L 502.497 705.396 L 499.226 720.503 L 538.688 707.422 Z"
       fill="#bf5229"
       fill-opacity="0.501961"
       id="path376" />
    <path
       d="M 480.663 167.96 L 476.453 230.137 L 545.77 181.21 L 536.188 231.854 Z"
       fill="#567485"
       fill-opacity="0.501961"
       id="path378" />
    <path
       d="M 574.014 729.6 L 615.571 730.475 L 595.545 724.337 L 552.641 724.488 Z"
       fill="#cb7848"
       fill-opacity="0.501961"
       id="path380" />
  </g>
</svg>
