<?xml version="1.0" encoding="UTF-8" standalone="no"?>
<svg
   xmlns:dc="http://purl.org/dc/elements/1.1/"
   xmlns:cc="http://creativecommons.org/ns#"
   xmlns:rdf="http://www.w3.org/1999/02/22-rdf-syntax-ns#"
   xmlns:svg="http://www.w3.org/2000/svg"
   xmlns="http://www.w3.org/2000/svg"
   xmlns:sodipodi="http://sodipodi.sourceforge.net/DTD/sodipodi-0.dtd"
   xmlns:inkscape="http://www.inkscape.org/namespaces/inkscape"
   version="1.1"
   width="3910"
   height="2528"
   id="svg2"
   inkscape:version="0.91 r13725"
   sodipodi:docname="cover.svg">
  <metadata
     id="metadata828">
    <rdf:RDF>
      <cc:Work
         rdf:about="">
        <dc:format>image/svg+xml</dc:format>
        <dc:type
           rdf:resource="http://purl.org/dc/dcmitype/StillImage" />
      </cc:Work>
    </rdf:RDF>
  </metadata>
  <defs
     id="defs826" />
  <sodipodi:namedview
     pagecolor="#ffffff"
     bordercolor="#666666"
     borderopacity="1"
     objecttolerance="10"
     gridtolerance="10"
     guidetolerance="10"
     inkscape:pageopacity="0"
     inkscape:pageshadow="2"
     inkscape:window-width="1083"
     inkscape:window-height="643"
     id="namedview824"
     showgrid="false"
     inkscape:zoom="0.33503836"
     inkscape:cx="1343.4611"
     inkscape:cy="549.28935"
     inkscape:window-x="214"
     inkscape:window-y="38"
     inkscape:window-maximized="0"
     inkscape:current-layer="svg2" />
  <g
     transform="scale(15.2734, 15.3212)"
     id="g6">
    <path
       d="M -16 128.082 L 20.7484 124.599 L 271 152.491 L 228.491 -16 Z"
       fill="#ffffff"
       fill-opacity="0.501961"
       id="path10" />
    <path
       d="M 271 131.253 L 91.2517 151.492 L -13.183 57.4825 L 248.34 -16 Z"
       fill="#ffffef"
       fill-opacity="0.501961"
       id="path16" />
    <path
       d="M 170.932 156.401 L 89.0419 149.573 L 78.6035 117.959 L 181.186 154.568 Z"
       fill="#fffff0"
       fill-opacity="0.501961"
       id="path18" />
    <path
       d="m 153.614,134.731 36.033,5.508 -1.158,15.19 -29.11042,0.43379 z"
       id="path20"
       inkscape:connector-curvature="0"
       style="fill:#cc9347;fill-opacity:0.50196096"
       sodipodi:nodetypes="ccccc" />
    <path
       d="M 170.159 -16 L -1.7798 48.9196 L -16 132.75 L 60.6826 116.215 Z"
       fill="#ffe9c9"
       fill-opacity="0.501961"
       id="path22" />
    <path
       d="M -14.426 0.470524 L -10.6247 79.27 L 9.98587 70.7413 L 46.0083 -5.26782 Z"
       fill="#ceb495"
       fill-opacity="0.501961"
       id="path26" />
    <path
       d="M 271 127.899 L 215.48 155.362 L 86.9611 88.0753 L 194.59 58.3062 Z"
       fill="#ffffff"
       fill-opacity="0.501961"
       id="path28" />
    <path
       d="M 253.62 -16 L 271 53.8383 L 43.7149 67.4385 L 77.6003 2.83851 Z"
       fill="#ffead9"
       fill-opacity="0.501961"
       id="path32" />
    <path
       d="M 206.8 73.1182 L 144.978 154.179 L 116.82 152.685 L 85.5346 101.036 Z"
       fill="#ffffff"
       fill-opacity="0.501961"
       id="path34" />
    <path
       d="m 185.02,147.924 1.27587,5.93644 2.99619,-1.19181 L 187.432,133.64 Z"
       id="path36"
       inkscape:connector-curvature="0"
       style="fill:#674219;fill-opacity:0.5019609"
       sodipodi:nodetypes="ccccc" />
    <path
       d="M 158.458 156.705 L 162.17 146.203 L 160.225 134.804 L 157.477 140.098 Z"
       fill="#813a00"
       fill-opacity="0.501961"
       id="path38" />
    <path
       d="M 85.05 131.619 L 20.3512 124.202 L -16 132.501 L 13.462 31.0655 Z"
       fill="#ffe7be"
       fill-opacity="0.501961"
       id="path40" />
    <path
       d="M 73.4514 143.734 L 165.834 153.222 L 172.655 125.233 L 179.401 157.009 Z"
       fill="#fff3c8"
       fill-opacity="0.501961"
       id="path42" />
    <path
       d="M 197.383 151.079 L 255.639 159.715 L 271 112.448 L 222.052 152.479 Z"
       fill="#ffffb1"
       fill-opacity="0.501961"
       id="path44" />
    <path
       d="M 187.724 153.829 L 147.56 156.783 L 230.827 147.741 L 204.066 78.9511 Z"
       fill="#ffffff"
       fill-opacity="0.501961"
       id="path46" />
    <path
       d="M 180.183 107.626 L 181.223 157.478 L 187.803 146.939 L 136.125 79.3522 Z"
       fill="#ffffff"
       fill-opacity="0.501961"
       id="path50" />
    <path
       d="M 123.168 21.6005 L 30.4661 88.0146 L 87.2695 148.473 L 105.164 149.846 Z"
       fill="#fff9e2"
       fill-opacity="0.501961"
       id="path54" />
    <path
       d="M -16 -8.03793 L 43.5083 -14.4812 L -16 44.7182 L -6.14432 11.9062 Z"
       fill="#b6a58c"
       fill-opacity="0.501961"
       id="path56" />
    <path
       d="M 148.364 154.958 L 157.831 148.735 L 146.226 84.4479 L 87.4855 126.311 Z"
       fill="#ffffff"
       fill-opacity="0.501961"
       id="path60" />
    <path
       d="M 173.165 147.2 L 165.932 133.675 L 163.161 149.449 L 174.613 132.914 Z"
       fill="#ffb846"
       fill-opacity="0.501961"
       id="path62" />
    <path
       d="M 271 0.274639 L 75.7702 -9.97128 L 188.833 25.2858 L 244.482 32.4291 Z"
       fill="#f4e2d1"
       fill-opacity="0.501961"
       id="path66" />
    <path
       d="M -16 114.289 L -16 59.771 L 60.1095 -16 L 46.4836 46.6184 Z"
       fill="#ead3bb"
       fill-opacity="0.501961"
       id="path68" />
    <path
       d="M 188.526 69.1713 L 218.7 153.622 L 165.462 121.165 L 168.306 149.959 Z"
       fill="#ffffff"
       fill-opacity="0.501961"
       id="path72" />
    <path
       d="M 169.849 151.735 L 174.461 140.103 L 174.919 147.372 L 174.189 147.92 Z"
       fill="#ffad01"
       fill-opacity="0.501961"
       id="path74" />
    <path
       d="M 186.937 155.297 L 168.007 59.4635 L 176.065 157.935 L 177.077 132.137 Z"
       fill="#fffefd"
       fill-opacity="0.501961"
       id="path76" />
    <path
       d="M 32.3356 125.03 L -16 71.1953 L -16 131.373 L 17.78 124.584 Z"
       fill="#ffe0a8"
       fill-opacity="0.501961"
       id="path78" />
    <path
       d="m 185.04676,154.89458 5.65346,-1.57868 -6.81722,-12.8969 8.32,0.876 z"
       id="path80"
       inkscape:connector-curvature="0"
       style="fill:#6d4826;fill-opacity:0.5019609"
       sodipodi:nodetypes="ccccc" />
    <path
       d="M 77.3034 139.59 L 91.0511 150.863 L 115.359 149.452 L 36.3687 112.436 Z"
       fill="#fff5b8"
       fill-opacity="0.501961"
       id="path82" />
    <path
       d="M 212.686 149.976 L 189.44 139.54 L 192.074 150.779 L 185.313 152.363 Z"
       fill="#ffffff"
       fill-opacity="0.501961"
       id="path84" />
    <path
       d="M 107.976 50.9157 L 271 50.2938 L 271 170.789 L 227.287 92.8244 Z"
       fill="#fffae8"
       fill-opacity="0.501961"
       id="path86" />
    <path
       d="M 161.932 146.371 L 156.152 152.667 L 163.376 139.41 L 167.238 147.575 Z"
       fill="#d78213"
       fill-opacity="0.501961"
       id="path88" />
    <path
       d="M 245.796 111.024 L 150.842 87.9326 L 157.032 153.978 L 106.991 149.033 Z"
       fill="#ffffff"
       fill-opacity="0.501961"
       id="path90" />
    <path
       d="M 180.08 131.009 L 159.927 139.843 L 172.772 94.7696 L 202.417 146.038 Z"
       fill="#ffffff"
       fill-opacity="0.501961"
       id="path98" />
    <path
       d="M 271 162.128 L 254.718 160.794 L 201.906 151.689 L 248.39 157.97 Z"
       fill="#ecc166"
       fill-opacity="0.501961"
       id="path100" />
    <path
       d="M 245.727 144.009 L 271 107.907 L 204.931 151.366 L 219.5 154.67 Z"
       fill="#fffde4"
       fill-opacity="0.501961"
       id="path106" />
    <path
       d="M 185.556,75.5064 166.7,144.927 169.89174,155.17144 170.072,140.437 Z"
       id="path108"
       inkscape:connector-curvature="0"
       style="fill:#fffbf1;fill-opacity:0.50196096"
       sodipodi:nodetypes="ccccc" />
    <path
       d="M 238.822 158.56 L 253.195 158.574 L 271 142.313 L 228.64 148.286 Z"
       fill="#fff4ad"
       fill-opacity="0.501961"
       id="path110" />
    <path
       d="M 18.8168 78.4854 L 149.264 -16 L 83.6397 -5.48989 L 40.1172 30.7381 Z"
       fill="#f2e1ce"
       fill-opacity="0.501961"
       id="path112" />
    <path
       d="M 35.5338 107.704 L 75.6998 106.988 L 99.272 140.288 L 45.021 126.41 Z"
       fill="#fff9d7"
       fill-opacity="0.501961"
       id="path118" />
    <path
       d="M 138.157 6.92118 L 261.533 32.1431 L 261.46 85.8878 L 161.501 28.8721 Z"
       fill="#ffeedc"
       fill-opacity="0.501961"
       id="path120" />
    <path
       d="M 164.841 153.029 L 180.27 152.663 L 175.75 156.221 L 126.586 135.209 Z"
       fill="#f9f5e8"
       fill-opacity="0.501961"
       id="path124" />
    <path
       d="M 193.438 101.679 L 241.966 125.691 L 210.015 152.885 L 189.448 150.197 Z"
       fill="#ffffff"
       fill-opacity="0.501961"
       id="path126" />
    <path
       d="M 198.099 83.6448 L 181.348 155.131 L 181.531 113.172 L 202.987 91.0504 Z"
       fill="#ffffff"
       fill-opacity="0.501961"
       id="path128" />
    <path
       d="M -16 40.9033 L 29.7103 -6.77351 L 93.0958 -16 L 38.3854 16.5857 Z"
       fill="#d5c4ae"
       fill-opacity="0.501961"
       id="path130" />
    <path
       d="M 164.836 155.279 L 90.2038 99.6215 L 210.053 136.806 L 127.049 132.857 Z"
       fill="#ffffff"
       fill-opacity="0.501961"
       id="path132" />
    <path
       d="m 168.754,137.561 -1.926,-5.676 -4.50116,23.7443 7.30816,-23.0573 z"
       id="path136"
       inkscape:connector-curvature="0"
       style="fill:#e4ad62;fill-opacity:0.50196096"
       sodipodi:nodetypes="ccccc" />
    <path
       d="M 119.103 13.7839 L 14.5008 91.4917 L 61.9559 75.5462 L 196.477 19.2016 Z"
       fill="#feecdc"
       fill-opacity="0.501961"
       id="path138" />
    <path
       d="M 113.707 135.521 L 146.465 154.898 L 153.996 147.899 L 169.932 96.9565 Z"
       fill="#ffffff"
       fill-opacity="0.501961"
       id="path142" />
    <path
       d="m 176.413,151.381 6.50654,2.57665 -4.21084,1.34476 0.6893,-12.74541 z"
       id="path144"
       inkscape:connector-curvature="0"
       style="fill:#7f4515;fill-opacity:0.5019609"
       sodipodi:nodetypes="ccccc" />
    <path
       d="M 187.307 134.963 L 186.834 146.128 L 186.063 130.281 L 188.293 144.933 Z"
       fill="#a27538"
       fill-opacity="0.501961"
       id="path146" />
    <path
       d="M 169.447 2.6779 L 271 22.4847 L 245.166 -16 L 75.8669 7.77499 Z"
       fill="#f1e1d2"
       fill-opacity="0.501961"
       id="path148" />
    <path
       d="M 142.766 154.323 L 93.9207 151.007 L 59.9104 127.492 L 88.6638 149.321 Z"
       fill="#c29a5d"
       fill-opacity="0.501961"
       id="path152" />
    <path
       d="M 186.615 54.1282 L 119.756 59.5691 L 80.5069 129.096 L 100.526 119.865 Z"
       fill="#fffcef"
       fill-opacity="0.501961"
       id="path154" />
    <path
       d="M 159.309 79.8551 L 125.043 143.611 L 177.064 112.507 L 161.56 142.564 Z"
       fill="#ffffff"
       fill-opacity="0.501961"
       id="path156" />
    <path
       d="M 174.785 138.861 L 173.889 141.986 L 167.09 138.322 L 161.119 141.559 Z"
       fill="#fba137"
       fill-opacity="0.501961"
       id="path158" />
    <path
       d="M 175.341 141.386 L 172.515 111.3 L 177.546 141.196 L 176.535 155.377 Z"
       fill="#fffef9"
       fill-opacity="0.501961"
       id="path160" />
    <path
       d="M -7.08272 10.0197 L 0.18447 13.6493 L 30.1237 -15.9632 L -16 1.91381 Z"
       fill="#b2a189"
       fill-opacity="0.501961"
       id="path162" />
    <path
       d="M -16 129.224 L -11.6378 63.5794 L -10.1185 131.166 L 29.9591 123.019 Z"
       fill="#ecb069"
       fill-opacity="0.501961"
       id="path164" />
    <path
       d="M 11.183 79.1916 L 15.4129 121.791 L 52.3191 128.144 L 62.5112 130.877 Z"
       fill="#ffeac2"
       fill-opacity="0.501961"
       id="path166" />
    <path
       d="M 89.0785 149.397 L 29.7113 83.6431 L 34.6856 121.338 L 132.661 152.327 Z"
       fill="#fff4cf"
       fill-opacity="0.501961"
       id="path168" />
    <path
       d="M 160.126 147.663 L 158.179 151.576 L 156.445 141.84 L 159.224 141.602 Z"
       fill="#946130"
       fill-opacity="0.501961"
       id="path178" />
    <path
       d="m 161.593,141.365 5.083,2.807 0.357,11.0316 -0.891,-5.8706 z"
       id="path180"
       inkscape:connector-curvature="0"
       style="fill:#e19523;fill-opacity:0.50196096"
       sodipodi:nodetypes="ccccc" />
    <path
       d="M 207.478 149.021 L 147.08 108.849 L 214.336 113.302 L 187.238 151.591 Z"
       fill="#ffffff"
       fill-opacity="0.501961"
       id="path182" />
    <path
       d="M 218.445 151.86 L 224.917 155.63 L 237.111 156.255 L 271 134.456 Z"
       fill="#fff9c0"
       fill-opacity="0.501961"
       id="path184" />
    <path
       d="M 66.9683 33.7468 L 149.967 -16 L 214.427 9.9273 L 190.663 23.4983 Z"
       fill="#f7e8d8"
       fill-opacity="0.501961"
       id="path186" />
    <path
       d="m 171.128,146.948 1.14,-4.978 1.74916,13.89733 L 172.409,130.177 Z"
       id="path188"
       inkscape:connector-curvature="0"
       style="fill:#daa33e;fill-opacity:0.50196096"
       sodipodi:nodetypes="ccccc" />
    <path
       d="M 23.6381 109.172 L 18.9945 68.9324 L 62.465 41.5699 L 44.9574 104.473 Z"
       fill="#fde7cf"
       fill-opacity="0.501961"
       id="path194" />
    <path
       d="M 120.533 38.1132 L 121.275 31.9292 L 233.096 45.0049 L 63.3059 80.8204 Z"
       fill="#fff4e4"
       fill-opacity="0.501961"
       id="path196" />
    <path
       d="M 268.868 160.574 L 253.3 160.935 L 237.919 158.102 L 270.794 161.465 Z"
       fill="#e09a40"
       fill-opacity="0.501961"
       id="path202" />
    <path
       d="M 26.7979 124.095 L 50.5273 127.857 L 41.9389 126.953 L 16.8077 124.622 Z"
       fill="#c68d55"
       fill-opacity="0.501961"
       id="path206" />
    <path
       d="M 98.1314 4.21418 L 59.4514 -8.13606 L -6.79732 68.8121 L 73.2759 10.2366 Z"
       fill="#e8d6c0"
       fill-opacity="0.501961"
       id="path208" />
    <path
       d="M 93.3595 142.439 L 127.644 152.721 L 136.696 153.276 L 71.9946 106.825 Z"
       fill="#fffce8"
       fill-opacity="0.501961"
       id="path210" />
    <path
       d="M 271 165.957 L 271 135.782 L 238.411 159.467 L 235.458 153.769 Z"
       fill="#ffe4a2"
       fill-opacity="0.501961"
       id="path212" />
    <path
       d="M 186.176 136.632 L 186.394 137.431 L 188.437 134.909 L 186.007 147.151 Z"
       fill="#9b6a25"
       fill-opacity="0.501961"
       id="path214" />
    <path
       d="M 170.004 153.69 L 168.248 157.7 L 168.188 139.037 L 172.8 74.1727 Z"
       fill="#fffffb"
       fill-opacity="0.501961"
       id="path216" />
    <path
       d="M 8.6056 120.177 L -16 78.5321 L -10.781 129.941 L 25.4928 123.336 Z"
       fill="#ffdda7"
       fill-opacity="0.501961"
       id="path218" />
    <path
       d="M 186.43 150.567 L 185.419 138.301 L 188.996 140.182 L 188.883 149.882 Z"
       fill="#8a5e21"
       fill-opacity="0.501961"
       id="path220" />
    <path
       d="M 12.3803 22.0312 L -16 61.5204 L -16 28.5037 L 39.7693 -6.35492 Z"
       fill="#cfbca1"
       fill-opacity="0.501961"
       id="path224" />
    <path
       d="M 180.35 148.789 L 205.152 93.4588 L 185.617 100.882 L 184.107 154.001 Z"
       fill="#fffffe"
       fill-opacity="0.501961"
       id="path226" />
    <path
       d="M 166.815 140.222 L 169.093 141.253 L 171.505 139.865 L 174.242 137.94 Z"
       fill="#ffc659"
       fill-opacity="0.501961"
       id="path228" />
    <path
       d="M 17.1423 22.1497 L 61.4262 -15.7086 L 53.9405 6.64984 L 2.13696 60.5782 Z"
       fill="#e0cfb7"
       fill-opacity="0.501961"
       id="path236" />
    <path
       d="M 175.22 151.853 L 173.49 158.614 L 174.807 147.458 L 177.889 139.838 Z"
       fill="#f4eee3"
       fill-opacity="0.501961"
       id="path238" />
    <path
       d="M 172.431 137.381 L 172.373 141.565 L 172.943 149.79 L 173.988 146.208 Z"
       fill="#ffae08"
       fill-opacity="0.501961"
       id="path240" />
    <path
       d="M 217.393 69.1106 L 201.869 78.486 L 237.397 141.351 L 246.517 92.753 Z"
       fill="#fffdf3"
       fill-opacity="0.501961"
       id="path242" />
    <path
       d="M 175.491 80.092 L 186.833 157.18 L 180.908 98.7316 L 96.8399 96.1707 Z"
       fill="#fdfcf8"
       fill-opacity="0.501961"
       id="path246" />
    <path
       d="M 5.97531 76.5329 L 27.3604 68.5808 L 13.9721 127.039 L -1.19244 92.0788 Z"
       fill="#fde0bf"
       fill-opacity="0.501961"
       id="path248" />
    <path
       d="m 180.10258,155.00525 0.26442,-12.53425 0.039,-0.687 -2.533,-1.242 z"
       id="path252"
       inkscape:connector-curvature="0"
       style="fill:#a15b1b;fill-opacity:0.50196096"
       sodipodi:nodetypes="ccccc" />
    <path
       d="M 131.741 151.327 L 143.646 153.878 L 158.758 137.165 L 103.292 94.5832 Z"
       fill="#fefefd"
       fill-opacity="0.501961"
       id="path256" />
    <path
       d="M 165.18 134.845 L 162.134 141.143 L 154.329 88.3265 L 223.77 129.071 Z"
       fill="#ffffff"
       fill-opacity="0.501961"
       id="path258" />
    <path
       d="M 174.67 150.12 L 178.994 155.76 L 230.54 107.587 L 178.087 156.607 Z"
       fill="#fbf6f0"
       fill-opacity="0.501961"
       id="path260" />
    <path
       d="M 251.661 66.6378 L 269.062 124.639 L 204.224 154.794 L 233.355 144.586 Z"
       fill="#fff9e5"
       fill-opacity="0.501961"
       id="path264" />
    <path
       d="M 161.085 148.461 L 161.047 153.547 L 162.105 154.437 L 170.889 153.942 Z"
       fill="#fdf6e1"
       fill-opacity="0.501961"
       id="path268" />
    <path
       d="m 166.171,140.704 1.007,-10.057 -4.14548,24.59679 -0.0585,-2.97579 z"
       id="path270"
       inkscape:connector-curvature="0"
       style="fill:#c98c3f;fill-opacity:0.50196096"
       sodipodi:nodetypes="ccccc" />
    <path
       d="M 90.1464 149.157 L 136.98 152.846 L 96.9804 147.757 L 70.9776 134.685 Z"
       fill="#feeeb0"
       fill-opacity="0.501961"
       id="path272" />
    <path
       d="M 159.085 147.808 L 158.944 144.483 L 156.104 139.958 L 157.078 146.025 Z"
       fill="#976945"
       fill-opacity="0.501961"
       id="path274" />
    <path
       d="M 183.827 145.909 L 176.805 136.824 L 183.004 159.87 L 176.76 133.383 Z"
       fill="#caa577"
       fill-opacity="0.501961"
       id="path276" />
    <path
       d="M 129.999 108.76 L 150.443 117.269 L 157.895 151.897 L 128.156 151.387 Z"
       fill="#ffffff"
       fill-opacity="0.501961"
       id="path278" />
    <path
       d="M 164.986 74.1271 L 190.753 143.366 L 225.674 101.945 L 175.04 138.834 Z"
       fill="#fffffe"
       fill-opacity="0.501961"
       id="path284" />
    <path
       d="M 168.583 152.167 L 170.028 142.837 L 225.535 93.8593 L 173.746 139.316 Z"
       fill="#fffdef"
       fill-opacity="0.501961"
       id="path292" />
    <path
       d="M 84.6873 122.299 L 107.014 148.92 L 69.075 133.857 L 59.043 128.826 Z"
       fill="#fffad8"
       fill-opacity="0.501961"
       id="path294" />
    <path
       d="m 164.867,138.738 1.49,12.108 -0.426,0.962 1.74132,3.58266 z"
       id="path296"
       inkscape:connector-curvature="0"
       style="fill:#d1903c;fill-opacity:0.50196096"
       sodipodi:nodetypes="ccccc" />
    <path
       d="M 188.623 144.888 L 231.944 116.385 L 207.32 84.037 L 206.334 152.446 Z"
       fill="#fefefc"
       fill-opacity="0.501961"
       id="path298" />
    <path
       d="M 271 123.636 L 270.426 131.926 L 228.235 153.123 L 212.511 153.389 Z"
       fill="#fffad7"
       fill-opacity="0.501961"
       id="path300" />
    <path
       d="M 90.7676 72.3048 L 103.66 76.6169 L 82.8634 133.937 L 60.7368 106.085 Z"
       fill="#fff8e4"
       fill-opacity="0.501961"
       id="path302" />
    <path
       d="M 189.525 152.699 L 221.501 137.945 L 162.369 89.9667 L 196.389 101.351 Z"
       fill="#ffffff"
       fill-opacity="0.501961"
       id="path304" />
    <path
       d="M 169.366 144.737 L 165.297 149.57 L 161.904 139.997 L 168.952 146.149 Z"
       fill="#ffca62"
       fill-opacity="0.501961"
       id="path306" />
    <path
       d="M 198.912 -16 L 102.375 -16 L 59.4974 33.2871 L 135.214 6.54939 Z"
       fill="#f1e1d1"
       fill-opacity="0.501961"
       id="path308" />
    <path
       d="M 186.641 145.038 L 182.871 140.622 L 182.476 142.494 L 173.08 137.482 Z"
       fill="#e6ceaa"
       fill-opacity="0.501961"
       id="path310" />
    <path
       d="M 232.331 79.5053 L 271 98.9651 L 217.77 48.4947 L 141.591 50.1161 Z"
       fill="#fff7e7"
       fill-opacity="0.501961"
       id="path312" />
    <path
       d="M 96.2556 112.593 L 181.617 66.2804 L 98.6579 135.788 L 138.512 153.902 Z"
       fill="#fefdf7"
       fill-opacity="0.501961"
       id="path314" />
    <path
       d="M 169.928 138.129 L 192.483 99.5959 L 187.674 136.2 L 138.855 105.233 Z"
       fill="#ffffff"
       fill-opacity="0.501961"
       id="path320" />
    <path
       d="M 161.373 144.534 L 159.827 148.829 L 157.341 142.52 L 157.567 138.772 Z"
       fill="#8b461b"
       fill-opacity="0.501961"
       id="path322" />
    <path
       d="M 167.736 139.372 L 158.622 148.701 L 167.681 147.009 L 164.409 139.725 Z"
       fill="#f1a22d"
       fill-opacity="0.501961"
       id="path326" />
    <path
       d="M 168.366 142.1 L 167.27 148.06 L 167.194 139.875 L 132.659 81.0537 Z"
       fill="#fff8ed"
       fill-opacity="0.501961"
       id="path330" />
    <path
       d="M 42.5496 125.439 L 68.2985 133.726 L 67.4264 132.993 L 57.782 129.314 Z"
       fill="#dcab70"
       fill-opacity="0.501961"
       id="path332" />
    <path
       d="M 176.291 124.593 L 175.069 154.315 L 187.57 78.8648 L 168.013 139.15 Z"
       fill="#fffffd"
       fill-opacity="0.501961"
       id="path334" />
    <path
       d="M 258.301 42.3123 L 171.709 28.641 L 172.452 10.4825 L 271 28.8037 Z"
       fill="#fcebd9"
       fill-opacity="0.501961"
       id="path336" />
    <path
       d="m 165.73584,155.81455 0.89216,-9.88155 -0.029,-1.915 0.725,5.775 z"
       id="path338"
       inkscape:connector-curvature="0"
       style="fill:#bc8538;fill-opacity:0.50196096"
       sodipodi:nodetypes="ccccc" />
    <path
       d="M 171.946 141.342 L 180.294 137.931 L 166.827 151.286 L 175.224 141.796 Z"
       fill="#fed57e"
       fill-opacity="0.501961"
       id="path340" />
    <path
       d="M -9.96219 43.2847 L 30.6063 13.7768 L -0.886265 58.873 L -0.392326 62.2843 Z"
       fill="#decaad"
       fill-opacity="0.501961"
       id="path342" />
    <path
       d="M 167.787 148.938 L 166.533 150.711 L 164.69 137.625 L 162.681 142.428 Z"
       fill="#ffab3f"
       fill-opacity="0.501961"
       id="path344" />
    <path
       d="M 47.4946 74.5958 L 78.8354 51.6547 L 55.4847 120.942 L 39.3669 103.676 Z"
       fill="#ffefd9"
       fill-opacity="0.501961"
       id="path346" />
    <path
       d="M 11.4659 74.2381 L -16 35.9541 L 1.43142 107.564 L 8.96976 75.5389 Z"
       fill="#f5dab7"
       fill-opacity="0.501961"
       id="path348" />
    <path
       d="M 173.837 153.846 L 173.334 151.904 L 174.462 147.542 L 172.564 145.796 Z"
       fill="#f1a420"
       fill-opacity="0.501961"
       id="path352" />
    <path
       d="M 37.1449 126.333 L 56.304 127.434 L 38.0765 126.954 L 31.3148 125.638 Z"
       fill="#d2a26f"
       fill-opacity="0.501961"
       id="path354" />
    <path
       d="M 161.997 148.059 L 162.663 153.532 L 173.686 49.1993 L 163.315 146.819 Z"
       fill="#fcf3e6"
       fill-opacity="0.501961"
       id="path356" />
    <path
       d="M 150.989 122.163 L 157.638 151.538 L 151.256 153.759 L 118.534 119.683 Z"
       fill="#ffffff"
       fill-opacity="0.501961"
       id="path360" />
    <path
       d="M 166.49 144.795 L 169.691 150.12 L 169.917 136.405 L 197.132 84.7781 Z"
       fill="#fffff8"
       fill-opacity="0.501961"
       id="path362" />
    <path
       d="M 46.8923 19.1289 L 120.034 -16 L 134.049 -15.5288 L 28.8135 45.4074 Z"
       fill="#eddcc9"
       fill-opacity="0.501961"
       id="path364" />
    <path
       d="M 57.3293 34.7532 L 18.5005 100.319 L 14.2549 90.2862 L 19.7218 64.3492 Z"
       fill="#f9e3ca"
       fill-opacity="0.501961"
       id="path366" />
    <path
       d="M 226.533 155.153 L 263.703 144.89 L 261.947 159.521 L 212.022 152.837 Z"
       fill="#ffeeae"
       fill-opacity="0.501961"
       id="path368" />
    <path
       d="M 266.61 14.4675 L 207.226 0.571662 L 203.195 -16 L 268.287 -16 Z"
       fill="#f0e0d0"
       fill-opacity="0.501961"
       id="path372" />
    <path
       d="M 161.337 78.8997 L 175.402 82.8086 L 186.33 155.066 L 182.013 143.039 Z"
       fill="#fefefb"
       fill-opacity="0.501961"
       id="path374" />
    <path
       d="M 176.432 143.239 L 174.661 143.295 L 171.86 151.019 L 172.202 134.454 Z"
       fill="#fcbb48"
       fill-opacity="0.501961"
       id="path376" />
    <path
       d="M 177.897 135.214 L 180.808 148.564 L 178.165 138.281 L 177.166 140.745 Z"
       fill="#ca9459"
       fill-opacity="0.501961"
       id="path378" />
    <path
       d="M 172.06 151.127 L 169.272 149.716 L 175.513 140.073 L 169.885 158.213 Z"
       fill="#f7be50"
       fill-opacity="0.501961"
       id="path382" />
    <path
       d="M 6.48117 126.818 L 6.0878 113.691 L 56.0705 126.993 L 21.929 123.362 Z"
       fill="#ffe8b8"
       fill-opacity="0.501961"
       id="path384" />
    <path
       d="M 180.001 125.145 L 186.871 152.571 L 169.147 155.789 L 181.818 154.106 Z"
       fill="#f6f1e1"
       fill-opacity="0.501961"
       id="path388" />
    <path
       d="M 183.153 141.623 L 188.238 131.898 L 177.785 86.725 L 164.89 116.106 Z"
       fill="#ffffff"
       fill-opacity="0.501961"
       id="path390" />
    <path
       d="M 101.639 150.066 L 66.4196 123.363 L 88.0046 139.704 L 88.7052 149.54 Z"
       fill="#fef8c2"
       fill-opacity="0.501961"
       id="path398" />
    <path
       d="M 114.786 89.4686 L 188.974 71.617 L 245.372 116.94 L 182.227 88.1176 Z"
       fill="#fffdf7"
       fill-opacity="0.501961"
       id="path400" />
    <path
       d="M 162.844 39.6165 L 76.7806 46.6792 L 129.514 21.7718 L 191.03 16.8006 Z"
       fill="#feeddc"
       fill-opacity="0.501961"
       id="path404" />
    <path
       d="M 176.271 123.329 L 171.694 123.065 L 178.013 143.215 L 175.832 147.419 Z"
       fill="#fffcf8"
       fill-opacity="0.501961"
       id="path412" />
    <path
       d="M 27.4947 26.3356 L 17.6159 37.9399 L 53.3457 20.8347 L 4.89241 77.1129 Z"
       fill="#edd9c0"
       fill-opacity="0.501961"
       id="path416" />
    <path
       d="M 88.678 135.21 L 137.451 61.2301 L 97.0017 89.7457 L 84.0151 99.3969 Z"
       fill="#fffbec"
       fill-opacity="0.501961"
       id="path418" />
    <path
       d="M 140.034 106.837 L 205.798 147.364 L 188.032 150.365 L 210.001 120.07 Z"
       fill="#ffffff"
       fill-opacity="0.501961"
       id="path420" />
    <path
       d="M 246.978 110.257 L 193.862 152.122 L 235.821 138.796 L 241.875 126.22 Z"
       fill="#fefcf5"
       fill-opacity="0.501961"
       id="path422" />
    <path
       d="M 65.5133 94.6569 L 155.926 36.9749 L 73.5798 60.8117 L 55.3984 119.327 Z"
       fill="#fef2e1"
       fill-opacity="0.501961"
       id="path424" />
    <path
       d="M 64.0686 118.883 L 124.498 152.277 L 148.839 152.66 L 110.722 150.623 Z"
       fill="#fefbdf"
       fill-opacity="0.501961"
       id="path434" />
    <path
       d="M 69.2975 129.074 L 93.6359 128.996 L 58.6546 129.611 L 101.354 147.364 Z"
       fill="#fef5ca"
       fill-opacity="0.501961"
       id="path436" />
    <path
       d="M 239.897 23.9345 L 164.167 2.1538 L 271 19.4627 L 271 46.4391 Z"
       fill="#f7e7d5"
       fill-opacity="0.501961"
       id="path442" />
    <path
       d="M -9.72945 113.24 L 32.3045 124.687 L 44.8799 124.769 L 35.8814 126.368 Z"
       fill="#f9dbaa"
       fill-opacity="0.501961"
       id="path444" />
    <path
       d="M 212.848 116.381 L 187.285 139.105 L 210.491 144.337 L 220.451 138.958 Z"
       fill="#ffffff"
       fill-opacity="0.501961"
       id="path446" />
    <path
       d="M 219.947 124.44 L 168.437 134.804 L 113.202 131.405 L 164.794 94.3783 Z"
       fill="#ffffff"
       fill-opacity="0.501961"
       id="path454" />
    <path
       d="M 271 143.763 L 260.312 137.948 L 241.308 152.41 L 236.855 158.729 Z"
       fill="#fef0b5"
       fill-opacity="0.501961"
       id="path462" />
    <path
       d="M 174.196 136.499 L 227.027 133.363 L 167.141 90.9516 L 178.108 143.408 Z"
       fill="#ffffff"
       fill-opacity="0.501961"
       id="path464" />
    <path
       d="M 31.4625 123.035 L 22.73 83.1458 L 46.6983 121.237 L 57.0134 128.586 Z"
       fill="#ffedc9"
       fill-opacity="0.501961"
       id="path466" />
    <path
       d="M 3.4448 13.7167 L -7.28772 40.5415 L -15.8308 18.3535 L 25.9225 -8.53738 Z"
       fill="#c2b097"
       fill-opacity="0.501961"
       id="path468" />
    <path
       d="M 4.11874 2.3016 L 11.796 -9.68899 L -16 -0.874737 L -16 25.0132 Z"
       fill="#b2a089"
       fill-opacity="0.501961"
       id="path472" />
    <path
       d="M 160.193 139.79 L 164.356 148.597 L 167.11 146.404 L 163.484 144.241 Z"
       fill="#e39227"
       fill-opacity="0.501961"
       id="path474" />
    <path
       d="M 188.981 153.971 L 204.684 87.0311 L 173.669 138.126 L 204.483 120.312 Z"
       fill="#fffefe"
       fill-opacity="0.501961"
       id="path476" />
    <path
       d="M 225.434 153.147 L 216.431 153.919 L 239.768 154.283 L 213.771 154.34 Z"
       fill="#f3e398"
       fill-opacity="0.501961"
       id="path478" />
    <path
       d="M 10.9875 56.2857 L 10.2209 40.8149 L -16 73.6993 L -16 87.7757 Z"
       fill="#e9d2b3"
       fill-opacity="0.501961"
       id="path480" />
    <path
       d="M 260.399 47.4103 L 257.818 66.804 L 185.262 28.3679 L 244.293 37.6555 Z"
       fill="#ffefdd"
       fill-opacity="0.501961"
       id="path482" />
    <path
       d="M 125.472 19.7668 L 128.626 6.46739 L 90.2247 20.7708 L 37.5289 61.5772 Z"
       fill="#f8e7d6"
       fill-opacity="0.501961"
       id="path484" />
    <path
       d="M 35.5506 78.2768 L 35.4644 71.9803 L 21.3064 124.706 L 17.0404 86.1252 Z"
       fill="#ffe8c7"
       fill-opacity="0.501961"
       id="path492" />
    <path
       d="M 117.92 127.298 L 158.935 94.3414 L 157.893 137.536 L 146.118 147.019 Z"
       fill="#ffffff"
       fill-opacity="0.501961"
       id="path494" />
    <path
       d="M 238.36 142.264 L 240.651 140.97 L 251.176 108.586 L 235.019 90.4758 Z"
       fill="#fefcee"
       fill-opacity="0.501961"
       id="path496" />
    <path
       d="M 12.0154 29.437 L 48.2459 -11.1017 L 41.1941 0.045741 L 69.9947 -13.7766 Z"
       fill="#d9c8b3"
       fill-opacity="0.501961"
       id="path498" />
    <path
       d="M 61.7866 121.103 L 57.1265 94.4797 L 80.5122 96.9322 L 76.3767 111.466 Z"
       fill="#fef5dd"
       fill-opacity="0.501961"
       id="path500" />
    <path
       d="M 75.9531 137.832 L 72.5898 136.939 L 55.385 128.964 L 60.1728 130.206 Z"
       fill="#c58f5a"
       fill-opacity="0.501961"
       id="path502" />
    <path
       d="M 173.089 142.745 L 171.527 143.023 L 166.475 150.196 L 163.409 152.911 Z"
       fill="#fff5c8"
       fill-opacity="0.501961"
       id="path508" />
    <path
       d="M 121.256 59.5019 L 176.05 51.6706 L 70.934 104.724 L 87.5091 94.3451 Z"
       fill="#fff8e9"
       fill-opacity="0.501961"
       id="path510" />
    <path
       d="M 176.449 153.617 L 168.879 154.011 L 177.692 153.663 L 175.208 144.041 Z"
       fill="#fdfef7"
       fill-opacity="0.501961"
       id="path514" />
    <path
       d="M 147.657 154.542 L 157.543 145.925 L 132.733 118.238 L 123.775 141.76 Z"
       fill="#fffefe"
       fill-opacity="0.501961"
       id="path516" />
    <path
       d="M 212.849 153.554 L 268.387 115.875 L 245.846 138.813 L 224.704 151.627 Z"
       fill="#fefae1"
       fill-opacity="0.501961"
       id="path518" />
    <path
       d="M 68.5154 -12.2633 L 44.0881 9.20153 L 42.1626 20.8868 L 74.9968 -2.81597 Z"
       fill="#e2d1bf"
       fill-opacity="0.501961"
       id="path520" />
    <path
       d="M 167.485 148.102 L 165.698 142.634 L 166.827 153.406 L 166.789 147.568 Z"
       fill="#ffc944"
       fill-opacity="0.501961"
       id="path522" />
    <path
       d="M 148.68 141.444 L 159.983 152.41 L 140.238 128.517 L 210.187 96.6384 Z"
       fill="#fffffe"
       fill-opacity="0.501961"
       id="path526" />
    <path
       d="M 161.316 139.136 L 177.699 110.561 L 185.033 153.942 L 167.642 96.1036 Z"
       fill="#fffefd"
       fill-opacity="0.501961"
       id="path530" />
    <path
       d="M 108.048 142.053 L 73.5541 95.5141 L 85.7188 130.561 L 121.112 153.293 Z"
       fill="#fdfae5"
       fill-opacity="0.501961"
       id="path536" />
    <path
       d="M 236.881 146.936 L 255.8 149.409 L 250.763 154.834 L 271 128.315 Z"
       fill="#fff7c6"
       fill-opacity="0.501961"
       id="path544" />
    <path
       d="M 207.984 122.365 L 172.601 138.367 L 202.965 104.044 L 190.285 147.362 Z"
       fill="#fffefe"
       fill-opacity="0.501961"
       id="path546" />
    <path
       d="M 151.476 123.694 L 140.408 152.379 L 156.598 153.205 L 152.111 120.254 Z"
       fill="#ffffff"
       fill-opacity="0.501961"
       id="path552" />
    <path
       d="M 205.911 153.6 L 188.381 126.887 L 205.686 133.421 L 222.232 124.788 Z"
       fill="#fffefe"
       fill-opacity="0.501961"
       id="path554" />
    <path
       d="M 177.139 140.278 L 180.655 141.044 L 189.464 144.668 L 192.196 145.409 Z"
       fill="#c9aa7f"
       fill-opacity="0.501961"
       id="path556" />
    <path
       d="M 75.2014 137.14 L 68.6432 133.468 L 96.0286 145.368 L 51.4336 126.11 Z"
       fill="#fde9b5"
       fill-opacity="0.501961"
       id="path558" />
    <path
       d="M 12.432 115.631 L 11.3318 126.582 L 2.95707 123.785 L -16 66.161 Z"
       fill="#ffdeb2"
       fill-opacity="0.501961"
       id="path560" />
    <path
       d="M 43.9561 57.0404 L 41.2042 43.228 L 64.1824 18.6641 L 76.6974 17.1914 Z"
       fill="#f3e1ce"
       fill-opacity="0.501961"
       id="path562" />
    <path
       d="M 171.107 129.283 L 134.102 144.144 L 148.696 98.5027 L 172.063 139.201 Z"
       fill="#fffffe"
       fill-opacity="0.501961"
       id="path564" />
    <path
       d="M 155.063 74.1902 L 201.98 84.9704 L 141.709 62.1071 L 117.738 86.1425 Z"
       fill="#fffbf0"
       fill-opacity="0.501961"
       id="path568" />
    <path
       d="M 17.8677 124.334 L 10.3892 124.484 L 41.2024 121.63 L 9.77696 101.497 Z"
       fill="#fee8bf"
       fill-opacity="0.501961"
       id="path570" />
    <path
       d="M 194.892 92.3 L 161.637 126.331 L 165.414 138.248 L 145.173 122.205 Z"
       fill="#ffffff"
       fill-opacity="0.501961"
       id="path572" />
    <path
       d="M 184.576 149.993 L 183.307 149.783 L 186.302 141.065 L 181.598 150.596 Z"
       fill="#f6f6f2"
       fill-opacity="0.501961"
       id="path580" />
    <path
       d="M 171.156 135.921 L 180.119 144.94 L 173.892 138.025 L 180.783 148.081 Z"
       fill="#e4a66b"
       fill-opacity="0.501961"
       id="path586" />
    <path
       d="M 120.791 70.0406 L 94.2094 130.321 L 122.176 152.628 L 98.1438 112.386 Z"
       fill="#fefbef"
       fill-opacity="0.501961"
       id="path588" />
    <path
       d="M 63.3921 22.7899 L 22.6693 68.8158 L 18.2075 80.5729 L 20.7738 55.8551 Z"
       fill="#f3dfc7"
       fill-opacity="0.501961"
       id="path590" />
    <path
       d="M 126.277 111.704 L 151.499 102.34 L 162.604 140.975 L 166.904 120.381 Z"
       fill="#ffffff"
       fill-opacity="0.501961"
       id="path592" />
    <path
       d="M 174.354 139.754 C 173.677 140.375, 172.389 140.778, 171.479 140.654 C 170.568 140.53, 170.379 139.925, 171.056 139.304 C 171.734 138.683, 173.021 138.28, 173.932 138.404 C 174.843 138.528, 175.032 139.132, 174.354 139.754"
       fill="#ffa82c"
       fill-opacity="0.501961"
       id="path594" />
    <path
       d="M 172.392 145.466 C 173.28 144.989, 173.773 145.387, 173.493 146.355 C 173.212 147.323, 172.265 148.496, 171.377 148.973 C 170.49 149.451, 169.997 149.053, 170.277 148.085 C 170.558 147.116, 171.505 145.944, 172.392 145.466"
       fill="#ffb20c"
       fill-opacity="0.501961"
       id="path596" />
    <path
       d="M 164.102 153.199 C 163.858 152.187, 164.087 150.639, 164.616 149.742 C 165.144 148.844, 165.77 148.937, 166.014 149.949 C 166.259 150.962, 166.029 152.509, 165.501 153.407 C 164.973 154.304, 164.347 154.211, 164.102 153.199"
       fill="#fff5d8"
       fill-opacity="0.501961"
       id="path598" />
    <path
       d="M 173.374 147.406 C 173.79 147.768, 173.834 148.4, 173.471 148.816 C 173.108 149.233, 172.476 149.276, 172.06 148.913 C 171.643 148.55, 171.6 147.919, 171.963 147.502 C 172.326 147.086, 172.958 147.043, 173.374 147.406"
       fill="#f79500"
       fill-opacity="0.501961"
       id="path600" />
    <path
       d="M 168.011 141.951 C 168.102 140.776, 168.973 140.349, 169.957 140.999 C 170.941 141.649, 171.665 143.129, 171.574 144.305 C 171.482 145.48, 170.611 145.907, 169.627 145.257 C 168.643 144.607, 167.92 143.127, 168.011 141.951"
       fill="#ffffec"
       fill-opacity="0.501961"
       id="path602" />
    <path
       d="M 176.331 154.885 C 176.566 154.197, 177.342 153.575, 178.065 153.496 C 178.788 153.417, 179.184 153.911, 178.949 154.6 C 178.714 155.288, 177.938 155.91, 177.215 155.989 C 176.492 156.068, 176.096 155.574, 176.331 154.885"
       fill="#fef5d8"
       fill-opacity="0.501961"
       id="path604" />
    <path
       d="M 162.435 145.987 C 161.793 145.309, 161.98 144.488, 162.853 144.154 C 163.726 143.82, 164.955 144.1, 165.598 144.779 C 166.241 145.458, 166.054 146.279, 165.181 146.612 C 164.307 146.946, 163.078 146.666, 162.435 145.987"
       fill="#ed8c04"
       fill-opacity="0.501961"
       id="path606" />
    <path
       d="M 179.644 141.883 C 180.326 141.317, 180.904 141.577, 180.934 142.462 C 180.965 143.347, 180.437 144.524, 179.755 145.089 C 179.073 145.654, 178.495 145.395, 178.465 144.51 C 178.434 143.624, 178.962 142.448, 179.644 141.883"
       fill="#b05b14"
       fill-opacity="0.501961"
       id="path608" />
    <path
       d="M 167.366 136.545 C 167.094 137.026, 166.484 137.196, 166.003 136.924 C 165.522 136.652, 165.353 136.042, 165.625 135.561 C 165.896 135.08, 166.506 134.911, 166.987 135.183 C 167.468 135.454, 167.638 136.064, 167.366 136.545"
       fill="#d39444"
       fill-opacity="0.501961"
       id="path610" />
    <path
       d="M 170.511 144.59 C 170.024 145.343, 169.396 145.265, 169.108 144.416 C 168.819 143.567, 168.98 142.269, 169.467 141.516 C 169.954 140.763, 170.582 140.841, 170.871 141.69 C 171.159 142.539, 170.998 143.837, 170.511 144.59"
       fill="#ffffff"
       fill-opacity="0.501961"
       id="path612" />
    <path
       d="M 172.785 113.056 C 177.239 108.718, 183.433 109.529, 186.62 114.867 C 189.807 120.206, 188.78 128.05, 184.326 132.388 C 179.872 136.726, 173.678 135.915, 170.491 130.577 C 167.305 125.238, 168.332 117.394, 172.785 113.056"
       fill="#ffffff"
       fill-opacity="0.501961"
       id="path614" />
    <path
       d="M 172.216 135.528 C 172.095 134.989, 172.434 134.454, 172.973 134.333 C 173.512 134.212, 174.047 134.551, 174.168 135.09 C 174.289 135.629, 173.95 136.164, 173.411 136.285 C 172.872 136.406, 172.337 136.067, 172.216 135.528"
       fill="#d1b089"
       fill-opacity="0.501961"
       id="path618" />
    <path
       d="M 181.405 142.651 C 182.19 141.999, 183.651 141.547, 184.667 141.641 C 185.683 141.735, 185.87 142.34, 185.085 142.992 C 184.3 143.644, 182.84 144.096, 181.824 144.002 C 180.808 143.908, 180.62 143.303, 181.405 142.651"
       fill="#d9c792"
       fill-opacity="0.501961"
       id="path620" />
    <path
       d="M 161.994 141.041 C 161.904 142.555, 161.158 144.81, 160.327 146.078 C 159.497 147.346, 158.896 147.147, 158.985 145.633 C 159.074 144.12, 159.82 141.865, 160.651 140.597 C 161.482 139.329, 162.083 139.528, 161.994 141.041"
       fill="#9e5424"
       fill-opacity="0.501961"
       id="path622" />
    <path
       d="M 161.269 149.704 C 161.088 149.001, 161.397 148.06, 161.959 147.601 C 162.521 147.142, 163.122 147.339, 163.303 148.042 C 163.483 148.744, 163.174 149.686, 162.612 150.145 C 162.051 150.603, 161.449 150.406, 161.269 149.704"
       fill="#fdf4d2"
       fill-opacity="0.501961"
       id="path624" />
    <path
       d="M 163.61 138.809 C 163.872 137.869, 164.499 137.781, 165.01 138.612 C 165.521 139.444, 165.722 140.88, 165.46 141.82 C 165.197 142.76, 164.57 142.848, 164.059 142.017 C 163.548 141.185, 163.347 139.749, 163.61 138.809"
       fill="#ef9147"
       fill-opacity="0.501961"
       id="path626" />
    <path
       d="M 157.26 139.91 C 157.766 139.165, 158.903 138.504, 159.801 138.433 C 160.699 138.363, 161.017 138.911, 160.512 139.656 C 160.007 140.402, 158.869 141.063, 157.971 141.133 C 157.073 141.203, 156.755 140.656, 157.26 139.91"
       fill="#985b3d"
       fill-opacity="0.501961"
       id="path628" />
    <path
       d="M 173.788 139.619 C 174.068 139.143, 174.681 138.984, 175.157 139.264 C 175.633 139.543, 175.792 140.156, 175.513 140.632 C 175.233 141.109, 174.62 141.268, 174.144 140.988 C 173.668 140.708, 173.509 140.095, 173.788 139.619"
       fill="#ffb77d"
       fill-opacity="0.501961"
       id="path630" />
    <path
       d="M 170.967 140.863 C 170.407 140.75, 170.014 140.2, 170.09 139.634 C 170.166 139.068, 170.681 138.7, 171.241 138.812 C 171.801 138.925, 172.194 139.475, 172.118 140.041 C 172.043 140.608, 171.527 140.976, 170.967 140.863"
       fill="#fec03f"
       fill-opacity="0.501961"
       id="path632" />
    <path
       d="M 158.222 142.799 C 157.535 142.231, 156.997 141.049, 157.021 140.158 C 157.045 139.267, 157.621 139.004, 158.308 139.572 C 158.995 140.14, 159.533 141.323, 159.51 142.214 C 159.486 143.105, 158.91 143.367, 158.222 142.799"
       fill="#8c4f30"
       fill-opacity="0.501961"
       id="path634" />
    <path
       d="M 170.142 152.604 C 170.129 153.596, 169.529 154.948, 168.802 155.623 C 168.075 156.299, 167.496 156.042, 167.509 155.05 C 167.522 154.057, 168.122 152.705, 168.849 152.03 C 169.576 151.355, 170.155 151.611, 170.142 152.604"
       fill="#ffffff"
       fill-opacity="0.501961"
       id="path638" />
    <path
       d="M 170.258 148.889 C 169.944 148.435, 170.058 147.812, 170.512 147.498 C 170.966 147.183, 171.589 147.297, 171.903 147.751 C 172.217 148.205, 172.104 148.828, 171.65 149.142 C 171.196 149.457, 170.573 149.343, 170.258 148.889"
       fill="#fdac0e"
       fill-opacity="0.501961"
       id="path640" />
    <path
       d="M 172.329 137.935 C 173.076 137.837, 173.472 138.331, 173.215 139.038 C 172.957 139.746, 172.143 140.399, 171.397 140.497 C 170.65 140.595, 170.254 140.102, 170.512 139.394 C 170.769 138.687, 171.583 138.034, 172.329 137.935"
       fill="#fdb23d"
       fill-opacity="0.501961"
       id="path642" />
    <path
       d="M 178.268 136.993 C 178.832 136.895, 179.399 137.266, 179.535 137.821 C 179.67 138.377, 179.324 138.907, 178.76 139.005 C 178.197 139.103, 177.63 138.732, 177.494 138.176 C 177.358 137.621, 177.705 137.091, 178.268 136.993"
       fill="#ce9c53"
       fill-opacity="0.501961"
       id="path644" />
    <path
       d="M 163.891 143.328 C 163.629 143.814, 163.022 143.996, 162.536 143.734 C 162.05 143.472, 161.868 142.866, 162.13 142.379 C 162.392 141.893, 162.999 141.711, 163.485 141.973 C 163.971 142.236, 164.153 142.842, 163.891 143.328"
       fill="#e1ad72"
       fill-opacity="0.501961"
       id="path646" />
    <path
       d="M 176.09 150.153 C 176.45 151.338, 176.4 153.244, 175.979 154.409 C 175.558 155.574, 174.925 155.558, 174.565 154.372 C 174.206 153.187, 174.255 151.281, 174.676 150.116 C 175.097 148.951, 175.73 148.967, 176.09 150.153"
       fill="#ffffff"
       fill-opacity="0.501961"
       id="path648" />
    <path
       d="M 165.802 155.673 C 165.313 155.93, 164.709 155.742, 164.452 155.253 C 164.195 154.764, 164.383 154.159, 164.872 153.903 C 165.361 153.646, 165.966 153.834, 166.222 154.323 C 166.479 154.812, 166.291 155.416, 165.802 155.673"
       fill="#faf5d3"
       fill-opacity="0.501961"
       id="path650" />
    <path
       d="M 168.234 142.595 C 169.313 143.118, 170.615 144.415, 171.142 145.492 C 171.67 146.569, 171.223 147.017, 170.144 146.494 C 169.065 145.971, 167.763 144.673, 167.236 143.597 C 166.708 142.52, 167.155 142.071, 168.234 142.595"
       fill="#fffff2"
       fill-opacity="0.501961"
       id="path652" />
    <path
       d="M 172.764 145.751 C 172.404 145.104, 172.453 144.085, 172.873 143.475 C 173.293 142.865, 173.925 142.896, 174.285 143.543 C 174.645 144.19, 174.596 145.209, 174.176 145.819 C 173.756 146.429, 173.123 146.399, 172.764 145.751"
       fill="#ffc123"
       fill-opacity="0.501961"
       id="path654" />
    <path
       d="M 165.152 143.69 C 165.04 143.15, 165.387 142.62, 165.928 142.508 C 166.469 142.396, 166.998 142.743, 167.111 143.284 C 167.223 143.825, 166.875 144.354, 166.335 144.466 C 165.794 144.579, 165.265 144.231, 165.152 143.69"
       fill="#ffe16e"
       fill-opacity="0.501961"
       id="path656" />
    <path
       d="M 182.131 152.329 C 181.336 151.647, 181.457 150.726, 182.403 150.273 C 183.348 149.82, 184.759 150.006, 185.555 150.688 C 186.35 151.371, 186.229 152.292, 185.284 152.745 C 184.338 153.198, 182.927 153.012, 182.131 152.329"
       fill="#ffffff"
       fill-opacity="0.501961"
       id="path658" />
    <path
       d="M 160.041 149.254 C 160.474 149.597, 160.548 150.225, 160.205 150.659 C 159.863 151.092, 159.234 151.165, 158.801 150.823 C 158.367 150.48, 158.294 149.851, 158.637 149.418 C 158.979 148.985, 159.608 148.911, 160.041 149.254"
       fill="#d9bc60"
       fill-opacity="0.501961"
       id="path660" />
    <path
       d="M 169.125 154.791 C 168.432 153.275, 167.931 150.697, 168.005 149.032 C 168.08 147.367, 168.701 147.246, 169.394 148.762 C 170.086 150.278, 170.587 152.856, 170.513 154.521 C 170.439 156.186, 169.817 156.307, 169.125 154.791"
       fill="#ffffff"
       fill-opacity="0.501961"
       id="path662" />
    <path
       d="M 179.391 148.423 C 180.107 147.927, 180.663 148.23, 180.633 149.101 C 180.602 149.971, 179.997 151.079, 179.281 151.575 C 178.566 152.071, 178.01 151.767, 178.04 150.897 C 178.071 150.027, 178.676 148.919, 179.391 148.423"
       fill="#7d4000"
       fill-opacity="0.501961"
       id="path666" />
    <path
       d="M 158.902 145.636 C 159.112 144.75, 159.731 144.618, 160.285 145.341 C 160.839 146.064, 161.118 147.369, 160.908 148.255 C 160.698 149.142, 160.078 149.274, 159.525 148.551 C 158.971 147.828, 158.692 146.523, 158.902 145.636"
       fill="#894200"
       fill-opacity="0.501961"
       id="path668" />
    <path
       d="M 173.508 142.316 C 173.256 142.966, 172.638 143.107, 172.129 142.63 C 171.621 142.153, 171.413 141.239, 171.665 140.588 C 171.918 139.938, 172.535 139.798, 173.044 140.275 C 173.553 140.752, 173.761 141.666, 173.508 142.316"
       fill="#ffcd4a"
       fill-opacity="0.501961"
       id="path670" />
    <path
       d="M 174.015 135.625 C 173.943 136.173, 173.44 136.558, 172.893 136.486 C 172.345 136.414, 171.96 135.911, 172.032 135.364 C 172.105 134.816, 172.607 134.431, 173.155 134.503 C 173.702 134.575, 174.087 135.078, 174.015 135.625"
       fill="#cca165"
       fill-opacity="0.501961"
       id="path672" />
    <path
       d="M 175.933 140.897 C 176.49 141.334, 176.439 141.965, 175.818 142.306 C 175.197 142.647, 174.242 142.57, 173.684 142.133 C 173.126 141.695, 173.178 141.064, 173.799 140.723 C 174.42 140.382, 175.375 140.459, 175.933 140.897"
       fill="#ffd9a1"
       fill-opacity="0.501961"
       id="path674" />
    <path
       d="M 161.359 142.836 C 162.209 143.132, 163.139 144.06, 163.437 144.909 C 163.735 145.758, 163.288 146.206, 162.438 145.91 C 161.589 145.614, 160.659 144.686, 160.361 143.837 C 160.063 142.988, 160.51 142.54, 161.359 142.836"
       fill="#b66525"
       fill-opacity="0.501961"
       id="path676" />
    <path
       d="M 163.376 155.313 C 163.199 154.718, 163.498 153.994, 164.043 153.697 C 164.589 153.399, 165.174 153.641, 165.351 154.236 C 165.527 154.832, 165.229 155.555, 164.683 155.853 C 164.138 156.15, 163.553 155.909, 163.376 155.313"
       fill="#fef3c7"
       fill-opacity="0.501961"
       id="path680" />
    <path
       d="M 158.146 142.854 C 158.521 143.26, 158.494 143.893, 158.088 144.267 C 157.682 144.641, 157.049 144.615, 156.675 144.209 C 156.301 143.802, 156.327 143.17, 156.733 142.796 C 157.14 142.422, 157.772 142.448, 158.146 142.854"
       fill="#966a4b"
       fill-opacity="0.501961"
       id="path682" />
    <path
       d="M 164.085 140.975 C 164.61 140.153, 165.813 139.345, 166.773 139.172 C 167.732 138.998, 168.085 139.524, 167.561 140.346 C 167.036 141.168, 165.833 141.976, 164.873 142.149 C 163.913 142.323, 163.56 141.797, 164.085 140.975"
       fill="#fda33b"
       fill-opacity="0.501961"
       id="path684" />
    <path
       d="M 179.36 140.012 C 179.811 139.693, 180.435 139.799, 180.755 140.25 C 181.074 140.701, 180.967 141.325, 180.517 141.644 C 180.066 141.963, 179.442 141.857, 179.123 141.406 C 178.803 140.956, 178.91 140.331, 179.36 140.012"
       fill="#c48853"
       fill-opacity="0.501961"
       id="path686" />
    <path
       d="M 166.758 145.882 C 166.886 146.42, 166.554 146.959, 166.016 147.086 C 165.479 147.214, 164.94 146.882, 164.812 146.345 C 164.684 145.807, 165.016 145.268, 165.554 145.141 C 166.091 145.013, 166.63 145.345, 166.758 145.882"
       fill="#ffc023"
       fill-opacity="0.501961"
       id="path688" />
    <path
       d="M 141.866 145.857 C 145.807 142.258, 152.588 136.922, 157.011 133.937 C 161.435 130.952, 161.827 131.45, 157.886 135.048 C 153.945 138.647, 147.164 143.984, 142.741 146.968 C 138.317 149.953, 137.925 149.455, 141.866 145.857"
       fill="#ffffff"
       fill-opacity="0.501961"
       id="path690" />
    <path
       d="M 161.637 149.512 C 161.501 148.831, 161.864 147.973, 162.447 147.597 C 163.031 147.22, 163.614 147.467, 163.75 148.148 C 163.885 148.829, 163.523 149.686, 162.939 150.063 C 162.356 150.44, 161.772 150.193, 161.637 149.512"
       fill="#fbf2d6"
       fill-opacity="0.501961"
       id="path692" />
    <path
       d="M 166.73 149.395 C 166.295 149.735, 165.667 149.659, 165.326 149.224 C 164.986 148.789, 165.062 148.16, 165.497 147.82 C 165.932 147.48, 166.561 147.556, 166.901 147.991 C 167.242 148.426, 167.165 149.054, 166.73 149.395"
       fill="#ffdd85"
       fill-opacity="0.501961"
       id="path694" />
    <path
       d="M 158.593 135.805 C 159.211 134.375, 159.837 134.473, 159.991 136.023 C 160.144 137.573, 159.768 139.988, 159.15 141.418 C 158.532 142.847, 157.906 142.75, 157.752 141.2 C 157.599 139.65, 157.975 137.235, 158.593 135.805"
       fill="#a6754b"
       fill-opacity="0.501961"
       id="path696" />
    <path
       d="M 164.398 147.917 C 163.892 148.137, 163.303 147.905, 163.083 147.398 C 162.863 146.892, 163.095 146.303, 163.602 146.083 C 164.108 145.863, 164.697 146.095, 164.917 146.602 C 165.137 147.108, 164.905 147.697, 164.398 147.917"
       fill="#f28c0c"
       fill-opacity="0.501961"
       id="path698" />
    <path
       d="M 167.77 147.466 C 167.732 148.059, 167.229 148.444, 166.647 148.325 C 166.064 148.207, 165.622 147.63, 165.66 147.036 C 165.698 146.443, 166.201 146.058, 166.783 146.177 C 167.366 146.295, 167.807 146.873, 167.77 147.466"
       fill="#ffca49"
       fill-opacity="0.501961"
       id="path700" />
    <path
       d="M 177.683 154.641 C 177.153 154.454, 176.858 153.866, 177.026 153.329 C 177.194 152.792, 177.76 152.508, 178.29 152.695 C 178.821 152.883, 179.115 153.47, 178.948 154.007 C 178.78 154.545, 178.214 154.828, 177.683 154.641"
       fill="#f5efd6"
       fill-opacity="0.501961"
       id="path702" />
    <path
       d="M 159.261 148.403 C 158.568 148.868, 158.01 148.569, 158.014 147.735 C 158.019 146.901, 158.583 145.848, 159.276 145.383 C 159.968 144.918, 160.526 145.217, 160.522 146.051 C 160.518 146.885, 159.953 147.938, 159.261 148.403"
       fill="#8c4805"
       fill-opacity="0.501961"
       id="path704" />
    <path
       d="M 178.72 145.004 C 179.291 145.064, 179.671 145.571, 179.568 146.136 C 179.465 146.701, 178.918 147.11, 178.347 147.05 C 177.776 146.99, 177.396 146.483, 177.499 145.918 C 177.602 145.353, 178.149 144.944, 178.72 145.004"
       fill="#d0792a"
       fill-opacity="0.501961"
       id="path706" />
    <path
       d="M 157.861 145.231 C 157.285 144.4, 157.436 143.189, 158.2 142.526 C 158.964 141.863, 160.05 141.999, 160.626 142.83 C 161.202 143.661, 161.05 144.872, 160.287 145.535 C 159.523 146.198, 158.437 146.062, 157.861 145.231"
       fill="#8d5434"
       fill-opacity="0.501961"
       id="path708" />
    <path
       d="M 160.967 151.928 C 161.173 152.568, 160.795 153.076, 160.124 153.063 C 159.452 153.051, 158.74 152.522, 158.534 151.883 C 158.328 151.243, 158.706 150.735, 159.377 150.747 C 160.049 150.76, 160.761 151.288, 160.967 151.928"
       fill="#d3b96c"
       fill-opacity="0.501961"
       id="path710" />
    <path
       d="M 164.906 139.561 C 164.262 138.839, 164.524 138.263, 165.491 138.274 C 166.459 138.285, 167.766 138.88, 168.41 139.602 C 169.054 140.324, 168.792 140.9, 167.824 140.889 C 166.857 140.878, 165.55 140.284, 164.906 139.561"
       fill="#f5a34f"
       fill-opacity="0.501961"
       id="path712" />
    <path
       d="M 152.793 152.161 C 154.844 154.028, 154.488 154.551, 151.998 153.33 C 149.507 152.11, 145.826 149.607, 143.775 147.74 C 141.724 145.873, 142.08 145.349, 144.57 146.57 C 147.06 147.791, 150.742 150.294, 152.793 152.161"
       fill="#fffffb"
       fill-opacity="0.501961"
       id="path714" />
    <path
       d="M 148.546 151.408 C 146.759 150.595, 146.901 149.978, 148.864 150.031 C 150.827 150.083, 153.866 150.786, 155.653 151.6 C 157.44 152.414, 157.297 153.031, 155.335 152.978 C 153.372 152.925, 150.332 152.222, 148.546 151.408"
       fill="#ffffff"
       fill-opacity="0.501961"
       id="path716" />
    <path
       d="M 168.427 154.305 C 168.477 153.648, 169.039 152.995, 169.681 152.847 C 170.324 152.699, 170.804 153.112, 170.753 153.77 C 170.703 154.427, 170.141 155.08, 169.499 155.228 C 168.856 155.376, 168.376 154.963, 168.427 154.305"
       fill="#ffffff"
       fill-opacity="0.501961"
       id="path718" />
    <path
       d="M 176.741 135.547 C 174.22 135.542, 170.934 133.917, 169.4 131.917 C 167.867 129.917, 168.667 128.299, 171.187 128.304 C 173.707 128.309, 176.994 129.934, 178.527 131.934 C 180.061 133.934, 179.261 135.552, 176.741 135.547"
       fill="#ffffff"
       fill-opacity="0.501961"
       id="path720" />
    <path
       d="M 186.067 141.798 C 185.741 142.244, 185.115 142.341, 184.669 142.015 C 184.224 141.689, 184.127 141.063, 184.453 140.617 C 184.779 140.172, 185.404 140.074, 185.85 140.401 C 186.296 140.727, 186.393 141.352, 186.067 141.798"
       fill="#9f8346"
       fill-opacity="0.501961"
       id="path722" />
    <path
       d="M 173.852 153.412 C 174.565 152.831, 175.875 152.504, 176.778 152.68 C 177.681 152.857, 177.835 153.471, 177.121 154.052 C 176.408 154.633, 175.098 154.961, 174.195 154.784 C 173.292 154.608, 173.139 153.993, 173.852 153.412"
       fill="#fefffa"
       fill-opacity="0.501961"
       id="path724" />
    <path
       d="M 172.037 147.486 C 171.893 146.852, 172.237 146.085, 172.805 145.771 C 173.373 145.457, 173.951 145.715, 174.096 146.349 C 174.24 146.982, 173.897 147.749, 173.328 148.063 C 172.76 148.377, 172.182 148.119, 172.037 147.486"
       fill="#f8a412"
       fill-opacity="0.501961"
       id="path726" />
    <path
       d="M 161.204 126.821 C 153.179 123.976, 153.363 123.37, 161.615 125.467 C 169.866 127.565, 183.061 131.572, 191.086 134.417 C 199.111 137.262, 198.927 137.868, 190.675 135.77 C 182.423 133.673, 169.228 129.666, 161.204 126.821"
       fill="#ffffff"
       fill-opacity="0.501961"
       id="path728" />
    <path
       d="M 157.999 136.63 C 158.551 136.688, 158.946 137.183, 158.883 137.734 C 158.82 138.284, 158.321 138.683, 157.77 138.625 C 157.218 138.566, 156.823 138.072, 156.886 137.521 C 156.949 136.97, 157.448 136.571, 157.999 136.63"
       fill="#e8e1cf"
       fill-opacity="0.501961"
       id="path730" />
    <path
       d="M 174.034 138.734 C 174.512 139.562, 174.511 140.904, 174.032 141.731 C 173.552 142.559, 172.776 142.558, 172.297 141.73 C 171.819 140.902, 171.82 139.56, 172.299 138.733 C 172.779 137.905, 173.555 137.906, 174.034 138.734"
       fill="#feb041"
       fill-opacity="0.501961"
       id="path734" />
    <path
       d="M 164.551 129.86 C 167.859 130.338, 173.059 131.725, 176.166 132.957 C 179.272 134.19, 179.109 134.802, 175.801 134.324 C 172.494 133.846, 167.294 132.459, 164.187 131.227 C 161.08 129.994, 161.243 129.382, 164.551 129.86"
       fill="#ffffff"
       fill-opacity="0.501961"
       id="path736" />
    <path
       d="M 186.229 139.894 C 186.966 140.388, 187.615 141.506, 187.677 142.392 C 187.739 143.278, 187.192 143.596, 186.454 143.102 C 185.716 142.608, 185.067 141.489, 185.005 140.603 C 184.943 139.718, 185.491 139.4, 186.229 139.894"
       fill="#7f5923"
       fill-opacity="0.501961"
       id="path738" />
    <path
       d="M 189.221 148.364 C 188.683 148.492, 188.145 148.159, 188.017 147.622 C 187.89 147.084, 188.222 146.546, 188.76 146.418 C 189.297 146.291, 189.836 146.623, 189.963 147.161 C 190.091 147.698, 189.758 148.237, 189.221 148.364"
       fill="#8f6b34"
       fill-opacity="0.501961"
       id="path740" />
    <path
       d="M 182.44 146.056 C 183.602 147.403, 184.928 149.886, 185.401 151.601 C 185.874 153.316, 185.316 153.615, 184.154 152.267 C 182.991 150.92, 181.666 148.438, 181.192 146.722 C 180.719 145.007, 181.278 144.709, 182.44 146.056"
       fill="#ffffff"
       fill-opacity="0.501961"
       id="path744" />
    <path
       d="M 190.54 129.318 C 188.368 131.906, 184.413 135.641, 181.705 137.66 C 178.997 139.68, 178.563 139.219, 180.734 136.632 C 182.906 134.044, 186.861 130.31, 189.569 128.29 C 192.277 126.27, 192.711 126.731, 190.54 129.318"
       fill="#fefefc"
       fill-opacity="0.501961"
       id="path748" />
    <path
       d="M 182.719 137.308 C 183.463 136.179, 184.07 136.36, 184.074 137.712 C 184.079 139.064, 183.479 141.075, 182.735 142.204 C 181.991 143.332, 181.385 143.152, 181.38 141.8 C 181.376 140.448, 181.975 138.437, 182.719 137.308"
       fill="#ffffff"
       fill-opacity="0.501961"
       id="path750" />
    <path
       d="M 179.306 150.006 C 179.832 150.175, 180.12 150.739, 179.951 151.264 C 179.781 151.79, 179.217 152.079, 178.692 151.909 C 178.166 151.739, 177.878 151.176, 178.047 150.65 C 178.217 150.125, 178.78 149.836, 179.306 150.006"
       fill="#723101"
       fill-opacity="0.501961"
       id="path752" />
    <path
       d="M 179.766 140.786 C 180.452 140.764, 180.829 141.273, 180.608 141.923 C 180.387 142.572, 179.652 143.117, 178.966 143.14 C 178.28 143.162, 177.903 142.654, 178.123 142.004 C 178.344 141.354, 179.08 140.809, 179.766 140.786"
       fill="#b26c32"
       fill-opacity="0.501961"
       id="path754" />
    <path
       d="M 188.069 148.819 C 187.684 150.586, 187.051 150.589, 186.654 148.824 C 186.258 147.06, 186.247 144.197, 186.632 142.429 C 187.016 140.662, 187.649 140.66, 188.046 142.424 C 188.443 144.189, 188.453 147.052, 188.069 148.819"
       fill="#78450d"
       fill-opacity="0.501961"
       id="path756" />
    <path
       d="M 190.288 128.482 C 193.092 126.242, 193.539 126.69, 191.286 129.484 C 189.033 132.278, 184.933 136.359, 182.129 138.599 C 179.325 140.839, 178.879 140.39, 181.132 137.596 C 183.385 134.803, 187.484 130.722, 190.288 128.482"
       fill="#fefefd"
       fill-opacity="0.501961"
       id="path758" />
    <path
       d="M 183.066 140.045 C 181.812 138.557, 180.335 135.842, 179.767 133.981 C 179.2 132.12, 179.756 131.818, 181.01 133.305 C 182.264 134.793, 183.74 137.508, 184.308 139.369 C 184.876 141.23, 184.32 141.533, 183.066 140.045"
       fill="#ffffff"
       fill-opacity="0.501961"
       id="path760" />
    <path
       d="M 185.156 134.703 C 185.664 133.034, 187.115 130.723, 188.397 129.54 C 189.679 128.358, 190.307 128.752, 189.799 130.42 C 189.291 132.089, 187.84 134.4, 186.558 135.583 C 185.276 136.766, 184.649 136.372, 185.156 134.703"
       fill="#fffffd"
       fill-opacity="0.501961"
       id="path762" />
    <path
       d="M 163.327 139.736 C 163.876 138.931, 165.104 138.163, 166.068 138.02 C 167.032 137.877, 167.368 138.414, 166.818 139.219 C 166.269 140.024, 165.041 140.792, 164.077 140.935 C 163.113 141.078, 162.777 140.541, 163.327 139.736"
       fill="#e38b49"
       fill-opacity="0.501961"
       id="path764" />
    <path
       d="M 151.574 144.347 C 149.441 146.022, 148.643 145.389, 149.791 142.932 C 150.939 140.475, 153.598 137.125, 155.731 135.449 C 157.863 133.774, 158.661 134.407, 157.513 136.864 C 156.365 139.321, 153.706 142.671, 151.574 144.347"
       fill="#fffffe"
       fill-opacity="0.501961"
       id="path766" />
    <path
       d="M 158.379 141.675 C 159.182 142.635, 159.897 144.425, 159.975 145.674 C 160.053 146.923, 159.465 147.158, 158.661 146.198 C 157.858 145.239, 157.144 143.448, 157.066 142.199 C 156.988 140.95, 157.576 140.716, 158.379 141.675"
       fill="#89502d"
       fill-opacity="0.501961"
       id="path768" />
    <path
       d="M 159.088 141.69 C 158.712 142.206, 158.079 142.224, 157.675 141.73 C 157.27 141.236, 157.247 140.418, 157.623 139.902 C 158 139.387, 158.633 139.369, 159.037 139.863 C 159.442 140.356, 159.465 141.175, 159.088 141.69"
       fill="#915331"
       fill-opacity="0.501961"
       id="path770" />
    <path
       d="M 161.976 141.462 C 162.81 141.983, 162.716 142.609, 161.765 142.861 C 160.813 143.112, 159.366 142.894, 158.531 142.373 C 157.696 141.852, 157.791 141.226, 158.742 140.974 C 159.693 140.723, 161.141 140.941, 161.976 141.462"
       fill="#a95f2c"
       fill-opacity="0.501961"
       id="path772" />
    <path
       d="M 167.12 154.221 C 167 153.538, 167.383 152.691, 167.974 152.329 C 168.566 151.967, 169.143 152.228, 169.263 152.911 C 169.383 153.594, 169.001 154.441, 168.409 154.803 C 167.818 155.165, 167.24 154.904, 167.12 154.221"
       fill="#fefdfb"
       fill-opacity="0.501961"
       id="path774" />
    <path
       d="M 159.312 127.109 C 161.242 129.083, 163.504 132.812, 164.362 135.436 C 165.221 138.061, 164.352 138.588, 162.421 136.613 C 160.491 134.639, 158.23 130.911, 157.371 128.286 C 156.512 125.661, 157.381 125.134, 159.312 127.109"
       fill="#ffffff"
       fill-opacity="0.501961"
       id="path776" />
    <path
       d="M 160.813 136.763 C 161.528 134.996, 163.214 132.482, 164.577 131.15 C 165.941 129.817, 166.467 130.17, 165.752 131.937 C 165.037 133.705, 163.352 136.218, 161.988 137.551 C 160.624 138.883, 160.098 138.531, 160.813 136.763"
       fill="#fcfaf5"
       fill-opacity="0.501961"
       id="path778" />
    <path
       d="M 176.823 154.794 C 176.008 154.42, 175.176 153.41, 174.964 152.539 C 174.752 151.667, 175.24 151.265, 176.055 151.639 C 176.87 152.014, 177.702 153.024, 177.914 153.895 C 178.126 154.766, 177.638 155.169, 176.823 154.794"
       fill="#fefffe"
       fill-opacity="0.501961"
       id="path780" />
    <path
       d="M 168.831 144.39 C 169.384 142.79, 170.014 142.853, 170.239 144.53 C 170.464 146.208, 170.198 148.865, 169.646 150.465 C 169.094 152.065, 168.464 152.002, 168.239 150.325 C 168.014 148.647, 168.279 145.99, 168.831 144.39"
       fill="#fefcf6"
       fill-opacity="0.501961"
       id="path782" />
    <path
       d="M 171.008 150.485 L 171.817 149.897 L 172.992 151.515 L 172.183 152.103 Z"
       fill="#ffffff"
       fill-opacity="0.501961"
       id="path784" />
    <path
       d="M 159.712 135.138 L 159.262 137.087 L 158.288 136.862 L 158.738 134.913 Z"
       fill="#8e4100"
       fill-opacity="0.501961"
       id="path786" />
    <path
       d="M 164.335 147.067 L 162.946 145.628 L 163.665 144.933 L 165.054 146.372 Z"
       fill="#f88d00"
       fill-opacity="0.501961"
       id="path788" />
    <path
       d="M 180.992 145.464 L 181.982 145.604 L 181.008 152.536 L 180.018 152.396 Z"
       fill="#ffffff"
       fill-opacity="0.501961"
       id="path790" />
    <path
       d="M 162.741 140.44 L 163.728 140.597 L 163.259 143.56 L 162.272 143.403 Z"
       fill="#efcc93"
       fill-opacity="0.501961"
       id="path792" />
    <path
       d="M 154.075 137.738 L 157.352 135.443 L 157.925 136.262 L 154.648 138.557 Z"
       fill="#ffffff"
       fill-opacity="0.501961"
       id="path794" />
    <path
       d="M 158.833 152.106 L 158.215 150.203 L 159.167 149.894 L 159.785 151.797 Z"
       fill="#f7f2c7"
       fill-opacity="0.501961"
       id="path796" />
    <path
       d="M 189.706 128.516 L 191.497 133.184 L 180.294 137.484 L 178.503 132.816 Z"
       fill="#ffffff"
       fill-opacity="0.501961"
       id="path798" />
    <path
       d="M 184.754 143.825 L 182.887 143.108 L 183.246 142.175 L 185.113 142.892 Z"
       fill="#fdfcee"
       fill-opacity="0.501961"
       id="path800" />
    <path
       d="M 180.907 144.629 L 182.748 143.848 L 185.093 149.371 L 183.252 150.152 Z"
       fill="#ffffff"
       fill-opacity="0.501961"
       id="path802" />
    <path
       d="M 178.965 139.939 L 180.001 143.802 L 179.035 144.061 L 177.999 140.198 Z"
       fill="#ae6326"
       fill-opacity="0.501961"
       id="path804" />
    <path
       d="M 185.49 136.946 L 186.397 136.523 L 188.51 141.054 L 187.603 141.477 Z"
       fill="#8a5b1b"
       fill-opacity="0.501961"
       id="path806" />
    <path
       d="M 185.392 132.976 L 186.298 133.399 L 184.608 137.024 L 183.702 136.601 Z"
       fill="#fcfaf6"
       fill-opacity="0.501961"
       id="path808" />
    <path
       d="M 196.796 143.609 L 195.593 145.206 L 189.204 140.391 L 190.407 138.794 Z"
       fill="#ffffff"
       fill-opacity="0.501961"
       id="path810" />
    <path
       d="M 188.938 141.704 L 188.378 142.533 L 185.062 140.296 L 185.622 139.467 Z"
       fill="#654115"
       fill-opacity="0.501961"
       id="path812" />
    <path
       d="M 164.153 154.941 L 164.851 146.972 L 165.847 147.059 L 165.149 155.028 Z"
       fill="#ffffff"
       fill-opacity="0.501961"
       id="path814" />
    <path
       d="M 172.239 142.033 L 173.238 141.981 L 173.761 151.967 L 172.762 152.019 Z"
       fill="#ec9507"
       fill-opacity="0.501961"
       id="path816" />
    <path
       d="M 188.739 135.208 L 171.07 131.774 L 171.261 130.792 L 188.93 134.226 Z"
       fill="#ffffff"
       fill-opacity="0.501961"
       id="path818" />
    <path
       d="M 170.738 153.087 L 170.288 151.138 L 171.262 150.913 L 171.712 152.862 Z"
       fill="#dba340"
       fill-opacity="0.501961"
       id="path820" />
    <path
       d="M 175.16 143.883 L 175.855 139.944 L 176.84 140.117 L 176.145 144.056 Z"
       fill="#ffffff"
       fill-opacity="0.501961"
       id="path822" />
  </g>
</svg>
